<?xml version="1.0" encoding="UTF-8" standalone="no"?>
<svg
   width="81.1389mm"
   height="60.325mm"
   viewBox="0 0 230 171"
   version="1.2"
   id="svg61"
   sodipodi:docname="exp_sintesis.svg"
   inkscape:version="1.4.2 (ebf0e940, 2025-05-08)"
   inkscape:export-filename="exp_sintesis.pdf"
   inkscape:export-xdpi="96"
   inkscape:export-ydpi="96"
   xmlns:inkscape="http://www.inkscape.org/namespaces/inkscape"
   xmlns:sodipodi="http://sodipodi.sourceforge.net/DTD/sodipodi-0.dtd"
   xmlns="http://www.w3.org/2000/svg"
   xmlns:svg="http://www.w3.org/2000/svg">
  <sodipodi:namedview
     id="namedview61"
     pagecolor="#ffffff"
     bordercolor="#000000"
     borderopacity="0.25"
     inkscape:showpageshadow="2"
     inkscape:pageopacity="0.0"
     inkscape:pagecheckerboard="0"
     inkscape:deskcolor="#d1d1d1"
     inkscape:document-units="mm"
     inkscape:zoom="0.95142258"
     inkscape:cx="170.27134"
     inkscape:cy="102.47812"
     inkscape:window-width="1440"
     inkscape:window-height="834"
     inkscape:window-x="3"
     inkscape:window-y="34"
     inkscape:window-maximized="0"
     inkscape:current-layer="g61" />
  <title
     id="title1">Qt SVG Document</title>
  <desc
     id="desc1">MATLAB, The MathWorks, Inc. Version 25.1.0.2973910 R2025a Update 1</desc>
  <defs
     id="defs1" />
  <g
     fill="none"
     stroke="black"
     stroke-width="1"
     fill-rule="evenodd"
     stroke-linecap="square"
     stroke-linejoin="bevel"
     id="g61">
    <g
       fill="#ffffff"
       fill-opacity="1"
       stroke="none"
       transform="matrix(0.5,0,0,0.5,-4.6,-8.25)"
       font-family=".AppleSystemUIFont"
       font-size="13"
       font-weight="400"
       font-style="normal"
       id="g1">
      <path
         vector-effect="none"
         fill-rule="evenodd"
         d="M8,15 L469,15 L469,358 L8,358 L8,15"
         id="path1" />
    </g>
    <g
       fill="#ffffff"
       fill-opacity="1"
       stroke="none"
       transform="matrix(5e-05,0,0,5e-05,-4.6,-8.25)"
       font-family=".AppleSystemUIFont"
       font-size="13"
       font-weight="400"
       font-style="normal"
       id="g2">
      <path
         vector-effect="none"
         fill-rule="evenodd"
         d="M660000,270000 L660000,3.06e+06 L4.56e+06,3.06e+06 L4.56e+06,270000 L660000,270000"
         id="path2" />
    </g>
    <g
       fill="#212121"
       fill-opacity="0.14902"
       stroke="#212121"
       stroke-opacity="0.14902"
       stroke-width="1"
       stroke-linecap="butt"
       stroke-linejoin="round"
       transform="matrix(0.5,0,0,0.5,-4.6,-8.25)"
       font-family=".AppleSystemUIFont"
       font-size="13"
       font-weight="400"
       font-style="normal"
       id="g12">
      <polyline
         fill="none"
         vector-effect="none"
         points="66,27 66,306 "
         id="polyline2" />
      <polyline
         fill="none"
         vector-effect="none"
         points="144,27 144,306 "
         id="polyline3" />
      <polyline
         fill="none"
         vector-effect="none"
         points="222,27 222,306 "
         id="polyline4" />
      <polyline
         fill="none"
         vector-effect="none"
         points="300,27 300,306 "
         id="polyline5" />
      <polyline
         fill="none"
         vector-effect="none"
         points="378,27 378,306 "
         id="polyline6" />
      <polyline
         fill="none"
         vector-effect="none"
         points="456,27 456,306 "
         id="polyline7" />
      <polyline
         fill="none"
         vector-effect="none"
         points="66,306 456,306 "
         id="polyline8" />
      <polyline
         fill="none"
         vector-effect="none"
         points="66,236.25 456,236.25 "
         id="polyline9" />
      <polyline
         fill="none"
         vector-effect="none"
         points="66,166.5 456,166.5 "
         id="polyline10" />
      <polyline
         fill="none"
         vector-effect="none"
         points="66,96.75 456,96.75 "
         id="polyline11" />
      <polyline
         fill="none"
         vector-effect="none"
         points="66,27 456,27 "
         id="polyline12" />
    </g>
    <g
       fill="#212121"
       fill-opacity="1"
       stroke="#212121"
       stroke-opacity="1"
       stroke-width="1"
       stroke-linecap="square"
       stroke-linejoin="bevel"
       transform="matrix(0.5,0,0,0.5,102.15,167.4)"
       font-family="Helvetica"
       font-size="20"
       font-weight="400"
       font-style="normal"
       id="g13">
      <text
         fill="#212121"
         fill-opacity="1"
         stroke="none"
         xml:space="preserve"
         x="46.538086"
         y="0.390625"
         font-family="Helvetica"
         font-size="20px"
         font-weight="400"
         font-style="normal"
         id="text12"
         style="text-align:center;text-anchor:middle">Tiempo (s)</text>
    </g>
    <g
       fill="#212121"
       fill-opacity="1"
       stroke="#212121"
       stroke-opacity="1"
       stroke-width="1"
       stroke-linecap="square"
       stroke-linejoin="round"
       transform="matrix(0.5,0,0,0.5,-4.6,-8.25)"
       font-family="Helvetica"
       font-size="20"
       font-weight="400"
       font-style="normal"
       id="g26">
      <polyline
         fill="none"
         vector-effect="none"
         points="66,306 456,306 "
         id="polyline13" />
      <polyline
         fill="none"
         vector-effect="none"
         points="66,27 456,27 "
         id="polyline14" />
      <polyline
         fill="none"
         vector-effect="none"
         points="66,306 66,302.1 "
         id="polyline15" />
      <polyline
         fill="none"
         vector-effect="none"
         points="66,30.9 66,27 "
         id="polyline16" />
      <polyline
         fill="none"
         vector-effect="none"
         points="144,306 144,302.1 "
         id="polyline17" />
      <polyline
         fill="none"
         vector-effect="none"
         points="144,30.9 144,27 "
         id="polyline18" />
      <polyline
         fill="none"
         vector-effect="none"
         points="222,306 222,302.1 "
         id="polyline19" />
      <polyline
         fill="none"
         vector-effect="none"
         points="222,30.9 222,27 "
         id="polyline20" />
      <polyline
         fill="none"
         vector-effect="none"
         points="300,306 300,302.1 "
         id="polyline21" />
      <polyline
         fill="none"
         vector-effect="none"
         points="300,30.9 300,27 "
         id="polyline22" />
      <polyline
         fill="none"
         vector-effect="none"
         points="378,306 378,302.1 "
         id="polyline23" />
      <polyline
         fill="none"
         vector-effect="none"
         points="378,30.9 378,27 "
         id="polyline24" />
      <polyline
         fill="none"
         vector-effect="none"
         points="456,306 456,302.1 "
         id="polyline25" />
      <polyline
         fill="none"
         vector-effect="none"
         points="456,30.9 456,27 "
         id="polyline26" />
    </g>
    <g
       fill="#212121"
       fill-opacity="1"
       stroke="#212121"
       stroke-opacity="1"
       stroke-width="1"
       stroke-linecap="square"
       stroke-linejoin="bevel"
       transform="matrix(0.5,0,0,0.5,25.65,155.65)"
       font-family="Helvetica"
       font-size="19"
       font-weight="400"
       font-style="normal"
       id="g27">
      <text
         fill="#212121"
         fill-opacity="1"
         stroke="none"
         xml:space="preserve"
         x="4.5830078"
         y="-0.375"
         font-family="Helvetica"
         font-size="19px"
         font-weight="400"
         font-style="normal"
         id="text26"
         style="text-align:center;text-anchor:middle">0</text>
    </g>
    <g
       fill="#212121"
       fill-opacity="1"
       stroke="#212121"
       stroke-opacity="1"
       stroke-width="1"
       stroke-linecap="square"
       stroke-linejoin="bevel"
       transform="matrix(0.5,0,0,0.5,64.65,155.65)"
       font-family="Helvetica"
       font-size="19"
       font-weight="400"
       font-style="normal"
       id="g28">
      <text
         fill="#212121"
         fill-opacity="1"
         stroke="none"
         xml:space="preserve"
         x="4.5737305"
         y="-0.375"
         font-family="Helvetica"
         font-size="19px"
         font-weight="400"
         font-style="normal"
         id="text27"
         style="text-align:center;text-anchor:middle">5</text>
    </g>
    <g
       fill="#212121"
       fill-opacity="1"
       stroke="#212121"
       stroke-opacity="1"
       stroke-width="1"
       stroke-linecap="square"
       stroke-linejoin="bevel"
       transform="matrix(0.5,0,0,0.5,101.15,155.65)"
       font-family="Helvetica"
       font-size="19"
       font-weight="400"
       font-style="normal"
       id="g29">
      <text
         fill="#212121"
         fill-opacity="1"
         stroke="none"
         xml:space="preserve"
         x="9.2541504"
         y="-0.375"
         font-family="Helvetica"
         font-size="19px"
         font-weight="400"
         font-style="normal"
         id="text28"
         style="text-align:center;text-anchor:middle">10</text>
    </g>
    <g
       fill="#212121"
       fill-opacity="1"
       stroke="#212121"
       stroke-opacity="1"
       stroke-width="1"
       stroke-linecap="square"
       stroke-linejoin="bevel"
       transform="matrix(0.5,0,0,0.5,140.15,155.65)"
       font-family="Helvetica"
       font-size="19"
       font-weight="400"
       font-style="normal"
       id="g30">
      <text
         fill="#212121"
         fill-opacity="1"
         stroke="none"
         xml:space="preserve"
         x="9.2541504"
         y="-0.375"
         font-family="Helvetica"
         font-size="19px"
         font-weight="400"
         font-style="normal"
         id="text29"
         style="text-align:center;text-anchor:middle">15</text>
    </g>
    <g
       fill="#212121"
       fill-opacity="1"
       stroke="#212121"
       stroke-opacity="1"
       stroke-width="1"
       stroke-linecap="square"
       stroke-linejoin="bevel"
       transform="matrix(0.5,0,0,0.5,179.15,155.65)"
       font-family="Helvetica"
       font-size="19"
       font-weight="400"
       font-style="normal"
       id="g31">
      <text
         fill="#212121"
         fill-opacity="1"
         stroke="none"
         xml:space="preserve"
         x="9.8664551"
         y="-0.375"
         font-family="Helvetica"
         font-size="19px"
         font-weight="400"
         font-style="normal"
         id="text30"
         style="text-align:center;text-anchor:middle">20</text>
    </g>
    <g
       fill="#212121"
       fill-opacity="1"
       stroke="#212121"
       stroke-opacity="1"
       stroke-width="1"
       stroke-linecap="square"
       stroke-linejoin="bevel"
       transform="matrix(0.5,0,0,0.5,218.15,155.65)"
       font-family="Helvetica"
       font-size="19"
       font-weight="400"
       font-style="normal"
       id="g32">
      <text
         fill="#212121"
         fill-opacity="1"
         stroke="none"
         xml:space="preserve"
         x="9.8664551"
         y="-0.375"
         font-family="Helvetica"
         font-size="19px"
         font-weight="400"
         font-style="normal"
         id="text31"
         style="text-align:center;text-anchor:middle">25</text>
    </g>
    <g
       fill="#212121"
       fill-opacity="1"
       stroke="#212121"
       stroke-opacity="1"
       stroke-width="1"
       stroke-linecap="square"
       stroke-linejoin="bevel"
       transform="matrix(0,-0.5,0.5,0,9,103.5)"
       font-family="Helvetica"
       font-size="20"
       font-weight="400"
       font-style="normal"
       id="g33">
      <text
         fill="#212121"
         fill-opacity="1"
         stroke="none"
         xml:space="preserve"
         x="56.37207"
         y="0.390625"
         font-family="Helvetica"
         font-size="20px"
         font-weight="400"
         font-style="normal"
         id="text32"
         style="text-align:center;text-anchor:middle">Amplitud (%)</text>
    </g>
    <g
       fill="#212121"
       fill-opacity="1"
       stroke="#212121"
       stroke-opacity="1"
       stroke-width="1"
       stroke-linecap="square"
       stroke-linejoin="round"
       transform="matrix(0.5,0,0,0.5,-4.6,-8.25)"
       font-family="Helvetica"
       font-size="20"
       font-weight="400"
       font-style="normal"
       id="g44">
      <polyline
         fill="none"
         vector-effect="none"
         points="66,306 66,27 "
         id="polyline33" />
      <polyline
         fill="none"
         vector-effect="none"
         points="456,306 456,27 "
         id="polyline34" />
      <polyline
         fill="none"
         vector-effect="none"
         points="66,306 69.9,306 "
         id="polyline35" />
      <polyline
         fill="none"
         vector-effect="none"
         points="452.1,306 456,306 "
         id="polyline36" />
      <polyline
         fill="none"
         vector-effect="none"
         points="66,236.25 69.9,236.25 "
         id="polyline37" />
      <polyline
         fill="none"
         vector-effect="none"
         points="452.1,236.25 456,236.25 "
         id="polyline38" />
      <polyline
         fill="none"
         vector-effect="none"
         points="66,166.5 69.9,166.5 "
         id="polyline39" />
      <polyline
         fill="none"
         vector-effect="none"
         points="452.1,166.5 456,166.5 "
         id="polyline40" />
      <polyline
         fill="none"
         vector-effect="none"
         points="66,96.75 69.9,96.75 "
         id="polyline41" />
      <polyline
         fill="none"
         vector-effect="none"
         points="452.1,96.75 456,96.75 "
         id="polyline42" />
      <polyline
         fill="none"
         vector-effect="none"
         points="66,27 69.9,27 "
         id="polyline43" />
      <polyline
         fill="none"
         vector-effect="none"
         points="452.1,27 456,27 "
         id="polyline44" />
    </g>
    <g
       fill="#212121"
       fill-opacity="1"
       stroke="#212121"
       stroke-opacity="1"
       stroke-width="1"
       stroke-linecap="square"
       stroke-linejoin="bevel"
       transform="matrix(0.5,0,0,0.5,14.5,147.5)"
       font-family="Helvetica"
       font-size="19"
       font-weight="400"
       font-style="normal"
       id="g45">
      <text
         fill="#212121"
         fill-opacity="1"
         stroke="none"
         xml:space="preserve"
         x="9.2541504"
         y="-0.375"
         font-family="Helvetica"
         font-size="19px"
         font-weight="400"
         font-style="normal"
         id="text44"
         style="text-align:center;text-anchor:middle">10</text>
    </g>
    <g
       fill="#212121"
       fill-opacity="1"
       stroke="#212121"
       stroke-opacity="1"
       stroke-width="1"
       stroke-linecap="square"
       stroke-linejoin="bevel"
       transform="matrix(0.5,0,0,0.5,14.5,112.625)"
       font-family="Helvetica"
       font-size="19"
       font-weight="400"
       font-style="normal"
       id="g46">
      <text
         fill="#212121"
         fill-opacity="1"
         stroke="none"
         xml:space="preserve"
         x="9.2541504"
         y="-0.375"
         font-family="Helvetica"
         font-size="19px"
         font-weight="400"
         font-style="normal"
         id="text45"
         style="text-align:center;text-anchor:middle">15</text>
    </g>
    <g
       fill="#212121"
       fill-opacity="1"
       stroke="#212121"
       stroke-opacity="1"
       stroke-width="1"
       stroke-linecap="square"
       stroke-linejoin="bevel"
       transform="matrix(0.5,0,0,0.5,14.5,77.75)"
       font-family="Helvetica"
       font-size="19"
       font-weight="400"
       font-style="normal"
       id="g47">
      <text
         fill="#212121"
         fill-opacity="1"
         stroke="none"
         xml:space="preserve"
         x="9.8664551"
         y="-0.375"
         font-family="Helvetica"
         font-size="19px"
         font-weight="400"
         font-style="normal"
         id="text46"
         style="text-align:center;text-anchor:middle">20</text>
    </g>
    <g
       fill="#212121"
       fill-opacity="1"
       stroke="#212121"
       stroke-opacity="1"
       stroke-width="1"
       stroke-linecap="square"
       stroke-linejoin="bevel"
       transform="matrix(0.5,0,0,0.5,14.5,42.875)"
       font-family="Helvetica"
       font-size="19"
       font-weight="400"
       font-style="normal"
       id="g48">
      <text
         fill="#212121"
         fill-opacity="1"
         stroke="none"
         xml:space="preserve"
         x="9.8664551"
         y="-0.375"
         font-family="Helvetica"
         font-size="19px"
         font-weight="400"
         font-style="normal"
         id="text47"
         style="text-align:center;text-anchor:middle">25</text>
    </g>
    <g
       fill="#212121"
       fill-opacity="1"
       stroke="#212121"
       stroke-opacity="1"
       stroke-width="1"
       stroke-linecap="square"
       stroke-linejoin="bevel"
       transform="matrix(0.5,0,0,0.5,14.5,8)"
       font-family="Helvetica"
       font-size="19"
       font-weight="400"
       font-style="normal"
       id="g49">
      <text
         fill="#212121"
         fill-opacity="1"
         stroke="none"
         xml:space="preserve"
         x="9.9360352"
         y="-0.375"
         font-family="Helvetica"
         font-size="19px"
         font-weight="400"
         font-style="normal"
         id="text48"
         style="text-align:center;text-anchor:middle">30</text>
    </g>
    <g
       fill="none"
       stroke="#1171be"
       stroke-opacity="1"
       stroke-width="1"
       stroke-linecap="butt"
       stroke-linejoin="round"
       transform="matrix(0.5,0,0,0.5,-4.6,-8.25)"
       font-family="Helvetica"
       font-size="19"
       font-weight="400"
       font-style="normal"
       id="g50">
      <polyline
         fill="none"
         vector-effect="none"
         points="66,226.065 66.2962,223.218 66.5613,224.642 66.8263,223.93 67.0758,224.642 67.372,221.794 67.6214,223.218 67.8241,225.353 68.1671,223.93 68.4009,221.794 68.6815,222.506 68.9325,225.353 69.2132,223.93 69.4626,224.642 69.7276,221.794 69.9771,224.642 70.2421,224.642 70.4292,226.065 70.6942,221.794 70.9593,224.642 71.2447,223.93 71.4941,225.353 71.7747,221.794 72.0397,223.93 72.2907,222.506 72.5714,221.794 72.8208,223.218 73.1638,221.082 73.3977,223.218 73.6783,223.218 73.9277,224.642 74.2084,221.082 74.4578,221.082 74.7384,223.218 75.0035,223.93 75.2685,224.642 75.5335,224.642 75.783,225.353 76.048,224.642 76.2974,223.93 76.5781,225.353 76.8377,224.642 77.1028,226.065 77.3366,223.93 77.6017,226.065 77.8667,224.642 78.1161,223.93 78.3968,226.065 78.6462,226.065 78.9113,226.777 79.1763,226.777 79.4413,224.642 79.6908,224.642 79.9558,226.065 80.2053,223.93 80.4703,225.353 80.7197,227.489 80.9848,226.777 81.2498,226.065 81.4993,226.065 81.7799,223.218 82.0449,225.353 82.3723,222.506 82.6529,223.218 82.9024,223.218 83.183,220.371 83.4325,220.371 83.7287,222.506 83.9781,222.506 84.2588,221.794 84.5082,221.082 84.7929,224.642 85.0267,224.642 85.3073,221.794 85.5412,224.642 85.8062,224.642 86.0557,225.353 86.3207,225.353 86.5857,225.353 86.8508,225.353 87.1003,222.506 87.3808,224.642 87.6303,225.353 87.8953,221.082 88.1448,221.082 88.4254,223.93 88.6593,224.642 88.9399,221.082 89.1893,224.642 89.4544,221.794 89.7038,222.506 89.9844,221.794 90.2495,223.218 90.5145,223.218 90.7951,224.642 91.8005,226.065 91.972,226.065 92.3461,229.624 92.5888,228.201 92.8382,228.201 93.1033,228.913 93.3527,228.201 93.6178,229.624 93.8828,228.201 94.1479,228.201 94.4129,226.777 94.6623,226.777 94.9273,227.489 95.1924,226.065 95.4574,227.489 95.7225,226.065 95.9719,228.201 96.2525,226.065 96.502,227.489 96.7514,227.489 97.0164,224.642 97.2659,222.506 97.5309,225.353 97.796,226.777 98.061,225.353 98.3416,224.642 98.6067,224.642 98.8873,226.777 99.1367,223.218 99.4018,225.353 99.6512,224.642 99.9163,224.642 100.166,225.353 100.435,221.082 100.684,221.794 100.949,221.794 101.199,220.371 101.464,221.794 101.713,222.506 102.009,223.218 102.259,222.506 102.524,222.506 102.773,220.371 103.069,221.082 103.319,220.371 103.584,224.642 103.849,222.506 104.114,224.642 104.379,225.353 104.675,226.777 104.909,224.642 105.205,223.93 105.455,223.93 105.735,223.218 105.985,223.93 106.328,221.794 106.577,221.794 106.873,222.506 107.123,222.506 107.403,221.794 107.637,223.218 107.934,222.506 108.183,222.506 108.451,224.642 108.716,222.506 108.981,224.642 109.231,221.794 109.496,221.794 109.745,223.93 110.01,225.353 110.26,226.777 110.54,223.218 110.79,225.353 111.071,225.353 111.304,224.642 111.585,227.489 111.834,226.065 112.099,223.218 112.365,225.353 112.63,226.065 112.879,223.218 113.175,225.353 113.425,221.794 113.721,224.642 113.97,224.642 114.235,220.371 114.485,221.794 114.75,219.659 114.999,221.794 115.264,220.371 115.514,220.371 115.794,218.947 116.044,220.371 116.313,220.371 116.578,222.506 116.843,224.642 117.092,220.371 117.388,221.794 117.638,223.218 117.934,221.794 118.183,223.93 118.464,221.794 118.713,224.642 118.963,227.489 119.244,224.642 119.509,228.913 119.774,228.913 120.039,225.353 120.304,225.353 120.553,227.489 120.818,224.642 121.099,225.353 121.348,225.353 121.629,226.065 121.909,225.353 122.159,221.794 122.44,224.642 122.705,227.489 122.954,226.065 123.235,225.353 123.484,226.065 123.765,224.642 124.014,222.506 124.282,223.218 124.531,223.93 124.796,219.659 125.061,222.506 125.326,220.371 125.576,218.947 125.825,216.812 126.106,216.812 126.355,218.947 126.62,218.947 126.885,220.371 127.15,221.082 127.415,219.659 127.649,221.794 127.945,222.506 128.21,221.794 128.475,223.93 128.74,224.642 129.005,223.93 129.27,224.642 129.535,224.642 129.801,226.777 130.066,225.353 130.331,225.353 130.596,226.065 130.845,224.642 131.094,227.489 131.375,229.624 131.625,233.895 131.89,236.743 132.146,242.437 132.457,248.844 132.722,258.098 132.987,265.216 133.252,269.487 133.518,275.182 133.783,279.453 134.048,279.453 134.313,284.435 134.562,288.706 134.858,290.842 135.123,292.265 135.388,292.977 135.653,293.689 135.934,292.977 136.183,295.825 136.48,295.825 136.76,294.401 137.025,297.96 137.29,297.96 137.602,297.96 137.852,295.113 138.132,295.825 138.382,293.689 138.678,290.842 138.927,289.418 139.208,288.706 139.473,290.13 139.754,287.995 140.003,287.283 140.268,281.588 140.533,279.453 140.798,281.588 141.048,279.453 141.328,277.317 141.578,276.605 141.843,275.893 142.108,276.605 142.373,276.605 142.638,273.758 142.872,275.182 143.168,275.182 143.433,275.182 143.698,273.758 143.963,273.046 144.212,273.758 144.493,269.487 144.743,270.911 145.023,270.911 145.288,267.351 145.538,268.775 145.818,270.199 146.068,265.928 146.348,265.216 146.613,266.64 146.863,268.775 147.128,268.063 147.393,265.928 147.642,265.216 147.921,264.504 148.171,263.08 148.451,262.369 148.716,258.809 148.981,260.945 149.262,259.521 149.511,260.945 149.823,260.945 150.088,262.369 150.369,265.216 150.618,267.351 150.899,267.351 151.148,264.504 151.429,266.64 151.694,264.504 151.959,266.64 152.255,264.504 152.52,262.369 152.785,262.369 153.05,260.945 153.347,262.369 153.596,260.945 153.877,256.674 154.142,258.809 154.422,256.674 154.687,252.403 154.953,253.827 155.233,251.691 155.483,250.268 155.763,248.844 156.028,248.844 156.293,248.844 156.558,245.997 156.823,245.997 157.088,244.573 157.353,246.708 157.618,243.861 157.883,242.437 158.149,241.726 158.414,242.437 158.663,242.437 158.944,241.014 159.193,241.014 159.474,237.455 159.723,238.166 160.019,239.59 160.284,241.726 160.549,240.302 160.83,240.302 161.079,240.302 161.36,238.878 161.61,236.743 161.906,236.743 162.155,238.878 162.436,237.455 162.701,236.743 162.966,238.166 163.247,235.319 163.512,234.607 163.792,237.455 164.057,233.184 164.322,233.895 164.603,233.895 164.868,236.031 165.133,231.76 165.398,232.472 165.679,232.472 165.944,231.048 166.209,229.624 166.474,231.048 166.739,227.489 167.004,231.048 167.269,228.913 167.534,227.489 167.799,230.336 168.08,229.624 168.329,231.048 168.625,233.184 168.906,234.607 169.171,236.031 169.436,236.031 169.701,234.607 169.966,238.878 170.231,236.031 170.496,236.031 170.761,239.59 171.026,238.878 171.291,239.59 171.575,238.166 171.82,236.743 172.116,238.878 172.365,236.743 172.646,236.743 172.927,236.743 173.176,232.472 173.457,231.76 173.722,229.624 173.987,229.624 174.236,226.777 174.501,229.624 174.766,226.777 175.031,224.642 175.296,230.336 175.561,228.201 175.826,228.201 176.107,226.777 176.372,230.336 176.653,231.048 176.918,229.624 177.167,228.201 177.448,226.065 177.729,226.777 177.978,223.93 178.243,226.065 178.508,226.777 178.773,223.218 179.038,224.642 179.303,223.93 179.567,222.506 179.863,223.93 180.128,224.642 180.393,227.489 180.659,226.777 180.939,230.336 181.204,233.895 181.469,234.607 181.734,236.743 181.999,236.743 182.264,237.455 182.529,235.319 182.81,236.743 183.075,233.184 183.34,231.76 183.605,228.201 183.87,226.777 184.151,225.353 184.416,224.642 184.696,225.353 184.961,223.93 185.227,223.218 185.492,226.065 185.772,226.777 186.037,233.184 186.302,228.201 186.567,226.065 186.848,228.913 187.097,227.489 187.375,225.353 187.635,225.353 187.9,224.642 188.149,220.371 188.43,220.371 188.679,221.794 188.96,219.659 189.209,220.371 189.459,220.371 189.724,220.371 189.973,220.371 190.238,216.812 190.488,219.659 190.753,220.371 191.002,221.082 191.267,223.93 191.532,221.794 191.797,224.642 192.062,224.642 192.312,227.489 192.577,229.624 192.857,233.895 193.122,232.472 193.372,235.319 193.637,238.166 193.886,236.031 194.151,236.743 194.416,233.895 194.666,236.031 194.946,234.607 195.212,235.319 195.478,231.76 195.728,232.472 195.993,231.048 196.258,232.472 196.507,229.624 196.757,226.777 197.006,229.624 197.287,226.065 197.536,229.624 197.801,230.336 198.051,231.048 198.316,231.048 198.565,233.895 198.83,232.472 199.095,232.472 199.36,233.895 199.61,231.76 199.89,233.895 200.155,233.184 200.451,230.336 200.716,231.048 200.982,230.336 201.231,228.913 201.527,229.624 201.777,227.489 202.057,225.353 202.307,223.93 202.572,221.794 202.821,218.235 203.117,218.947 203.356,217.523 203.636,217.523 203.886,218.235 204.166,220.371 204.416,218.947 204.681,223.218 204.946,223.93 205.195,225.353 205.46,224.642 205.725,226.065 205.975,224.642 206.24,224.642 206.505,224.642 206.754,226.777 207.019,225.353 207.285,227.489 207.534,226.777 207.815,226.777 208.08,226.777 208.345,230.336 208.594,229.624 208.89,229.624 209.124,228.913 209.405,228.201 209.639,224.642 209.935,224.642 210.184,227.489 210.449,223.93 210.714,223.93 210.964,223.93 211.213,224.642 211.494,224.642 211.743,224.642 212.008,224.642 212.273,225.353 212.523,224.642 212.788,226.065 213.068,222.506 213.318,224.642 213.583,227.489 213.832,226.065 214.097,224.642 214.347,221.794 214.612,223.93 214.877,223.218 215.142,221.794 215.391,218.947 215.672,218.947 215.937,216.1 216.233,217.523 216.482,218.235 216.748,215.388 217.013,213.964 217.309,217.523 217.558,213.964 217.839,214.676 218.073,218.235 218.338,215.388 218.587,213.964 218.868,215.388 219.123,215.388 219.404,218.947 219.653,218.947 219.934,217.523 220.183,215.388 220.464,218.235 220.713,220.371 220.978,221.082 221.243,218.947 221.508,220.371 221.758,220.371 222.007,220.371 222.288,221.794 222.522,220.371 222.818,221.794 223.083,226.065 223.332,219.659 223.629,222.506 223.878,220.371 224.159,221.082 224.408,222.506 224.673,220.371 224.923,221.794 225.203,216.812 225.437,218.947 225.733,218.235 225.983,218.235 226.279,217.523 226.529,216.812 226.794,217.523 227.049,217.523 227.329,216.1 227.579,216.812 227.844,214.676 228.093,216.1 228.389,216.1 228.623,214.676 228.904,213.252 229.153,216.812 229.434,213.252 229.683,212.541 229.948,215.388 230.198,216.812 230.463,214.676 230.712,218.947 230.993,216.1 231.258,221.082 231.523,221.794 231.772,220.371 232.069,221.794 232.318,223.93 232.599,224.642 232.848,222.506 233.129,223.93 233.394,224.642 233.643,222.506 233.908,220.371 234.158,221.082 234.423,221.082 234.672,220.371 234.948,221.794 235.244,220.371 235.494,221.794 235.759,222.506 236.008,222.506 236.289,221.794 236.523,221.794 236.788,220.371 237.037,220.371 237.302,220.371 237.552,223.93 237.817,220.371 238.066,221.794 238.331,222.506 238.581,222.506 238.846,224.642 239.111,223.93 239.376,226.065 239.641,224.642 239.89,222.506 240.155,224.642 240.451,222.506 240.701,225.353 240.981,221.082 241.231,221.794 241.496,221.082 241.761,219.659 242.01,216.1 242.275,217.523 242.54,218.235 242.806,215.388 243.056,216.812 243.321,216.1 243.57,218.235 243.851,221.794 244.1,222.506 244.35,218.947 244.615,218.947 244.88,222.506 245.145,218.947 245.394,221.794 245.659,223.93 245.924,221.082 246.174,221.794 246.439,223.93 246.688,221.794 246.954,220.371 247.234,220.371 247.484,221.794 247.764,221.794 248.014,221.794 248.294,219.659 248.528,220.371 248.793,219.659 249.058,221.082 249.308,219.659 249.573,218.947 249.822,223.218 250.087,221.794 250.337,221.794 250.604,220.371 250.874,221.794 251.123,222.506 251.388,223.218 251.653,225.353 251.903,225.353 252.152,228.913 252.417,230.336 252.698,228.913 252.947,228.201 253.212,231.048 253.462,228.913 253.743,228.201 253.992,226.065 254.257,224.642 254.522,221.794 254.787,219.659 255.037,218.235 255.317,213.964 255.567,213.964 255.816,211.829 256.097,211.117 256.362,208.27 256.627,210.405 256.892,209.693 257.157,209.693 257.422,209.693 257.671,211.117 257.936,213.252 258.201,215.388 258.468,218.235 258.722,217.523 258.987,216.812 259.236,223.218 259.501,223.218 259.766,223.218 260.016,221.082 260.281,223.93 260.546,225.353 260.795,222.506 261.06,221.794 261.31,221.794 261.575,220.371 261.84,220.371 262.089,218.235 262.354,221.794 262.604,218.235 262.869,221.794 263.134,219.659 263.414,219.659 263.664,221.082 263.945,221.082 264.21,220.371 264.459,222.506 264.724,221.082 264.989,221.794 265.239,223.218 265.519,221.082 265.769,221.082 266.034,223.93 266.283,223.218 266.578,223.93 266.828,223.93 267.093,227.489 267.343,226.777 267.607,225.353 267.888,228.201 268.137,228.913 268.402,231.048 268.667,228.913 268.948,232.472 269.213,233.184 269.462,232.472 269.712,234.607 269.992,234.607 270.242,236.031 270.507,236.031 270.772,231.76 271.021,228.201 271.333,224.642 271.551,223.218 271.894,218.235 272.128,216.1 272.409,212.541 272.658,209.693 272.923,210.405 273.173,209.693 273.438,210.405 273.703,211.829 273.968,212.541 274.217,216.1 274.493,218.235 274.758,218.235 275.008,220.371 275.273,221.082 275.538,224.642 275.803,226.065 276.068,225.353 276.333,224.642 276.582,225.353 276.879,225.353 277.128,220.371 277.409,223.218 277.658,220.371 277.923,218.947 278.173,218.947 278.438,215.388 278.687,216.812 278.968,212.541 279.217,216.1 279.513,215.388 279.81,214.676 280.059,216.1 280.34,215.388 280.589,216.1 280.87,216.812 281.12,214.676 281.416,215.388 281.665,215.388 281.93,216.1 282.216,218.235 282.484,219.659 282.733,221.794 283.014,220.371 283.263,224.642 283.528,229.624 283.793,228.913 284.058,231.76 284.323,233.184 284.573,230.336 284.838,230.336 285.087,235.319 285.368,231.048 285.617,233.184 285.882,231.048 286.147,231.76 286.428,230.336 286.662,227.489 286.974,230.336 287.207,229.624 287.535,226.777 287.784,228.913 288.065,226.065 288.314,224.642 288.595,224.642 288.829,222.506 289.109,224.642 289.359,221.794 289.624,220.371 289.873,224.642 290.141,221.794 290.389,219.659 290.67,221.794 290.904,218.947 291.2,218.947 291.465,218.947 291.73,218.235 291.996,221.082 292.261,218.235 292.542,219.659 292.791,221.794 293.072,221.794 293.321,226.777 293.571,224.642 293.836,228.201 294.085,230.336 294.366,231.048 294.615,233.895 294.927,233.184 295.161,233.184 295.457,233.184 295.707,231.76 295.987,232.472 296.237,230.336 296.517,231.048 296.767,228.913 297.047,224.642 297.297,223.218 297.562,221.794 297.811,223.93 298.085,219.659 298.335,221.794 298.6,222.506 298.865,223.218 299.115,224.642 299.38,224.642 299.645,223.218 299.894,222.506 300.159,223.218 300.424,225.353 300.674,224.642 300.954,222.506 301.204,219.659 301.469,221.082 301.734,219.659 301.983,219.659 302.248,218.947 302.498,219.659 302.794,218.947 303.043,219.659 303.34,221.794 303.605,221.794 303.854,222.506 304.119,225.353 304.369,227.489 304.649,228.201 304.899,226.777 305.179,226.065 305.429,227.489 305.694,226.777 305.965,226.065 306.21,224.642 306.491,224.642 306.756,221.794 307.005,221.082 307.301,220.371 307.551,223.218 307.831,218.947 308.081,218.235 308.346,217.523 308.611,220.371 308.892,218.947 309.125,217.523 309.422,219.659 309.687,222.506 309.952,223.93 310.217,223.93 310.497,225.353 310.762,228.913 311.043,231.76 311.324,230.336 311.573,227.489 311.854,227.489 312.088,229.624 312.353,225.353 312.602,226.065 312.883,226.065 313.132,224.642 313.397,223.218 313.662,222.506 313.912,221.794 314.177,222.506 314.442,220.371 314.707,222.506 314.972,218.947 315.237,219.659 315.502,221.082 315.768,223.93 316.033,221.794 316.313,221.794 316.578,223.93 316.843,228.201 317.124,228.201 317.373,228.201 317.654,226.777 317.903,225.353 318.184,224.642 318.433,223.93 318.745,227.489 318.979,224.642 319.291,226.065 319.54,230.336 319.821,228.913 320.086,231.76 320.335,231.048 320.585,228.913 320.866,231.048 321.115,233.895 321.396,232.472 321.645,230.336 321.922,231.76 322.187,225.353 322.437,221.082 322.717,216.812 322.982,208.981 323.247,201.863 323.512,192.609 323.777,184.067 324.027,179.796 324.307,170.543 324.557,160.577 324.853,153.459 325.111,152.035 325.392,147.764 325.641,144.917 325.922,139.934 326.171,138.51 326.483,137.798 326.702,138.51 327.013,136.375 327.294,135.663 327.543,134.951 327.824,137.087 328.089,134.951 328.354,138.51 328.619,137.087 328.884,135.663 329.149,141.358 329.414,137.798 329.675,138.51 329.943,136.375 330.224,139.934 330.473,140.646 330.754,142.781 331.019,143.493 331.284,143.493 331.549,147.052 331.798,145.629 332.079,147.052 332.344,153.459 332.609,152.747 332.874,154.171 333.186,155.594 333.435,159.153 333.716,159.865 333.981,162.712 334.246,159.865 334.527,162.001 334.792,162.712 335.057,162.712 335.322,166.272 335.587,165.56 335.852,164.848 336.117,164.848 336.382,168.407 336.631,168.407 336.912,168.407 337.146,169.119 337.411,167.695 337.68,168.407 337.945,172.678 338.21,174.102 338.475,174.102 338.74,174.102 338.99,176.949 339.255,178.373 339.551,179.085 339.785,182.644 340.081,181.932 340.346,182.644 340.611,183.356 340.876,185.491 341.141,184.067 341.406,185.491 341.671,185.491 341.952,184.779 342.217,186.915 342.498,187.626 342.763,188.338 343.028,186.203 343.293,189.05 343.558,187.626 343.839,190.474 344.088,189.762 344.369,189.762 344.634,191.897 344.888,190.474 345.153,191.186 345.418,190.474 345.675,190.474 345.956,188.338 346.205,189.762 346.47,191.897 346.735,191.897 346.985,191.897 347.265,194.745 347.515,196.168 347.795,194.745 348.06,196.88 348.325,196.88 348.59,199.016 348.847,196.88 349.127,195.457 349.377,199.016 349.657,196.168 349.911,196.168 350.192,198.304 350.442,199.728 350.738,197.592 351.003,199.016 351.299,200.439 351.564,201.151 351.829,199.728 352.094,201.151 352.39,204.71 352.639,203.999 352.92,205.422 353.185,206.846 353.44,205.422 353.705,207.558 353.985,208.981 354.25,208.27 354.516,208.27 354.781,208.981 355.03,208.981 355.311,212.541 355.56,213.252 355.841,211.117 356.106,211.829 356.371,210.405 356.62,211.117 356.901,212.541 357.15,215.388 357.447,212.541 357.712,213.252 358.008,212.541 358.273,214.676 358.538,215.388 358.803,214.676 359.083,212.541 359.333,214.676 359.614,215.388 359.863,216.812 360.144,217.523 360.41,216.1 360.675,218.235 360.94,218.947 361.236,216.1 361.472,216.1 361.752,218.947 362.002,218.235 362.298,217.523 362.547,218.235 362.828,218.947 363.093,217.523 363.358,219.659 363.608,218.947 363.888,218.947 364.138,221.082 364.403,220.371 364.668,218.947 364.933,223.93 365.182,221.794 365.478,218.947 365.728,218.235 366.008,218.947 366.273,222.506 366.585,218.947 366.835,219.659 367.1,219.659 367.365,221.082 367.614,220.371 367.895,222.506 368.16,218.947 368.425,220.371 368.69,221.794 368.955,218.947 369.207,224.642 369.466,223.93 369.746,221.082 370.011,221.794 370.276,220.371 370.541,221.794 370.806,221.082 371.087,218.947 371.352,223.218 371.633,223.93 371.882,223.218 372.163,225.353 372.417,224.642 372.697,226.777 372.978,224.642 373.228,226.065 373.508,228.913 373.804,226.777 374.054,229.624 374.35,227.489 374.631,228.913 374.896,226.065 375.161,226.065 375.426,226.065 375.706,226.065 375.956,224.642 376.252,228.201 376.517,228.201 376.782,226.777 377.032,226.777 377.309,227.489 377.575,229.624 377.84,228.913 378.136,227.489 378.401,227.489 378.666,227.489 378.947,224.642 379.196,227.489 379.477,224.642 379.726,226.065 380.007,223.218 380.272,226.065 380.537,225.353 380.802,226.777 381.067,226.777 381.332,223.93 381.597,223.93 381.893,222.506 382.143,222.506 382.408,220.371 382.69,223.218 382.971,223.218 383.236,222.506 383.501,225.353 383.766,223.93 384.046,223.218 384.296,225.353 384.576,226.777 384.826,223.93 385.104,223.218 385.367,224.642 385.664,228.201 385.929,226.777 386.194,226.777 386.459,225.353 386.724,228.913 386.989,227.489 387.254,227.489 387.55,226.777 387.799,225.353 388.08,227.489 388.345,225.353 388.61,224.642 388.891,223.93 389.156,225.353 389.421,226.065 389.701,226.777 389.951,226.777 390.263,226.777 390.512,223.93 390.793,225.353 391.042,226.065 391.323,226.777 391.572,226.065 391.853,228.201 392.102,226.065 392.383,228.913 392.648,229.624 392.916,231.048 393.186,230.336 393.435,229.624 393.731,231.048 393.981,227.489 394.261,227.489 394.526,227.489 394.807,231.048 395.056,228.201 395.337,225.353 395.586,228.913 395.851,226.065 396.116,227.489 396.382,226.065 396.647,229.624 396.896,228.201 397.177,227.489 397.442,229.624 397.722,227.489 397.972,228.201 398.268,227.489 398.533,228.201 398.798,226.065 399.063,224.642 399.344,226.065 399.593,223.218 399.874,226.065 400.123,225.353 400.404,226.777 400.653,224.642 400.931,224.642 401.181,226.065 401.461,228.913 401.711,226.777 401.991,224.642 402.256,226.065 402.521,224.642 402.786,225.353 403.052,226.065 403.317,226.777 403.597,224.642 403.878,224.642 404.143,223.93 404.408,223.93 404.689,224.642 404.938,226.065 405.234,224.642 405.499,223.218 405.795,224.642 406.06,223.93 406.326,221.794 406.606,225.353 406.871,224.642 407.136,224.642 407.401,223.93 407.666,224.642 407.947,224.642 408.228,224.642 408.477,223.93 408.761,224.642 409.012,226.065 409.339,224.642 409.542,221.082 409.869,221.794 410.134,223.93 410.415,223.218 410.664,226.777 410.945,223.93 411.194,226.065 411.459,229.624 411.724,229.624 411.974,231.048 412.254,228.201 412.504,228.201 412.784,226.777 413.034,226.777 413.33,224.642 413.595,228.913 413.891,227.489 414.156,227.489 414.421,227.489 414.702,230.336 414.951,226.777 415.248,226.065 415.497,227.489 415.778,229.624 416.043,227.489 416.308,226.065 416.573,226.065 416.856,226.065 417.106,224.642 417.386,226.065 417.651,223.93 417.932,222.506 418.197,224.642 418.462,223.93 418.743,223.93 419.008,222.506 419.273,226.065 419.538,226.777 419.803,224.642 420.083,226.777 420.349,226.065 420.629,227.489 420.879,226.065 421.175,226.065 421.424,226.065 421.72,226.777 421.985,228.201 422.266,227.489 422.516,228.201 422.796,224.642 423.046,226.065 423.326,227.489 423.591,223.93 423.856,223.93 424.121,223.93 424.386,224.642 424.651,222.506 424.916,220.371 425.182,220.371 425.447,221.794 425.712,221.794 425.977,222.506 426.242,221.082 426.507,221.082 426.772,222.506 427.037,220.371 427.302,221.794 427.567,220.371 427.832,221.794 428.097,222.506 428.357,219.659 428.669,223.93 428.919,221.082 429.199,221.082 429.464,222.506 429.776,226.065 430.026,224.642 430.306,224.642 430.571,224.642 430.852,228.201 431.117,226.065 431.382,227.489 431.647,227.489 431.912,226.777 432.177,227.489 432.46,226.777 432.724,227.489 432.989,225.353 433.254,224.642 433.55,224.642 433.815,223.93 434.08,226.777 434.345,225.353 434.61,223.93 434.876,220.371 435.14,220.371 435.405,221.082 435.671,218.947 435.936,219.659 436.201,218.947 436.466,218.235 436.731,219.659 436.996,220.371 437.261,218.947 437.526,219.659 437.791,222.506 438.056,221.082 438.352,221.794 438.617,222.506 438.882,222.506 439.163,226.777 439.428,226.065 439.693,226.065 440.554,226.065 440.741,226.777 441.084,226.065 441.349,226.777 441.629,227.489 441.894,226.777 442.159,226.065 442.44,223.93 442.705,220.371 442.986,224.642 443.251,224.642 443.516,223.93 443.781,223.218 444.046,224.642 444.311,226.065 444.576,226.065 444.841,228.913 445.122,230.336 445.387,231.048 445.667,228.913 445.964,226.065 446.229,226.777 446.509,226.065 446.774,226.065 447.055,226.777 447.32,225.353 447.6,225.353 447.866,228.201 448.131,227.489 448.399,225.353 448.664,229.624 448.945,228.913 449.21,224.642 449.475,225.353 449.74,226.065 450.036,226.777 450.301,226.065 450.582,227.489 450.847,225.353 451.128,224.642 451.393,225.353 451.673,221.794 451.938,221.794 452.235,224.642 452.515,223.93 452.78,223.93 453.045,221.794 453.388,222.506 453.591,223.93 453.934,223.93 454.199,225.353 454.448,224.642 454.729,227.489 455.01,226.065 455.275,226.777 455.54,226.065 455.82,226.065 "
         id="polyline49" />
    </g>
    <g
       fill="none"
       stroke="#800080"
       stroke-opacity="1"
       stroke-width="1"
       stroke-linecap="butt"
       stroke-linejoin="round"
       transform="matrix(0.5,0,0,0.5,-4.6,-8.25)"
       font-family="Helvetica"
       font-size="19"
       font-weight="400"
       font-style="normal"
       id="g51">
      <polyline
         fill="none"
         vector-effect="none"
         points="66,166.385 66.2962,166.299 66.5613,166.28 66.8263,166.274 67.0758,166.268 67.372,166.248 67.6214,166.248 67.8241,166.257 68.1671,166.248 68.4009,166.24 68.6815,166.223 68.9325,166.211 69.2132,166.194 69.4626,166.174 69.7276,166.146 69.9771,166.117 70.2421,166.077 70.4292,166.049 70.6942,166.003 70.9593,165.969 71.2447,165.932 71.4941,165.904 71.7747,165.864 72.0397,165.844 72.2907,165.813 72.5714,165.796 72.8208,165.776 73.1638,165.773 73.3977,165.764 73.6783,165.776 73.9277,165.813 74.2084,165.835 74.4578,165.853 74.7384,165.875 75.0035,165.895 75.2685,165.924 75.5335,165.944 75.783,165.938 76.048,165.944 76.2974,165.944 76.5781,165.944 76.8377,165.938 77.1028,165.935 77.3366,165.921 77.6017,165.887 77.8667,165.858 78.1161,165.827 78.3968,165.801 78.6462,165.781 78.9113,165.756 79.1763,165.724 79.4413,165.685 79.6908,165.645 79.9558,165.608 80.2053,165.562 80.4703,165.539 80.7197,165.508 80.9848,165.494 81.2498,165.482 81.4993,165.485 81.7799,165.462 82.0449,165.454 82.3723,165.434 82.6529,165.411 82.9024,165.405 83.183,165.397 83.4325,165.411 83.7287,165.431 83.9781,165.462 84.2588,165.485 84.5082,165.497 84.7929,165.514 85.0267,165.522 85.3073,165.519 85.5412,165.519 85.8062,165.511 86.0557,165.502 86.3207,165.494 86.5857,165.485 86.8508,165.477 87.1003,165.474 87.3808,165.46 87.6303,165.468 87.8953,165.462 88.1448,165.468 88.4254,165.477 88.6593,165.491 88.9399,165.497 89.1893,165.514 89.4544,165.519 89.7038,165.517 89.9844,165.508 90.2495,165.522 90.5145,165.539 90.7951,165.551 91.8005,165.556 91.972,165.551 92.3461,165.519 92.5888,165.482 92.8382,166.687 93.1033,166.664 93.3527,166.621 93.6178,166.593 93.8828,166.559 94.1479,166.527 94.4129,166.473 94.6623,166.428 94.9273,166.385 95.1924,166.322 95.4574,166.271 95.7225,166.22 95.9719,166.183 96.2525,166.137 96.502,166.092 96.7514,166.057 97.0164,166.029 97.2659,166.006 97.5309,165.998 97.796,166.003 98.061,166.003 98.3416,166.02 98.6067,166.006 98.8873,165.995 99.1367,165.986 99.4018,165.966 99.6512,165.941 99.9163,165.912 100.166,165.895 100.435,165.872 100.684,165.864 100.949,165.85 101.199,165.813 101.464,165.796 101.713,165.776 102.009,165.759 102.259,165.741 102.524,165.713 102.773,165.687 103.069,165.665 103.319,165.656 103.584,165.642 103.849,165.633 104.114,165.636 104.379,165.619 104.675,165.588 104.909,165.545 105.205,165.505 105.455,165.471 105.735,165.46 105.985,165.434 106.328,165.425 106.577,165.408 106.873,165.397 107.123,165.377 107.403,165.357 107.637,165.329 107.934,165.309 108.183,165.3 108.451,165.289 108.716,165.269 108.981,165.263 109.231,165.243 109.496,165.235 109.745,165.226 110.01,165.22 110.26,165.218 110.54,165.195 110.79,165.155 111.071,165.126 111.304,165.107 111.585,165.067 111.834,165.015 112.099,164.953 112.365,164.904 112.63,164.876 112.879,164.847 113.175,164.827 113.425,164.802 113.721,164.785 113.97,164.762 114.235,164.731 114.485,164.708 114.75,164.702 114.999,164.702 115.264,164.702 115.514,164.691 115.794,164.682 116.044,164.668 116.313,164.651 116.578,164.631 116.843,164.634 117.092,164.625 117.388,164.614 117.638,164.62 117.934,164.611 118.183,164.605 118.464,164.326 118.713,164.326 118.963,164.326 119.244,164.301 119.509,164.287 119.774,164.255 120.039,164.232 120.304,164.201 120.553,164.17 120.818,164.138 121.099,164.127 121.348,164.11 121.629,164.087 121.909,164.07 122.159,164.053 122.44,164.036 122.705,164.03 122.954,164.019 123.235,164.01 123.484,164.022 123.765,164.01 124.014,164.013 124.282,164.013 124.531,164.019 124.796,164.013 125.061,164.019 125.326,164.027 125.576,164.047 125.825,164.05 126.106,164.053 126.355,164.056 126.62,164.07 126.885,164.104 127.15,164.119 127.415,164.136 127.649,164.144 127.945,164.127 128.21,164.124 128.475,164.104 128.74,164.087 129.005,164.067 129.27,164.045 129.535,164.013 129.801,163.996 130.066,163.976 130.331,163.962 130.596,163.928 130.845,163.888 131.094,163.842 131.375,163.785 131.625,163.729 131.89,163.649 132.146,163.541 132.457,163.412 132.722,163.247 132.987,163.151 133.252,162.934 133.518,162.686 133.783,162.39 134.048,162.063 134.313,161.696 134.562,161.303 134.858,160.904 135.123,160.486 135.388,160.053 135.653,159.594 135.934,159.142 136.183,158.683 136.48,158.211 136.76,157.715 137.025,157.231 137.29,156.727 137.602,156.223 137.852,155.714 138.132,155.196 138.382,154.655 138.678,154.122 138.927,153.587 139.208,153.074 139.473,152.562 139.754,152.052 140.003,151.54 140.268,151.013 140.533,150.495 140.798,149.965 141.048,149.458 141.328,148.952 141.578,148.453 141.843,147.958 142.108,147.46 142.373,146.959 142.638,146.452 142.872,145.956 143.168,145.444 143.433,144.929 143.698,144.413 143.963,143.878 144.212,143.368 144.493,142.859 144.743,142.358 145.023,141.856 145.288,141.341 145.538,140.82 145.818,140.302 146.068,139.778 146.348,139.268 146.613,138.762 146.863,138.26 147.128,137.751 147.393,137.227 147.642,136.703 147.921,136.171 148.171,135.644 148.451,135.112 148.716,134.582 148.981,134.055 149.262,133.54 149.511,133.01 149.823,132.447 150.088,131.88 150.369,131.308 150.618,130.71 150.899,130.095 151.148,129.48 151.429,128.876 151.694,128.261 151.959,127.66 152.255,127.074 152.52,126.482 152.785,125.887 153.05,125.292 153.347,124.705 153.596,124.124 153.877,123.529 154.142,122.963 154.422,122.39 154.687,121.807 154.953,121.237 155.233,120.668 155.483,120.104 155.763,119.54 156.028,118.985 156.293,118.419 156.558,117.866 156.823,117.32 157.088,116.77 157.353,116.22 157.618,115.665 157.883,115.124 158.149,114.578 158.414,114.045 158.663,113.53 158.944,113.017 159.193,111.266 159.474,110.74 159.723,110.219 160.019,109.692 160.284,109.177 160.549,108.658 160.83,108.149 161.079,107.631 161.36,107.11 161.61,106.6 161.906,106.09 162.155,105.581 162.436,105.071 162.701,104.553 162.966,104.057 163.247,103.548 163.512,103.027 163.792,102.52 164.057,101.976 164.322,101.449 164.603,100.923 164.868,100.396 165.133,99.8749 165.398,99.3481 165.679,98.8242 165.944,98.3004 166.209,97.785 166.474,97.2754 166.739,96.7629 167.004,96.2675 167.269,95.755 167.534,95.2453 167.799,94.7414 168.08,94.2261 168.329,93.7164 168.625,93.1926 168.906,92.663 169.171,92.1334 169.436,91.6038 169.701,91.0515 169.966,90.502 170.231,89.9354 170.496,89.3859 170.761,88.8392 171.026,88.2925 171.291,87.743 171.575,87.1964 171.82,86.6269 172.116,86.066 172.365,85.508 172.646,84.9414 172.927,84.3606 173.176,83.7883 173.457,83.216 173.722,82.6665 173.987,82.1199 174.236,81.5817 174.501,81.055 174.766,80.5255 175.031,79.9902 175.296,79.4834 175.561,78.9709 175.826,78.4499 176.107,77.9203 176.372,77.3935 176.653,76.8725 176.918,76.3401 177.167,75.8248 177.448,75.3037 177.729,74.7856 177.978,74.2645 178.243,73.7549 178.508,73.2623 178.773,72.7726 179.038,72.2686 179.303,71.7732 179.567,71.2892 179.863,70.7967 180.128,70.2927 180.393,69.7774 180.659,69.2449 180.939,68.7353 181.204,68.1915 181.469,67.6163 181.734,67.027 181.999,66.4149 182.264,65.8112 182.529,65.2105 182.81,64.6183 183.075,64.0403 183.34,63.4908 183.605,62.9242 183.87,62.3861 184.151,61.8594 184.416,61.3412 184.696,60.8372 184.961,60.3276 185.227,60.0799 185.492,59.5674 185.772,59.0407 186.037,58.5339 186.302,58.0214 186.567,57.4975 186.848,56.985 187.097,56.4668 187.375,55.9543 187.635,55.4589 187.9,54.9521 188.149,54.4453 188.43,53.9556 188.679,53.4716 188.96,52.9847 189.209,52.5121 189.459,52.0423 189.724,51.5754 189.973,51.1056 190.238,50.613 190.488,50.1432 190.753,49.6706 191.002,49.1752 191.267,48.6769 191.532,48.1901 191.797,47.6747 192.062,47.1537 192.312,46.6241 192.577,46.0803 192.857,45.5223 193.122,44.9414 193.372,44.3492 193.637,43.7456 193.886,43.1392 194.151,42.5299 194.416,41.9092 194.666,41.3141 194.946,40.7248 195.212,40.144 195.478,39.5546 195.728,38.9766 195.993,38.3958 196.258,37.8263 196.507,37.2711 196.757,36.7188 197.006,36.1693 197.287,35.6141 197.536,35.0902 197.801,34.5749 198.051,34.0567 198.316,33.53 198.565,33.0203 198.83,32.5306 199.095,32.0551 199.36,31.6166 199.61,31.201 199.89,30.8223 200.155,30.4692 200.451,30.156 200.716,29.8742 200.982,29.6265 201.231,29.4015 201.527,29.2108 201.777,29.0514 202.057,28.9061 202.307,28.7866 202.572,28.6926 202.821,28.6214 203.117,28.5844 203.356,28.5759 203.636,28.5502 203.886,28.5303 204.166,28.5303 204.416,28.5246 204.681,28.5332 204.946,28.5474 205.195,28.5645 205.46,28.5787 205.725,28.5645 205.975,28.5388 206.24,28.5075 206.505,28.4762 206.754,28.4534 207.019,28.405 207.285,28.3623 207.534,28.3168 207.815,28.2684 208.08,28.1972 208.345,28.1175 208.594,28.0548 208.89,27.9922 209.124,27.9239 209.405,27.8442 209.639,27.7844 209.935,27.7359 210.184,27.6932 210.449,27.6619 210.714,27.6164 210.964,27.5907 211.213,27.5452 211.494,27.5224 211.743,27.5167 212.008,27.5082 212.273,27.4968 212.523,27.4826 212.788,27.4854 213.068,27.4655 213.318,27.4342 213.583,27.4171 213.832,27.3801 214.097,27.3402 214.347,27.306 214.612,27.2718 214.877,27.2434 215.142,27.232 215.391,27.2064 215.672,27.1978 215.937,27.2092 216.233,27.2405 216.482,27.2861 216.748,27.3373 217.013,27.4114 217.309,27.4996 217.558,27.5794 217.839,27.6648 218.073,27.7644 218.338,27.8527 218.587,27.9353 218.868,28.0377 219.123,28.1345 219.404,28.2456 219.653,28.3424 219.934,28.4392 220.183,28.536 220.464,28.6186 220.713,28.7011 220.978,28.7752 221.243,28.8378 221.508,28.8891 221.758,28.9375 222.007,28.9716 222.288,29.0115 222.522,29.0399 222.818,29.0713 223.083,29.094 223.332,29.1111 223.629,29.1396 223.878,29.1567 224.159,29.1766 224.408,29.2079 224.673,29.2307 224.923,29.2563 225.203,29.2734 225.437,29.2934 225.733,29.3304 225.983,29.3788 226.279,29.4272 226.529,29.467 226.794,29.5069 227.049,29.5496 227.329,29.6037 227.579,29.672 227.844,29.7176 228.093,29.7745 228.389,29.8372 228.623,29.8884 228.904,29.9454 229.153,29.9966 229.434,30.0393 229.683,30.0906 229.948,30.1304 230.198,30.2101 230.463,30.2642 230.712,30.3155 230.993,30.3639 231.258,30.4123 231.523,30.4408 231.772,30.4521 232.069,30.4607 232.318,30.4721 232.599,30.4749 232.848,30.4778 233.129,30.4664 233.394,30.4692 233.643,30.4692 233.908,30.4721 234.158,30.4835 234.423,30.4977 234.672,30.529 234.948,30.5717 235.244,30.6031 235.494,30.6344 235.759,30.6771 236.008,30.7084 236.289,30.7625 236.523,30.8052 236.788,30.8365 237.037,30.8735 237.302,30.9333 237.552,30.9931 237.817,31.0643 238.066,31.1355 238.331,31.1839 238.581,31.2408 238.846,31.3092 239.111,31.3718 239.376,31.4287 239.641,31.4629 239.89,31.4942 240.155,31.5198 240.451,31.5255 240.701,31.5369 240.981,31.5426 241.231,31.5455 241.496,31.554 241.761,31.5768 242.01,31.6109 242.275,31.6565 242.54,31.7163 242.806,31.7761 243.056,31.8387 243.321,31.9042 243.57,31.9697 243.851,32.0238 244.1,32.0722 244.35,32.0836 244.615,32.0978 244.88,32.1206 245.145,32.112 245.394,32.112 245.659,32.1263 245.924,32.1491 246.174,32.1633 246.439,32.1975 246.688,32.2231 246.954,32.2658 247.234,32.3341 247.484,32.4167 247.764,32.5249 248.014,32.6303 248.294,32.7299 248.528,32.821 248.793,32.9207 249.058,32.9947 249.308,33.0772 249.573,33.1371 249.822,33.1968 250.087,33.2509 250.337,33.2766 250.604,33.2993 250.874,33.3193 251.123,33.342 251.388,33.3762 251.653,33.4161 251.903,33.4389 252.152,33.4787 252.417,33.5043 252.698,33.5214 252.947,33.5214 253.212,33.5129 253.462,33.5043 253.743,33.493 253.992,33.4787 254.257,33.4616 254.522,33.4616 254.787,33.4616 255.037,33.4559 255.317,33.4616 255.567,33.4787 255.816,33.5357 256.097,33.5897 256.362,33.641 256.627,33.7122 256.892,33.7919 257.157,33.8688 257.422,33.9428 257.671,34.0282 257.936,34.0994 258.201,34.1848 258.468,34.2759 258.722,34.3812 258.987,34.4866 259.236,34.6005 259.501,34.7229 259.766,34.8396 260.016,34.9649 260.281,35.0703 260.546,35.1756 260.795,35.2639 261.06,35.3721 261.31,35.4689 261.575,35.5714 261.84,35.6767 262.089,35.7565 262.354,35.8419 262.604,35.9187 262.869,36.0184 263.134,36.0924 263.414,36.1608 263.664,36.2405 263.945,36.3287 264.21,36.4255 264.459,36.5394 264.724,36.659 264.989,36.7615 265.239,36.8754 265.519,36.9893 265.769,37.1089 266.034,37.2427 266.283,37.3736 266.578,37.4989 266.828,37.61 267.093,37.7096 267.343,37.795 267.607,37.8548 267.888,37.9032 268.137,37.9374 268.402,37.963 268.667,37.9601 268.948,37.9488 269.213,37.9345 269.462,37.9061 269.712,37.8577 269.992,37.8178 270.242,37.7694 270.507,37.7409 270.772,37.7125 271.021,37.6868 271.333,37.6811 271.551,37.6954 271.894,37.7438 272.128,37.8235 272.409,37.9146 272.658,38.0285 272.923,38.1509 273.173,38.2819 273.438,38.4072 273.703,38.5495 273.968,38.7232 274.217,38.857 274.493,38.9794 274.758,39.0933 275.008,39.1958 275.273,39.2869 275.538,39.3695 275.803,39.4492 276.068,39.5261 276.333,39.5973 276.582,39.6542 276.879,39.6827 277.128,39.7311 277.409,39.7909 277.658,40.0557 277.923,40.1155 278.173,40.1867 278.438,40.255 278.687,40.3489 278.968,40.4486 279.217,40.5539 279.513,40.6792 279.81,40.8159 280.059,40.9497 280.34,41.0778 280.589,41.1945 280.87,41.3084 281.12,41.4166 281.416,41.5021 281.665,41.5675 281.93,41.6586 282.216,41.7469 282.484,41.8152 282.733,41.8722 283.014,41.9064 283.263,41.9633 283.528,42.0145 283.793,42.0345 284.058,42.043 284.323,42.0316 284.573,41.9946 284.838,41.9661 285.087,41.9291 285.368,41.9064 285.617,41.8722 285.882,41.8352 286.147,41.8067 286.428,41.7782 286.662,41.7554 286.974,41.764 287.207,41.7754 287.535,41.7725 287.784,41.7839 288.065,41.7981 288.314,41.8295 288.595,41.8551 288.829,41.8836 289.109,41.9234 289.359,41.9462 289.624,41.9775 289.873,42.0088 290.141,42.0487 290.389,42.0857 290.67,42.1284 290.904,42.1711 291.2,42.2082 291.465,42.2451 291.73,42.2765 291.996,42.322 292.261,42.3591 292.542,42.4018 292.791,42.4331 293.072,42.453 293.321,42.4587 293.571,42.4587 293.836,42.4559 294.085,42.4302 294.366,42.3904 294.615,42.3477 294.927,42.2822 295.161,42.2252 295.457,42.1768 295.707,42.1199 295.987,42.0487 296.237,41.9861 296.517,41.9348 296.767,41.8921 297.047,41.8522 297.297,41.838 297.562,41.8437 297.811,41.8693 298.085,41.895 298.335,41.9377 298.6,41.9747 298.865,42.0088 299.115,42.0572 299.38,42.0943 299.645,42.1256 299.894,42.1455 300.159,42.1569 300.424,42.1711 300.674,42.1825 300.954,42.2082 301.204,42.2338 301.469,42.2708 301.734,42.305 301.983,42.3448 302.248,42.3904 302.498,42.4445 302.794,42.4929 303.043,42.5441 303.34,42.584 303.605,42.6238 303.854,42.6466 304.119,42.6751 304.369,42.7036 304.649,42.7178 304.899,42.7263 305.179,42.7406 305.429,42.752 305.694,42.7747 305.965,42.7975 306.21,42.826 306.491,42.8488 306.756,42.8744 307.005,42.8915 307.301,42.9086 307.551,42.9342 307.831,42.9541 308.081,42.9655 308.346,42.957 308.611,42.9769 308.892,43.0082 309.125,43.031 309.422,43.0424 309.687,43.0651 309.952,43.0737 310.217,43.0908 310.497,43.0908 310.762,43.0709 311.043,43.0623 311.324,43.0509 311.573,43.0139 311.854,42.9854 312.088,42.9712 312.353,42.9598 312.602,42.9626 312.883,42.9712 313.132,42.9826 313.397,42.9797 313.662,42.9769 313.912,42.974 314.177,42.9826 314.442,42.9826 314.707,42.9911 314.972,42.994 315.237,42.9911 315.502,43.0025 315.768,43.0054 316.033,42.9797 316.313,42.9626 316.578,42.957 316.843,42.9712 317.124,42.9655 317.373,42.9598 317.654,42.9513 317.903,42.9456 318.184,42.9399 318.433,42.937 318.745,42.9655 318.979,42.9997 319.291,43.031 319.54,43.0594 319.821,43.0908 320.086,43.1192 320.335,43.1221 320.585,43.105 320.866,43.068 321.115,43.0281 321.396,42.9712 321.645,42.9057 321.922,42.8174 322.187,42.7263 322.437,42.6438 322.717,42.584 322.982,42.5299 323.247,42.5185 323.512,42.564 323.777,42.658 324.027,42.8032 324.307,42.9997 324.557,43.236 324.853,43.5378 325.111,43.9108 325.392,44.3065 325.641,44.6169 325.922,45.0866 326.171,45.5764 326.483,46.1059 326.702,46.627 327.013,47.1708 327.294,47.7174 327.543,48.2555 327.824,48.8108 328.089,49.3631 328.354,49.9496 328.619,50.5276 328.884,51.1084 329.149,51.6949 329.414,52.29 329.675,52.8822 329.943,53.4687 330.224,54.0752 330.473,54.6845 330.754,55.2966 331.019,55.923 331.284,56.5494 331.549,57.1843 331.798,57.805 332.079,58.4257 332.344,59.052 332.609,59.6727 332.874,60.282 333.186,60.8913 333.435,61.5177 333.716,62.1498 333.981,62.7904 334.246,63.4339 334.527,64.0773 334.792,64.7122 335.057,65.3642 335.322,66.0219 335.587,66.6939 335.852,67.3857 336.117,68.089 336.382,68.7951 336.631,69.5069 336.912,70.2044 337.146,70.8992 337.411,71.591 337.68,72.2686 337.945,72.9349 338.21,73.584 338.475,74.2047 338.74,74.7941 338.99,75.3891 339.255,75.9586 339.551,76.5223 339.785,77.0975 340.081,77.6526 340.346,78.1851 340.611,78.7374 340.876,79.3097 341.141,79.9019 341.406,80.5084 341.671,81.1205 341.952,81.7327 342.217,82.3476 342.498,82.9626 342.763,83.5805 343.028,84.1898 343.293,84.8446 343.558,85.4539 343.839,86.0547 344.088,86.4476 344.369,87.0626 344.634,87.6747 344.888,88.2783 345.153,88.8848 345.418,89.4855 345.675,90.0777 345.956,90.6586 346.205,91.2394 346.47,91.8173 346.735,92.3925 346.985,92.9705 347.265,93.5541 347.515,94.1435 347.795,94.7272 348.06,95.3165 348.325,95.8917 348.59,96.4668 348.847,97.0448 349.127,97.637 349.377,98.2577 349.657,98.8698 349.911,99.4734 350.192,100.088 350.442,100.74 350.738,101.41 351.003,102.093 351.299,102.77 351.564,103.442 351.829,104.097 352.094,104.766 352.39,105.464 352.639,106.136 352.92,106.808 353.185,107.483 353.44,108.115 353.705,108.744 353.985,109.382 354.25,110.017 354.516,110.646 354.781,111.255 355.03,111.864 355.311,112.479 355.56,113.086 355.841,113.684 356.106,114.282 356.371,114.86 356.62,115.438 356.901,116.016 357.15,116.406 357.447,116.998 357.712,117.584 358.008,118.148 358.273,118.723 358.538,119.284 358.803,119.845 359.083,120.397 359.333,120.964 359.614,121.53 359.863,122.106 360.144,122.701 360.41,123.264 360.675,123.848 360.94,124.187 361.236,124.791 361.472,125.411 361.752,126.038 362.002,126.653 362.298,127.279 362.547,127.914 362.828,128.537 363.093,129.167 363.358,129.793 363.608,130.411 363.888,131.009 364.138,131.618 364.403,132.199 364.668,132.765 364.933,133.338 365.182,133.893 365.478,134.451 365.728,134.998 366.008,135.556 366.273,136.125 366.585,136.706 366.835,137.275 367.1,137.842 367.365,138.411 367.614,138.969 367.895,139.545 368.16,140.111 368.425,140.681 368.69,141.233 368.955,141.78 369.207,142.323 369.466,142.864 369.746,143.411 370.011,143.966 370.276,144.524 370.541,145.108 370.806,145.683 371.087,146.258 371.352,146.85 371.633,147.44 371.882,148.018 372.163,148.61 372.417,149.179 372.697,149.732 372.978,150.284 373.228,150.834 373.508,151.397 373.804,151.947 374.054,152.499 374.35,153.023 374.631,153.556 374.896,154.074 375.161,154.583 375.426,155.076 375.706,155.574 375.956,156.09 376.252,156.608 376.517,157.126 376.782,157.641 377.032,158.165 377.309,158.717 377.575,160.588 377.84,161.143 378.136,161.701 378.401,162.271 378.666,162.832 378.947,163.381 379.196,163.936 379.477,164.463 379.726,165.013 380.007,165.551 380.272,166.114 380.537,166.667 380.802,167.211 381.067,167.757 381.332,168.312 381.597,168.853 381.893,169.397 382.143,169.941 382.408,170.471 382.69,171.014 382.971,171.572 383.236,172.125 383.501,172.691 383.766,173.258 384.046,173.83 384.296,174.403 384.576,174.975 384.826,175.539 385.104,176.108 385.367,176.686 385.664,177.238 385.929,177.785 386.194,178.329 386.459,178.873 386.724,179.431 386.989,179.994 387.254,180.564 387.55,181.136 387.799,181.706 388.08,182.275 388.345,182.844 388.61,183.411 388.891,183.978 389.156,184.544 389.421,185.116 389.701,185.66 389.951,186.176 390.263,186.645 390.512,187.073 390.793,187.471 391.042,187.818 391.323,188.109 391.572,188.362 391.853,188.573 392.102,188.707 392.383,188.804 392.648,188.98 392.916,189.006 393.186,189.014 393.435,188.997 393.731,188.989 393.981,188.954 394.261,188.909 394.526,188.866 394.807,188.818 395.056,188.769 395.337,188.695 395.586,188.63 395.851,188.556 396.116,188.453 396.382,188.348 396.647,188.248 396.896,188.143 397.177,188.029 397.442,187.918 397.722,187.79 397.972,187.383 398.268,187.277 398.533,187.166 398.798,187.067 399.063,186.97 399.344,186.848 399.593,186.742 399.874,186.657 400.123,186.577 400.404,186.483 400.653,186.386 400.931,186.301 401.181,186.204 401.461,186.122 401.711,186.045 401.991,185.948 402.256,185.845 402.521,185.74 402.786,185.643 403.052,185.541 403.317,185.427 403.597,185.31 403.878,185.196 404.143,185.085 404.408,184.971 404.689,184.86 404.938,184.752 405.234,184.624 405.499,184.504 405.795,184.413 406.06,184.314 406.326,184.205 406.606,184.106 406.871,183.998 407.136,183.906 407.401,183.812 407.666,183.733 407.947,183.639 408.228,183.542 408.477,183.457 408.761,183.377 409.012,183.286 409.339,183.206 409.542,183.112 409.869,183.024 410.134,182.938 410.415,182.842 410.664,182.762 410.945,182.671 411.194,182.577 411.459,182.457 411.724,182.335 411.974,183.297 412.254,183.143 412.504,183.007 412.784,182.873 413.034,182.756 413.33,182.617 413.595,182.491 413.891,182.349 414.156,182.212 414.421,182.073 414.702,181.942 414.951,181.802 415.248,181.666 415.497,181.526 415.778,181.384 416.043,181.256 416.308,181.125 416.573,180.982 416.856,180.86 417.106,180.74 417.386,180.632 417.651,180.496 417.932,180.373 418.197,180.259 418.462,180.148 418.743,180.04 419.008,179.92 419.273,179.809 419.538,179.69 419.803,179.567 420.083,179.448 420.349,179.322 420.629,179.217 420.879,179.109 421.175,178.995 421.424,178.884 421.72,178.782 421.985,178.685 422.266,178.577 422.516,178.468 422.796,178.346 423.046,178.241 423.326,178.152 423.591,178.07 423.856,177.981 424.121,177.899 424.386,178.001 424.651,177.91 424.916,177.828 425.182,177.757 425.447,177.683 425.712,177.611 425.977,177.546 426.242,177.486 426.507,177.421 426.772,177.344 427.037,177.267 427.302,177.207 427.567,177.164 427.832,177.124 428.097,177.341 428.357,177.304 428.669,177.264 428.919,177.21 429.199,177.159 429.464,177.099 429.776,177.045 430.026,176.971 430.306,176.888 430.571,176.786 430.852,176.697 431.117,176.618 431.382,176.524 431.647,176.438 431.912,176.373 432.177,176.29 432.46,176.219 432.724,176.151 432.989,176.074 433.254,175.991 433.55,175.909 433.815,175.826 434.08,175.766 434.345,175.698 434.61,175.624 434.876,175.553 435.14,175.473 435.405,175.416 435.671,175.359 435.936,175.322 436.201,175.285 436.466,175.254 436.731,175.237 436.996,175.211 437.261,175.188 437.526,175.166 437.791,175.131 438.056,175.086 438.352,175.029 438.617,174.975 438.882,174.918 439.163,174.867 439.428,174.793 439.693,174.73 440.554,174.679 440.741,174.619 441.084,174.556 441.349,174.508 441.629,174.468 441.894,174.428 442.159,174.414 442.44,174.385 442.705,174.366 442.986,174.36 443.251,174.346 443.516,174.331 443.781,174.294 444.046,174.243 444.311,174.192 444.576,174.155 444.841,174.115 445.122,174.061 445.387,172.7 445.667,172.649 445.964,172.592 446.229,172.549 446.509,172.492 446.774,172.449 447.055,172.398 447.32,172.353 447.6,172.284 447.866,172.224 448.131,172.15 448.399,172.088 448.664,172.034 448.945,171.963 449.21,171.886 449.475,171.809 449.74,171.738 450.036,171.666 450.301,171.604 450.582,171.53 450.847,171.459 451.128,171.402 451.393,171.328 451.673,171.262 451.938,171.214 452.235,171.165 452.515,171.123 452.78,171.097 453.045,171.066 453.388,171.046 453.591,171.026 453.934,171.003 454.199,170.975 454.448,170.952 454.729,171.718 455.01,171.669 455.275,171.629 455.54,171.592 455.82,171.561 "
         id="polyline50" />
    </g>
    <g
       fill="none"
       stroke="#ff0000"
       stroke-opacity="1"
       stroke-width="1"
       stroke-linecap="butt"
       stroke-linejoin="round"
       transform="matrix(0.5,0,0,0.5,-4.6,-8.25)"
       font-family="Helvetica"
       font-size="19"
       font-weight="400"
       font-style="normal"
       id="g52">
      <polyline
         fill="none"
         vector-effect="none"
         points="66,222.3 66.2962,222.3 66.5613,222.3 66.8263,222.3 67.0758,222.3 67.372,222.3 67.6214,222.3 67.8241,222.3 68.1671,222.3 68.4009,222.3 68.6815,222.3 68.9325,222.3 69.2132,222.3 69.4626,222.3 69.7276,222.3 69.9771,222.3 70.2421,222.3 70.4292,222.3 70.6942,222.3 70.9593,222.3 71.2447,222.3 71.4941,222.3 71.7747,222.3 72.0397,222.3 72.2907,222.3 72.5714,222.3 72.8208,222.3 73.1638,222.3 73.3977,222.3 73.6783,222.3 73.9277,222.3 74.2084,222.3 74.4578,222.3 74.7384,222.3 75.0035,222.3 75.2685,222.3 75.5335,222.3 75.783,222.3 76.048,222.3 76.2974,222.3 76.5781,222.3 76.8377,222.3 77.1028,222.3 77.3366,222.3 77.6017,222.3 77.8667,222.3 78.1161,222.3 78.3968,222.3 78.6462,222.3 78.9113,222.3 79.1763,222.3 79.4413,222.3 79.6908,222.3 79.9558,222.3 80.2053,222.3 80.4703,222.3 80.7197,222.3 80.9848,222.3 81.2498,222.3 81.4993,222.3 81.7799,222.3 82.0449,222.3 82.3723,222.3 82.6529,222.3 82.9024,222.3 83.183,222.3 83.4325,222.3 83.7287,222.3 83.9781,222.3 84.2588,222.3 84.5082,222.3 84.7929,222.3 85.0267,222.3 85.3073,222.3 85.5412,222.3 85.8062,222.3 86.0557,222.3 86.3207,222.3 86.5857,222.3 86.8508,222.3 87.1003,222.3 87.3808,222.3 87.6303,222.3 87.8953,222.3 88.1448,222.3 88.4254,222.3 88.6593,222.3 88.9399,222.3 89.1893,222.3 89.4544,222.3 89.7038,222.3 89.9844,222.3 90.2495,222.3 90.5145,222.3 90.7951,222.3 91.8005,222.3 91.972,222.3 92.3461,222.3 92.5888,222.3 92.8382,222.3 93.1033,222.3 93.3527,222.3 93.6178,222.3 93.8828,222.3 94.1479,222.3 94.4129,222.3 94.6623,222.3 94.9273,222.3 95.1924,222.3 95.4574,222.3 95.7225,222.3 95.9719,222.3 96.2525,222.3 96.502,222.3 96.7514,222.3 97.0164,222.3 97.2659,222.3 97.5309,222.3 97.796,222.3 98.061,222.3 98.3416,222.3 98.6067,222.3 98.8873,222.3 99.1367,222.3 99.4018,222.3 99.6512,222.3 99.9163,222.3 100.166,222.3 100.435,222.3 100.684,222.3 100.949,222.3 101.199,222.3 101.464,222.3 101.713,222.3 102.009,222.3 102.259,222.3 102.524,222.3 102.773,222.3 103.069,222.3 103.319,222.3 103.584,222.3 103.849,222.3 104.114,222.3 104.379,222.3 104.675,222.3 104.909,222.3 105.205,222.3 105.455,222.3 105.735,222.3 105.985,222.3 106.328,222.3 106.577,222.3 106.873,222.3 107.123,222.3 107.403,222.3 107.637,222.3 107.934,222.3 108.183,222.3 108.451,222.3 108.716,222.3 108.981,222.3 109.231,222.3 109.496,222.3 109.745,222.3 110.01,222.3 110.26,222.3 110.54,222.3 110.79,222.3 111.071,222.3 111.304,222.3 111.585,222.3 111.834,222.3 112.099,222.3 112.365,222.3 112.63,222.3 112.879,222.3 113.175,222.3 113.425,222.3 113.721,222.3 113.97,222.3 114.235,222.3 114.485,222.3 114.75,222.3 114.999,222.3 115.264,222.3 115.514,222.3 115.794,222.3 116.044,222.3 116.313,222.3 116.578,222.3 116.843,222.3 117.092,222.3 117.388,222.3 117.638,222.3 117.934,222.3 118.183,222.3 118.464,222.3 118.713,222.3 118.963,222.3 119.244,222.3 119.509,222.3 119.774,222.3 120.039,222.3 120.304,222.3 120.553,222.3 120.818,222.3 121.099,222.3 121.348,222.3 121.629,222.3 121.909,222.3 122.159,222.3 122.44,222.3 122.705,222.3 122.954,222.3 123.235,222.3 123.484,222.3 123.765,222.3 124.014,222.3 124.282,222.3 124.531,222.3 124.796,222.3 125.061,222.3 125.326,222.3 125.576,222.3 125.825,222.3 126.106,222.3 126.355,222.3 126.62,222.3 126.885,222.3 127.15,222.3 127.415,222.3 127.649,222.3 127.945,222.3 128.21,222.3 128.475,222.3 128.74,222.3 129.005,222.3 129.27,222.3 129.535,222.3 129.801,222.3 130.066,222.3 130.331,222.3 130.596,222.3 130.845,222.3 131.094,222.3 131.375,222.3 131.625,222.3 131.89,222.3 132.146,222.3 132.457,222.3 132.722,222.3 132.987,222.3 133.252,222.3 133.518,222.3 133.783,222.3 134.048,222.3 134.313,222.3 134.562,222.3 134.858,222.3 135.123,222.3 135.388,222.3 135.653,222.3 135.934,222.3 136.183,222.3 136.48,222.3 136.76,222.3 137.025,222.3 137.29,222.3 137.602,222.3 137.852,222.3 138.132,222.3 138.382,222.3 138.678,222.3 138.927,222.3 139.208,222.3 139.473,222.3 139.754,222.3 140.003,222.3 140.268,222.3 140.533,222.3 140.798,222.3 141.048,222.3 141.328,222.3 141.578,222.3 141.843,222.3 142.108,222.3 142.373,222.3 142.638,222.3 142.872,222.3 143.168,222.3 143.433,222.3 143.698,222.3 143.963,222.3 144.212,222.3 144.493,222.3 144.743,222.3 145.023,222.3 145.288,222.3 145.538,222.3 145.818,222.3 146.068,222.3 146.348,222.3 146.613,222.3 146.863,222.3 147.128,222.3 147.393,222.3 147.642,222.3 147.921,222.3 148.171,222.3 148.451,222.3 148.716,222.3 148.981,222.3 149.262,222.3 149.511,222.3 149.823,222.3 150.088,222.3 150.369,222.3 150.618,222.3 150.899,222.3 151.148,222.3 151.429,222.3 151.694,222.3 151.959,222.3 152.255,222.3 152.52,222.3 152.785,222.3 153.05,222.3 153.347,222.3 153.596,222.3 153.877,222.3 154.142,222.3 154.422,222.3 154.687,222.3 154.953,222.3 155.233,222.3 155.483,222.3 155.763,222.3 156.028,222.3 156.293,222.3 156.558,222.3 156.823,222.3 157.088,222.3 157.353,222.3 157.618,222.3 157.883,222.3 158.149,222.3 158.414,222.3 158.663,222.3 158.944,222.3 159.193,222.3 159.474,222.3 159.723,222.3 160.019,222.3 160.284,222.3 160.549,222.3 160.83,222.3 161.079,222.3 161.36,222.3 161.61,222.3 161.906,222.3 162.155,222.3 162.436,222.3 162.701,222.3 162.966,222.3 163.247,222.3 163.512,222.3 163.792,222.3 164.057,222.3 164.322,222.3 164.603,222.3 164.868,222.3 165.133,222.3 165.398,222.3 165.679,222.3 165.944,222.3 166.209,222.3 166.474,222.3 166.739,222.3 167.004,222.3 167.269,222.3 167.534,222.3 167.799,222.3 168.08,222.3 168.329,222.3 168.625,222.3 168.906,222.3 169.171,222.3 169.436,222.3 169.701,222.3 169.966,222.3 170.231,222.3 170.496,222.3 170.761,222.3 171.026,222.3 171.291,222.3 171.575,222.3 171.82,222.3 172.116,222.3 172.365,222.3 172.646,222.3 172.927,222.3 173.176,222.3 173.457,222.3 173.722,222.3 173.987,222.3 174.236,222.3 174.501,222.3 174.766,222.3 175.031,222.3 175.296,222.3 175.561,222.3 175.826,222.3 176.107,222.3 176.372,222.3 176.653,222.3 176.918,222.3 177.167,222.3 177.448,222.3 177.729,222.3 177.978,222.3 178.243,222.3 178.508,222.3 178.773,222.3 179.038,222.3 179.303,222.3 179.567,222.3 179.863,222.3 180.128,222.3 180.393,222.3 180.659,222.3 180.939,222.3 181.204,222.3 181.469,222.3 181.734,222.3 181.999,222.3 182.264,222.3 182.529,222.3 182.81,222.3 183.075,222.3 183.34,222.3 183.605,222.3 183.87,222.3 184.151,222.3 184.416,222.3 184.696,222.3 184.961,222.3 185.227,222.3 185.492,222.3 185.772,222.3 186.037,222.3 186.302,222.3 186.567,222.3 186.848,222.3 187.097,222.3 187.375,222.3 187.635,222.3 187.9,222.3 188.149,222.3 188.43,222.3 188.679,222.3 188.96,222.3 189.209,222.3 189.459,222.3 189.724,222.3 189.973,222.3 190.238,222.3 190.488,222.3 190.753,222.3 191.002,222.3 191.267,222.3 191.532,222.3 191.797,222.3 192.062,222.3 192.312,222.3 192.577,222.3 192.857,222.3 193.122,222.3 193.372,222.3 193.637,222.3 193.886,222.3 194.151,222.3 194.416,222.3 194.666,222.3 194.946,222.3 195.212,222.3 195.478,222.3 195.728,222.3 195.993,222.3 196.258,222.3 196.507,222.3 196.757,222.3 197.006,222.3 197.287,222.3 197.536,222.3 197.801,222.3 198.051,222.3 198.316,222.3 198.565,222.3 198.83,222.3 199.095,222.3 199.36,222.3 199.61,222.3 199.89,222.3 200.155,222.3 200.451,222.3 200.716,222.3 200.982,222.3 201.231,222.3 201.527,222.3 201.777,222.3 202.057,222.3 202.307,222.3 202.572,222.3 202.821,222.3 203.117,222.3 203.356,222.3 203.636,222.3 203.886,222.3 204.166,222.3 204.416,222.3 204.681,222.3 204.946,222.3 205.195,222.3 205.46,222.3 205.725,222.3 205.975,222.3 206.24,222.3 206.505,222.3 206.754,222.3 207.019,222.3 207.285,222.3 207.534,222.3 207.815,222.3 208.08,222.3 208.345,222.3 208.594,222.3 208.89,222.3 209.124,222.3 209.405,222.3 209.639,222.3 209.935,222.3 210.184,222.3 210.449,222.3 210.714,222.3 210.964,222.3 211.213,222.3 211.494,222.3 211.743,222.3 212.008,222.3 212.273,222.3 212.523,222.3 212.788,222.3 213.068,222.3 213.318,222.3 213.583,222.3 213.832,222.3 214.097,222.3 214.347,222.3 214.612,222.3 214.877,222.3 215.142,222.3 215.391,222.3 215.672,222.3 215.937,222.3 216.233,222.3 216.482,222.3 216.748,222.3 217.013,222.3 217.309,222.3 217.558,222.3 217.839,222.3 218.073,222.3 218.338,222.3 218.587,222.3 218.868,222.3 219.123,222.3 219.404,222.3 219.653,222.3 219.934,222.3 220.183,222.3 220.464,222.3 220.713,222.3 220.978,222.3 221.243,222.3 221.508,222.3 221.758,222.3 222.007,222.3 222.288,222.3 222.522,222.3 222.818,222.3 223.083,222.3 223.332,222.3 223.629,222.3 223.878,222.3 224.159,222.3 224.408,222.3 224.673,222.3 224.923,222.3 225.203,222.3 225.437,222.3 225.733,222.3 225.983,222.3 226.279,222.3 226.529,222.3 226.794,222.3 227.049,222.3 227.329,222.3 227.579,222.3 227.844,222.3 228.093,222.3 228.389,222.3 228.623,222.3 228.904,222.3 229.153,222.3 229.434,222.3 229.683,222.3 229.948,222.3 230.198,222.3 230.463,222.3 230.712,222.3 230.993,222.3 231.258,222.3 231.523,222.3 231.772,222.3 232.069,222.3 232.318,222.3 232.599,222.3 232.848,222.3 233.129,222.3 233.394,222.3 233.643,222.3 233.908,222.3 234.158,222.3 234.423,222.3 234.672,222.3 234.948,222.3 235.244,222.3 235.494,222.3 235.759,222.3 236.008,222.3 236.289,222.3 236.523,222.3 236.788,222.3 237.037,222.3 237.302,222.3 237.552,222.3 237.817,222.3 238.066,222.3 238.331,222.3 238.581,222.3 238.846,222.3 239.111,222.3 239.376,222.3 239.641,222.3 239.89,222.3 240.155,222.3 240.451,222.3 240.701,222.3 240.981,222.3 241.231,222.3 241.496,222.3 241.761,222.3 242.01,222.3 242.275,222.3 242.54,222.3 242.806,222.3 243.056,222.3 243.321,222.3 243.57,222.3 243.851,222.3 244.1,222.3 244.35,222.3 244.615,222.3 244.88,222.3 245.145,222.3 245.394,222.3 245.659,222.3 245.924,222.3 246.174,222.3 246.439,222.3 246.688,222.3 246.954,222.3 247.234,222.3 247.484,222.3 247.764,222.3 248.014,222.3 248.294,222.3 248.528,222.3 248.793,222.3 249.058,222.3 249.308,222.3 249.573,222.3 249.822,222.3 250.087,222.3 250.337,222.3 250.604,222.3 250.874,222.3 251.123,222.3 251.388,222.3 251.653,222.3 251.903,222.3 252.152,222.3 252.417,222.3 252.698,222.3 252.947,222.3 253.212,222.3 253.462,222.3 253.743,222.3 253.992,222.3 254.257,222.3 254.522,222.3 254.787,222.3 255.037,222.3 255.317,222.3 255.567,222.3 255.816,222.3 256.097,222.3 256.362,222.3 256.627,222.3 256.892,222.3 257.157,222.3 257.422,222.3 257.671,222.3 257.936,222.3 258.201,222.3 258.468,222.3 258.722,222.3 258.987,222.3 259.236,222.3 259.501,222.3 259.766,222.3 260.016,222.3 260.281,222.3 260.546,222.3 260.795,222.3 261.06,222.3 261.31,222.3 261.575,222.3 261.84,222.3 262.089,222.3 262.354,222.3 262.604,222.3 262.869,222.3 263.134,222.3 263.414,222.3 263.664,222.3 263.945,222.3 264.21,222.3 264.459,222.3 264.724,222.3 264.989,222.3 265.239,222.3 265.519,222.3 265.769,222.3 266.034,222.3 266.283,222.3 266.578,222.3 266.828,222.3 267.093,222.3 267.343,222.3 267.607,222.3 267.888,222.3 268.137,222.3 268.402,222.3 268.667,222.3 268.948,222.3 269.213,222.3 269.462,222.3 269.712,222.3 269.992,222.3 270.242,222.3 270.507,222.3 270.772,222.3 271.021,222.3 271.333,222.3 271.551,222.3 271.894,222.3 272.128,222.3 272.409,222.3 272.658,222.3 272.923,222.3 273.173,222.3 273.438,222.3 273.703,222.3 273.968,222.3 274.217,222.3 274.493,222.3 274.758,222.3 275.008,222.3 275.273,222.3 275.538,222.3 275.803,222.3 276.068,222.3 276.333,222.3 276.582,222.3 276.879,222.3 277.128,222.3 277.409,222.3 277.658,222.3 277.923,222.3 278.173,222.3 278.438,222.3 278.687,222.3 278.968,222.3 279.217,222.3 279.513,222.3 279.81,222.3 280.059,222.3 280.34,222.3 280.589,222.3 280.87,222.3 281.12,222.3 281.416,222.3 281.665,222.3 281.93,222.3 282.216,222.3 282.484,222.3 282.733,222.3 283.014,222.3 283.263,222.3 283.528,222.3 283.793,222.3 284.058,222.3 284.323,222.3 284.573,222.3 284.838,222.3 285.087,222.3 285.368,222.3 285.617,222.3 285.882,222.3 286.147,222.3 286.428,222.3 286.662,222.3 286.974,222.3 287.207,222.3 287.535,222.3 287.784,222.3 288.065,222.3 288.314,222.3 288.595,222.3 288.829,222.3 289.109,222.3 289.359,222.3 289.624,222.3 289.873,222.3 290.141,222.3 290.389,222.3 290.67,222.3 290.904,222.3 291.2,222.3 291.465,222.3 291.73,222.3 291.996,222.3 292.261,222.3 292.542,222.3 292.791,222.3 293.072,222.3 293.321,222.3 293.571,222.3 293.836,222.3 294.085,222.3 294.366,222.3 294.615,222.3 294.927,222.3 295.161,222.3 295.457,222.3 295.707,222.3 295.987,222.3 296.237,222.3 296.517,222.3 296.767,222.3 297.047,222.3 297.297,222.3 297.562,222.3 297.811,222.3 298.085,222.3 298.335,222.3 298.6,222.3 298.865,222.3 299.115,222.3 299.38,222.3 299.645,222.3 299.894,222.3 300.159,222.3 300.424,222.3 300.674,222.3 300.954,222.3 301.204,222.3 301.469,222.3 301.734,222.3 301.983,222.3 302.248,222.3 302.498,222.3 302.794,222.3 303.043,222.3 303.34,222.3 303.605,222.3 303.854,222.3 304.119,222.3 304.369,222.3 304.649,222.3 304.899,222.3 305.179,222.3 305.429,222.3 305.694,222.3 305.965,222.3 306.21,222.3 306.491,222.3 306.756,222.3 307.005,222.3 307.301,222.3 307.551,222.3 307.831,222.3 308.081,222.3 308.346,222.3 308.611,222.3 308.892,222.3 309.125,222.3 309.422,222.3 309.687,222.3 309.952,222.3 310.217,222.3 310.497,222.3 310.762,222.3 311.043,222.3 311.324,222.3 311.573,222.3 311.854,222.3 312.088,222.3 312.353,222.3 312.602,222.3 312.883,222.3 313.132,222.3 313.397,222.3 313.662,222.3 313.912,222.3 314.177,222.3 314.442,222.3 314.707,222.3 314.972,222.3 315.237,222.3 315.502,222.3 315.768,222.3 316.033,222.3 316.313,222.3 316.578,222.3 316.843,222.3 317.124,222.3 317.373,222.3 317.654,222.3 317.903,222.3 318.184,222.3 318.433,222.3 318.745,222.3 318.979,222.3 319.291,222.3 319.54,222.3 319.821,222.3 320.086,222.3 320.335,222.3 320.585,222.3 320.866,222.3 321.115,222.3 321.396,222.3 321.645,222.3 321.922,222.3 322.187,222.3 322.437,222.3 322.717,222.3 322.982,222.3 323.247,222.3 323.512,222.3 323.777,222.3 324.027,222.3 324.307,222.3 324.557,222.3 324.853,222.3 325.111,222.3 325.392,222.3 325.641,222.3 325.922,222.3 326.171,222.3 326.483,222.3 326.702,222.3 327.013,222.3 327.294,222.3 327.543,222.3 327.824,222.3 328.089,222.3 328.354,222.3 328.619,222.3 328.884,222.3 329.149,222.3 329.414,222.3 329.675,222.3 329.943,222.3 330.224,222.3 330.473,222.3 330.754,222.3 331.019,222.3 331.284,222.3 331.549,222.3 331.798,222.3 332.079,222.3 332.344,222.3 332.609,222.3 332.874,222.3 333.186,222.3 333.435,222.3 333.716,222.3 333.981,222.3 334.246,222.3 334.527,222.3 334.792,222.3 335.057,222.3 335.322,222.3 335.587,222.3 335.852,222.3 336.117,222.3 336.382,222.3 336.631,222.3 336.912,222.3 337.146,222.3 337.411,222.3 337.68,222.3 337.945,222.3 338.21,222.3 338.475,222.3 338.74,222.3 338.99,222.3 339.255,222.3 339.551,222.3 339.785,222.3 340.081,222.3 340.346,222.3 340.611,222.3 340.876,222.3 341.141,222.3 341.406,222.3 341.671,222.3 341.952,222.3 342.217,222.3 342.498,222.3 342.763,222.3 343.028,222.3 343.293,222.3 343.558,222.3 343.839,222.3 344.088,222.3 344.369,222.3 344.634,222.3 344.888,222.3 345.153,222.3 345.418,222.3 345.675,222.3 345.956,222.3 346.205,222.3 346.47,222.3 346.735,222.3 346.985,222.3 347.265,222.3 347.515,222.3 347.795,222.3 348.06,222.3 348.325,222.3 348.59,222.3 348.847,222.3 349.127,222.3 349.377,222.3 349.657,222.3 349.911,222.3 350.192,222.3 350.442,222.3 350.738,222.3 351.003,222.3 351.299,222.3 351.564,222.3 351.829,222.3 352.094,222.3 352.39,222.3 352.639,222.3 352.92,222.3 353.185,222.3 353.44,222.3 353.705,222.3 353.985,222.3 354.25,222.3 354.516,222.3 354.781,222.3 355.03,222.3 355.311,222.3 355.56,222.3 355.841,222.3 356.106,222.3 356.371,222.3 356.62,222.3 356.901,222.3 357.15,222.3 357.447,222.3 357.712,222.3 358.008,222.3 358.273,222.3 358.538,222.3 358.803,222.3 359.083,222.3 359.333,222.3 359.614,222.3 359.863,222.3 360.144,222.3 360.41,222.3 360.675,222.3 360.94,222.3 361.236,222.3 361.472,222.3 361.752,222.3 362.002,222.3 362.298,222.3 362.547,222.3 362.828,222.3 363.093,222.3 363.358,222.3 363.608,222.3 363.888,222.3 364.138,222.3 364.403,222.3 364.668,222.3 364.933,222.3 365.182,222.3 365.478,222.3 365.728,222.3 366.008,222.3 366.273,222.3 366.585,222.3 366.835,222.3 367.1,222.3 367.365,222.3 367.614,222.3 367.895,222.3 368.16,222.3 368.425,222.3 368.69,222.3 368.955,222.3 369.207,222.3 369.466,222.3 369.746,222.3 370.011,222.3 370.276,222.3 370.541,222.3 370.806,222.3 371.087,222.3 371.352,222.3 371.633,222.3 371.882,222.3 372.163,222.3 372.417,222.3 372.697,222.3 372.978,222.3 373.228,222.3 373.508,222.3 373.804,222.3 374.054,222.3 374.35,222.3 374.631,222.3 374.896,222.3 375.161,222.3 375.426,222.3 375.706,222.3 375.956,222.3 376.252,222.3 376.517,222.3 376.782,222.3 377.032,222.3 377.309,222.3 377.575,222.3 377.84,222.3 378.136,222.3 378.401,222.3 378.666,222.3 378.947,222.3 379.196,222.3 379.477,222.3 379.726,222.3 380.007,222.3 380.272,222.3 380.537,222.3 380.802,222.3 381.067,222.3 381.332,222.3 381.597,222.3 381.893,222.3 382.143,222.3 382.408,222.3 382.69,222.3 382.971,222.3 383.236,222.3 383.501,222.3 383.766,222.3 384.046,222.3 384.296,222.3 384.576,222.3 384.826,222.3 385.104,222.3 385.367,222.3 385.664,222.3 385.929,222.3 386.194,222.3 386.459,222.3 386.724,222.3 386.989,222.3 387.254,222.3 387.55,222.3 387.799,222.3 388.08,222.3 388.345,222.3 388.61,222.3 388.891,222.3 389.156,222.3 389.421,222.3 389.701,222.3 389.951,222.3 390.263,222.3 390.512,222.3 390.793,222.3 391.042,222.3 391.323,222.3 391.572,222.3 391.853,222.3 392.102,222.3 392.383,222.3 392.648,222.3 392.916,222.3 393.186,222.3 393.435,222.3 393.731,222.3 393.981,222.3 394.261,222.3 394.526,222.3 394.807,222.3 395.056,222.3 395.337,222.3 395.586,222.3 395.851,222.3 396.116,222.3 396.382,222.3 396.647,222.3 396.896,222.3 397.177,222.3 397.442,222.3 397.722,222.3 397.972,222.3 398.268,222.3 398.533,222.3 398.798,222.3 399.063,222.3 399.344,222.3 399.593,222.3 399.874,222.3 400.123,222.3 400.404,222.3 400.653,222.3 400.931,222.3 401.181,222.3 401.461,222.3 401.711,222.3 401.991,222.3 402.256,222.3 402.521,222.3 402.786,222.3 403.052,222.3 403.317,222.3 403.597,222.3 403.878,222.3 404.143,222.3 404.408,222.3 404.689,222.3 404.938,222.3 405.234,222.3 405.499,222.3 405.795,222.3 406.06,222.3 406.326,222.3 406.606,222.3 406.871,222.3 407.136,222.3 407.401,222.3 407.666,222.3 407.947,222.3 408.228,222.3 408.477,222.3 408.761,222.3 409.012,222.3 409.339,222.3 409.542,222.3 409.869,222.3 410.134,222.3 410.415,222.3 410.664,222.3 410.945,222.3 411.194,222.3 411.459,222.3 411.724,222.3 411.974,222.3 412.254,222.3 412.504,222.3 412.784,222.3 413.034,222.3 413.33,222.3 413.595,222.3 413.891,222.3 414.156,222.3 414.421,222.3 414.702,222.3 414.951,222.3 415.248,222.3 415.497,222.3 415.778,222.3 416.043,222.3 416.308,222.3 416.573,222.3 416.856,222.3 417.106,222.3 417.386,222.3 417.651,222.3 417.932,222.3 418.197,222.3 418.462,222.3 418.743,222.3 419.008,222.3 419.273,222.3 419.538,222.3 419.803,222.3 420.083,222.3 420.349,222.3 420.629,222.3 420.879,222.3 421.175,222.3 421.424,222.3 421.72,222.3 421.985,222.3 422.266,222.3 422.516,222.3 422.796,222.3 423.046,222.3 423.326,222.3 423.591,222.3 423.856,222.3 424.121,222.3 424.386,222.3 424.651,222.3 424.916,222.3 425.182,222.3 425.447,222.3 425.712,222.3 425.977,222.3 426.242,222.3 426.507,222.3 426.772,222.3 427.037,222.3 427.302,222.3 427.567,222.3 427.832,222.3 428.097,222.3 428.357,222.3 428.669,222.3 428.919,222.3 429.199,222.3 429.464,222.3 429.776,222.3 430.026,222.3 430.306,222.3 430.571,222.3 430.852,222.3 431.117,222.3 431.382,222.3 431.647,222.3 431.912,222.3 432.177,222.3 432.46,222.3 432.724,222.3 432.989,222.3 433.254,222.3 433.55,222.3 433.815,222.3 434.08,222.3 434.345,222.3 434.61,222.3 434.876,222.3 435.14,222.3 435.405,222.3 435.671,222.3 435.936,222.3 436.201,222.3 436.466,222.3 436.731,222.3 436.996,222.3 437.261,222.3 437.526,222.3 437.791,222.3 438.056,222.3 438.352,222.3 438.617,222.3 438.882,222.3 439.163,222.3 439.428,222.3 439.693,222.3 440.554,222.3 440.741,222.3 441.084,222.3 441.349,222.3 441.629,222.3 441.894,222.3 442.159,222.3 442.44,222.3 442.705,222.3 442.986,222.3 443.251,222.3 443.516,222.3 443.781,222.3 444.046,222.3 444.311,222.3 444.576,222.3 444.841,222.3 445.122,222.3 445.387,222.3 445.667,222.3 445.964,222.3 446.229,222.3 446.509,222.3 446.774,222.3 447.055,222.3 447.32,222.3 447.6,222.3 447.866,222.3 448.131,222.3 448.399,222.3 448.664,222.3 448.945,222.3 449.21,222.3 449.475,222.3 449.74,222.3 450.036,222.3 450.301,222.3 450.582,222.3 450.847,222.3 451.128,222.3 451.393,222.3 451.673,222.3 451.938,222.3 452.235,222.3 452.515,222.3 452.78,222.3 453.045,222.3 453.388,222.3 453.591,222.3 453.934,222.3 454.199,222.3 454.448,222.3 454.729,222.3 455.01,222.3 455.275,222.3 455.54,222.3 455.82,222.3 "
         id="polyline51" />
    </g>
    <g
       id="g62"
       transform="translate(51,53)">
      <g
         fill="#ffffff"
         fill-opacity="1"
         stroke="none"
         transform="matrix(5e-5,0,0,5e-5,-4.6,-8.25)"
         font-family="Helvetica"
         font-size="19px"
         font-weight="400"
         font-style="normal"
         id="g53">
        <path
           vector-effect="none"
           fill-rule="evenodd"
           d="m 1680000,1330000 v 670000 H 3540000 V 1330000 H 1680000"
           id="path52" />
      </g>
      <g
         fill="#1171be"
         fill-opacity="1"
         stroke="#1171be"
         stroke-opacity="1"
         stroke-width="1"
         stroke-linecap="butt"
         stroke-linejoin="round"
         transform="matrix(0.5,0,0,0.5,-4.6,-8.25)"
         font-family="Helvetica"
         font-size="19px"
         font-weight="400"
         font-style="normal"
         id="g54">
        <polyline
           fill="none"
           vector-effect="none"
           points="173.984,145.904 233.823,145.904 "
           id="polyline53" />
      </g>
      <g
         fill="#800080"
         fill-opacity="1"
         stroke="#800080"
         stroke-opacity="1"
         stroke-width="1"
         stroke-linecap="butt"
         stroke-linejoin="round"
         transform="matrix(0.5,0,0,0.5,-4.6,-8.25)"
         font-family="Helvetica"
         font-size="19px"
         font-weight="400"
         font-style="normal"
         id="g55">
        <polyline
           fill="none"
           vector-effect="none"
           points="173.984,166.5 233.823,166.5 "
           id="polyline54" />
      </g>
      <g
         fill="#ff0000"
         fill-opacity="1"
         stroke="#ff0000"
         stroke-opacity="1"
         stroke-width="1"
         stroke-linecap="butt"
         stroke-linejoin="round"
         transform="matrix(0.5,0,0,0.5,-4.6,-8.25)"
         font-family="Helvetica"
         font-size="19px"
         font-weight="400"
         font-style="normal"
         id="g56">
        <polyline
           fill="none"
           vector-effect="none"
           points="173.984,187.096 233.823,187.096 "
           id="polyline55" />
      </g>
      <g
         fill="#212121"
         fill-opacity="1"
         stroke="#212121"
         stroke-opacity="1"
         stroke-width="1"
         stroke-linecap="square"
         stroke-linejoin="bevel"
         transform="matrix(0.5,0,0,0.5,114.555,66.9519)"
         font-family="Helvetica"
         font-size="17px"
         font-weight="400"
         font-style="normal"
         id="g57">
        <text
           fill="#212121"
           fill-opacity="1"
           stroke="none"
           xml:space="preserve"
           x="0"
           y="0.078125"
           font-family="Helvetica"
           font-size="17px"
           font-weight="400"
           font-style="normal"
           id="text56">Salida $y(t)$</text>
      </g>
      <g
         fill="#212121"
         fill-opacity="1"
         stroke="#212121"
         stroke-opacity="1"
         stroke-width="1"
         stroke-linecap="square"
         stroke-linejoin="bevel"
         transform="matrix(0.5,0,0,0.5,114.555,77.25)"
         font-family="Helvetica"
         font-size="17px"
         font-weight="400"
         font-style="normal"
         id="g58">
        <text
           fill="#212121"
           fill-opacity="1"
           stroke="none"
           xml:space="preserve"
           x="0"
           y="0.078125"
           font-family="Helvetica"
           font-size="17px"
           font-weight="400"
           font-style="normal"
           id="text57">Control $u(t)$</text>
      </g>
      <g
         fill="#212121"
         fill-opacity="1"
         stroke="#212121"
         stroke-opacity="1"
         stroke-width="1"
         stroke-linecap="square"
         stroke-linejoin="bevel"
         transform="matrix(0.5,0,0,0.5,114.555,87.5481)"
         font-family="Helvetica"
         font-size="17px"
         font-weight="400"
         font-style="normal"
         id="g59">
        <text
           fill="#212121"
           fill-opacity="1"
           stroke="none"
           xml:space="preserve"
           x="0"
           y="0.078125"
           font-family="Helvetica"
           font-size="17px"
           font-weight="400"
           font-style="normal"
           id="text58">Referencia $r(t)$</text>
      </g>
      <g
         fill="none"
         stroke="#212121"
         stroke-opacity="1"
         stroke-width="1"
         stroke-linecap="butt"
         stroke-linejoin="miter"
         stroke-miterlimit="2"
         transform="matrix(0.5,0,0,0.5,-4.6,-8.25)"
         font-family="Helvetica"
         font-size="17px"
         font-weight="400"
         font-style="normal"
         id="g60">
        <path
           vector-effect="none"
           fill-rule="evenodd"
           d="m 168,200 v -67 h 186 v 67 H 168"
           id="path59" />
      </g>
    </g>
  </g>
</svg>
