<?xml version="1.0" encoding="UTF-8" standalone="no"?>
<svg
   width="81.1389mm"
   height="60.325mm"
   viewBox="0 0 230 171"
   version="1.2"
   id="svg66"
   sodipodi:docname="identificacion_modelos.svg"
   inkscape:version="1.4.2 (ebf0e940, 2025-05-08)"
   inkscape:export-filename="identificacion_modelos.pdf"
   inkscape:export-xdpi="96"
   inkscape:export-ydpi="96"
   xmlns:inkscape="http://www.inkscape.org/namespaces/inkscape"
   xmlns:sodipodi="http://sodipodi.sourceforge.net/DTD/sodipodi-0.dtd"
   xmlns="http://www.w3.org/2000/svg"
   xmlns:svg="http://www.w3.org/2000/svg">
  <sodipodi:namedview
     id="namedview66"
     pagecolor="#ffffff"
     bordercolor="#000000"
     borderopacity="0.25"
     inkscape:showpageshadow="2"
     inkscape:pageopacity="0.0"
     inkscape:pagecheckerboard="0"
     inkscape:deskcolor="#d1d1d1"
     inkscape:document-units="mm"
     inkscape:zoom="2.6138718"
     inkscape:cx="89.52237"
     inkscape:cy="134.47484"
     inkscape:window-width="1440"
     inkscape:window-height="834"
     inkscape:window-x="3"
     inkscape:window-y="34"
     inkscape:window-maximized="0"
     inkscape:current-layer="g26" />
  <title
     id="title1">Qt SVG Document</title>
  <desc
     id="desc1">MATLAB, The MathWorks, Inc. Version 25.1.0.2973910 R2025a Update 1</desc>
  <defs
     id="defs1" />
  <g
     fill="none"
     stroke="black"
     stroke-width="1"
     fill-rule="evenodd"
     stroke-linecap="square"
     stroke-linejoin="bevel"
     id="g66">
    <g
       fill="#ffffff"
       fill-opacity="1"
       stroke="none"
       transform="matrix(5e-05,0,0,5e-05,-4.6,-8.25)"
       font-family=".AppleSystemUIFont"
       font-size="13"
       font-weight="400"
       font-style="normal"
       id="g2">
      <path
         vector-effect="none"
         fill-rule="evenodd"
         d="M660000,270000 L660000,3.06e+06 L4.56e+06,3.06e+06 L4.56e+06,270000 L660000,270000"
         id="path2" />
    </g>
    <g
       fill="#212121"
       fill-opacity="0.14902"
       stroke="#212121"
       stroke-opacity="0.14902"
       stroke-width="1"
       stroke-linecap="butt"
       stroke-linejoin="round"
       transform="matrix(0.5,0,0,0.5,-4.6,-8.25)"
       font-family=".AppleSystemUIFont"
       font-size="13"
       font-weight="400"
       font-style="normal"
       id="g11">
      <polyline
         fill="none"
         vector-effect="none"
         points="66,27 66,306 "
         id="polyline2" />
      <polyline
         fill="none"
         vector-effect="none"
         points="196,27 196,306 "
         id="polyline3" />
      <polyline
         fill="none"
         vector-effect="none"
         points="326,27 326,306 "
         id="polyline4" />
      <polyline
         fill="none"
         vector-effect="none"
         points="456,27 456,306 "
         id="polyline5" />
      <polyline
         fill="none"
         vector-effect="none"
         points="66,306 456,306 "
         id="polyline6" />
      <polyline
         fill="none"
         vector-effect="none"
         points="66,250.2 456,250.2 "
         id="polyline7" />
      <polyline
         fill="none"
         vector-effect="none"
         points="66,194.4 456,194.4 "
         id="polyline8" />
      <polyline
         fill="none"
         vector-effect="none"
         points="66,138.6 456,138.6 "
         id="polyline9" />
      <polyline
         fill="none"
         vector-effect="none"
         points="66,82.8 456,82.8 "
         id="polyline10" />
      <polyline
         fill="none"
         vector-effect="none"
         points="66,27 456,27 "
         id="polyline11" />
    </g>
    <g
       fill="#212121"
       fill-opacity="1"
       stroke="#212121"
       stroke-opacity="1"
       stroke-width="1"
       stroke-linecap="square"
       stroke-linejoin="bevel"
       transform="matrix(0.5,0,0,0.5,102.15,167.4)"
       font-family="Helvetica"
       font-size="20"
       font-weight="400"
       font-style="normal"
       id="g12">
      <text
         fill="#212121"
         fill-opacity="1"
         stroke="none"
         xml:space="preserve"
         x="46.538086"
         y="0.390625"
         font-family="Helvetica"
         font-size="20px"
         font-weight="400"
         font-style="normal"
         id="text11"
         style="text-align:center;text-anchor:middle">Tiempo (s)</text>
    </g>
    <g
       fill="#212121"
       fill-opacity="1"
       stroke="#212121"
       stroke-opacity="1"
       stroke-width="1"
       stroke-linecap="square"
       stroke-linejoin="round"
       transform="matrix(0.5,0,0,0.5,-4.6,-8.25)"
       font-family="Helvetica"
       font-size="20"
       font-weight="400"
       font-style="normal"
       id="g21">
      <polyline
         fill="none"
         vector-effect="none"
         points="66,306 456,306 "
         id="polyline12" />
      <polyline
         fill="none"
         vector-effect="none"
         points="66,27 456,27 "
         id="polyline13" />
      <polyline
         fill="none"
         vector-effect="none"
         points="66,306 66,302.1 "
         id="polyline14" />
      <polyline
         fill="none"
         vector-effect="none"
         points="66,30.9 66,27 "
         id="polyline15" />
      <polyline
         fill="none"
         vector-effect="none"
         points="196,306 196,302.1 "
         id="polyline16" />
      <polyline
         fill="none"
         vector-effect="none"
         points="196,30.9 196,27 "
         id="polyline17" />
      <polyline
         fill="none"
         vector-effect="none"
         points="326,306 326,302.1 "
         id="polyline18" />
      <polyline
         fill="none"
         vector-effect="none"
         points="326,30.9 326,27 "
         id="polyline19" />
      <polyline
         fill="none"
         vector-effect="none"
         points="456,306 456,302.1 "
         id="polyline20" />
      <polyline
         fill="none"
         vector-effect="none"
         points="456,30.9 456,27 "
         id="polyline21" />
    </g>
    <g
       fill="#212121"
       fill-opacity="1"
       stroke="#212121"
       stroke-opacity="1"
       stroke-width="1"
       stroke-linecap="square"
       stroke-linejoin="bevel"
       transform="matrix(0.5,0,0,0.5,25.65,155.65)"
       font-family="Helvetica"
       font-size="19"
       font-weight="400"
       font-style="normal"
       id="g22">
      <text
         fill="#212121"
         fill-opacity="1"
         stroke="none"
         xml:space="preserve"
         x="4.5830078"
         y="-0.375"
         font-family="Helvetica"
         font-size="19px"
         font-weight="400"
         font-style="normal"
         id="text21"
         style="text-align:center;text-anchor:middle">0</text>
    </g>
    <g
       fill="#212121"
       fill-opacity="1"
       stroke="#212121"
       stroke-opacity="1"
       stroke-width="1"
       stroke-linecap="square"
       stroke-linejoin="bevel"
       transform="matrix(0.5,0,0,0.5,90.65,155.65)"
       font-family="Helvetica"
       font-size="19"
       font-weight="400"
       font-style="normal"
       id="g23">
      <text
         fill="#212121"
         fill-opacity="1"
         stroke="none"
         xml:space="preserve"
         x="4.5737305"
         y="-0.375"
         font-family="Helvetica"
         font-size="19px"
         font-weight="400"
         font-style="normal"
         id="text22"
         style="text-align:center;text-anchor:middle">5</text>
    </g>
    <g
       fill="#212121"
       fill-opacity="1"
       stroke="#212121"
       stroke-opacity="1"
       stroke-width="1"
       stroke-linecap="square"
       stroke-linejoin="bevel"
       transform="matrix(0.5,0,0,0.5,153.15,155.65)"
       font-family="Helvetica"
       font-size="19"
       font-weight="400"
       font-style="normal"
       id="g24">
      <text
         fill="#212121"
         fill-opacity="1"
         stroke="none"
         xml:space="preserve"
         x="9.2541504"
         y="-0.375"
         font-family="Helvetica"
         font-size="19px"
         font-weight="400"
         font-style="normal"
         id="text23"
         style="text-align:center;text-anchor:middle">10</text>
    </g>
    <g
       fill="#212121"
       fill-opacity="1"
       stroke="#212121"
       stroke-opacity="1"
       stroke-width="1"
       stroke-linecap="square"
       stroke-linejoin="bevel"
       transform="matrix(0.5,0,0,0.5,218.15,155.65)"
       font-family="Helvetica"
       font-size="19"
       font-weight="400"
       font-style="normal"
       id="g25">
      <text
         fill="#212121"
         fill-opacity="1"
         stroke="none"
         xml:space="preserve"
         x="9.2541504"
         y="-0.375"
         font-family="Helvetica"
         font-size="19px"
         font-weight="400"
         font-style="normal"
         id="text24"
         style="text-align:center;text-anchor:middle">15</text>
    </g>
    <g
       fill="#212121"
       fill-opacity="1"
       stroke="#212121"
       stroke-opacity="1"
       stroke-width="1"
       stroke-linecap="square"
       stroke-linejoin="bevel"
       transform="matrix(0,-0.5,0.5,0,9,103.5)"
       font-family="Helvetica"
       font-size="20"
       font-weight="400"
       font-style="normal"
       id="g26">
      <text
         fill="#212121"
         fill-opacity="1"
         stroke="none"
         xml:space="preserve"
         x="56.37207"
         y="0.390625"
         font-family="Helvetica"
         font-size="20px"
         font-weight="400"
         font-style="normal"
         id="text25"
         style="text-align:center;text-anchor:middle">Amplitud (%)</text>
    </g>
    <g
       fill="#212121"
       fill-opacity="1"
       stroke="#212121"
       stroke-opacity="1"
       stroke-width="1"
       stroke-linecap="square"
       stroke-linejoin="round"
       transform="matrix(0.5,0,0,0.5,-4.6,-8.25)"
       font-family="Helvetica"
       font-size="20"
       font-weight="400"
       font-style="normal"
       id="g39">
      <polyline
         fill="none"
         vector-effect="none"
         points="66,306 66,27 "
         id="polyline26" />
      <polyline
         fill="none"
         vector-effect="none"
         points="456,306 456,27 "
         id="polyline27" />
      <polyline
         fill="none"
         vector-effect="none"
         points="66,306 69.9,306 "
         id="polyline28" />
      <polyline
         fill="none"
         vector-effect="none"
         points="452.1,306 456,306 "
         id="polyline29" />
      <polyline
         fill="none"
         vector-effect="none"
         points="66,250.2 69.9,250.2 "
         id="polyline30" />
      <polyline
         fill="none"
         vector-effect="none"
         points="452.1,250.2 456,250.2 "
         id="polyline31" />
      <polyline
         fill="none"
         vector-effect="none"
         points="66,194.4 69.9,194.4 "
         id="polyline32" />
      <polyline
         fill="none"
         vector-effect="none"
         points="452.1,194.4 456,194.4 "
         id="polyline33" />
      <polyline
         fill="none"
         vector-effect="none"
         points="66,138.6 69.9,138.6 "
         id="polyline34" />
      <polyline
         fill="none"
         vector-effect="none"
         points="452.1,138.6 456,138.6 "
         id="polyline35" />
      <polyline
         fill="none"
         vector-effect="none"
         points="66,82.8 69.9,82.8 "
         id="polyline36" />
      <polyline
         fill="none"
         vector-effect="none"
         points="452.1,82.8 456,82.8 "
         id="polyline37" />
      <polyline
         fill="none"
         vector-effect="none"
         points="66,27 69.9,27 "
         id="polyline38" />
      <polyline
         fill="none"
         vector-effect="none"
         points="452.1,27 456,27 "
         id="polyline39" />
    </g>
    <g
       fill="#212121"
       fill-opacity="1"
       stroke="#212121"
       stroke-opacity="1"
       stroke-width="1"
       stroke-linecap="square"
       stroke-linejoin="bevel"
       transform="matrix(0.5,0,0,0.5,14.5,147.5)"
       font-family="Helvetica"
       font-size="19"
       font-weight="400"
       font-style="normal"
       id="g40">
      <text
         fill="#212121"
         fill-opacity="1"
         stroke="none"
         xml:space="preserve"
         x="9.2541504"
         y="-0.375"
         font-family="Helvetica"
         font-size="19px"
         font-weight="400"
         font-style="normal"
         id="text39"
         style="text-align:center;text-anchor:middle">10</text>
    </g>
    <g
       fill="#212121"
       fill-opacity="1"
       stroke="#212121"
       stroke-opacity="1"
       stroke-width="1"
       stroke-linecap="square"
       stroke-linejoin="bevel"
       transform="matrix(0.5,0,0,0.5,14.5,119.6)"
       font-family="Helvetica"
       font-size="19"
       font-weight="400"
       font-style="normal"
       id="g41">
      <text
         fill="#212121"
         fill-opacity="1"
         stroke="none"
         xml:space="preserve"
         x="9.8664551"
         y="-0.375"
         font-family="Helvetica"
         font-size="19px"
         font-weight="400"
         font-style="normal"
         id="text40"
         style="text-align:center;text-anchor:middle">20</text>
    </g>
    <g
       fill="#212121"
       fill-opacity="1"
       stroke="#212121"
       stroke-opacity="1"
       stroke-width="1"
       stroke-linecap="square"
       stroke-linejoin="bevel"
       transform="matrix(0.5,0,0,0.5,14.5,91.7)"
       font-family="Helvetica"
       font-size="19"
       font-weight="400"
       font-style="normal"
       id="g42">
      <text
         fill="#212121"
         fill-opacity="1"
         stroke="none"
         xml:space="preserve"
         x="9.9360352"
         y="-0.375"
         font-family="Helvetica"
         font-size="19px"
         font-weight="400"
         font-style="normal"
         id="text41"
         style="text-align:center;text-anchor:middle">30</text>
    </g>
    <g
       fill="#212121"
       fill-opacity="1"
       stroke="#212121"
       stroke-opacity="1"
       stroke-width="1"
       stroke-linecap="square"
       stroke-linejoin="bevel"
       transform="matrix(0.5,0,0,0.5,14.5,63.8)"
       font-family="Helvetica"
       font-size="19"
       font-weight="400"
       font-style="normal"
       id="g43">
      <text
         fill="#212121"
         fill-opacity="1"
         stroke="none"
         xml:space="preserve"
         x="9.9221191"
         y="-0.375"
         font-family="Helvetica"
         font-size="19px"
         font-weight="400"
         font-style="normal"
         id="text42"
         style="text-align:center;text-anchor:middle">40</text>
    </g>
    <g
       fill="#212121"
       fill-opacity="1"
       stroke="#212121"
       stroke-opacity="1"
       stroke-width="1"
       stroke-linecap="square"
       stroke-linejoin="bevel"
       transform="matrix(0.5,0,0,0.5,14.5,35.9)"
       font-family="Helvetica"
       font-size="19"
       font-weight="400"
       font-style="normal"
       id="g44">
      <text
         fill="#212121"
         fill-opacity="1"
         stroke="none"
         xml:space="preserve"
         x="9.8571777"
         y="-0.375"
         font-family="Helvetica"
         font-size="19px"
         font-weight="400"
         font-style="normal"
         id="text43"
         style="text-align:center;text-anchor:middle">50</text>
    </g>
    <g
       fill="#212121"
       fill-opacity="1"
       stroke="#212121"
       stroke-opacity="1"
       stroke-width="1"
       stroke-linecap="square"
       stroke-linejoin="bevel"
       transform="matrix(0.5,0,0,0.5,14.5,8)"
       font-family="Helvetica"
       font-size="19"
       font-weight="400"
       font-style="normal"
       id="g45">
      <text
         fill="#212121"
         fill-opacity="1"
         stroke="none"
         xml:space="preserve"
         x="9.8061523"
         y="-0.375"
         font-family="Helvetica"
         font-size="19px"
         font-weight="400"
         font-style="normal"
         id="text44"
         style="text-align:center;text-anchor:middle">60</text>
    </g>
    <g
       fill="none"
       stroke="#828282"
       stroke-opacity="1"
       stroke-width="2.5"
       stroke-linecap="butt"
       stroke-linejoin="round"
       transform="matrix(0.5,0,0,0.5,-4.6,-8.25)"
       font-family="Helvetica"
       font-size="19"
       font-weight="400"
       font-style="normal"
       id="g46">
      <polyline
         fill="none"
         vector-effect="none"
         points="66,269.755 66.689,269.755 67.378,268.901 68.067,271.464 68.756,270.04 69.445,271.464 70.134,270.894 70.823,270.325 71.512,270.609 72.201,270.609 72.89,269.186 73.579,271.179 74.268,271.179 74.957,271.179 75.646,272.033 76.335,272.033 77.024,271.748 77.713,271.179 78.402,269.755 79.091,270.325 79.78,266.908 80.469,269.755 81.158,268.616 81.847,268.616 82.536,270.325 83.225,269.47 83.914,271.179 84.603,270.894 85.292,270.325 85.981,271.464 86.67,270.325 87.359,273.172 88.048,269.755 88.737,273.457 89.426,271.464 90.115,271.464 90.804,271.748 91.493,270.894 92.182,269.47 92.871,270.04 93.56,268.331 94.249,267.477 94.938,267.477 95.627,263.206 96.316,259.505 97.005,255.519 97.694,251.248 98.383,248.116 99.072,242.421 99.761,239.004 100.45,234.733 101.139,231.032 101.828,225.052 102.517,221.066 103.206,218.503 103.895,211.67 104.584,210.246 105.273,204.836 105.962,201.989 106.651,198.857 107.34,195.725 108.029,193.447 108.718,188.037 109.407,184.336 110.096,183.197 110.785,179.21 111.474,176.648 112.163,172.662 112.852,171.807 113.541,167.252 114.23,167.821 114.919,165.543 115.608,161.557 116.297,160.988 116.986,157.001 117.675,156.717 118.364,152.73 119.053,151.591 119.742,147.036 120.431,144.473 121.12,141.626 121.809,139.063 122.498,135.646 123.187,136.501 123.876,132.514 124.565,131.945 125.254,130.237 125.943,129.952 126.632,127.959 127.321,125.966 128.01,124.542 128.699,121.695 129.388,122.264 130.077,118.563 130.766,119.132 131.455,117.424 132.144,115.146 132.833,116.285 133.522,113.722 134.211,114.861 134.9,113.153 135.589,110.875 136.278,111.159 136.967,108.882 137.656,107.173 138.345,106.319 139.034,104.041 139.723,102.618 140.412,100.909 141.101,102.333 141.79,100.909 142.479,100.055 143.168,102.618 143.857,100.909 144.546,102.048 145.235,99.2007 145.924,99.7702 146.613,98.0618 147.302,96.0687 147.991,95.784 148.68,94.3603 149.369,91.513 150.058,92.6519 150.747,87.8115 151.436,88.9504 152.125,85.8183 152.814,86.3878 153.503,83.5405 154.192,85.2489 154.881,84.3947 155.57,83.2558 156.259,86.6725 156.948,84.9641 157.637,86.3878 158.326,84.6794 159.015,85.2489 159.704,84.3947 160.393,85.2489 161.082,86.6725 161.771,84.11 162.46,84.11 163.149,84.9641 163.838,84.3947 164.527,84.6794 165.216,82.1168 165.905,82.971 166.594,81.2626 167.283,80.1237 167.972,77.8458 168.661,77.5611 169.35,77.8458 170.039,74.9985 170.728,76.4222 171.417,73.8596 172.106,76.1375 172.795,74.9985 173.484,75.2833 174.173,75.8527 174.862,76.7069 175.551,74.9985 176.24,76.9917 176.929,77.8458 177.618,75.8527 178.307,77.8458 178.996,76.7069 179.685,75.568 180.374,76.1375 181.063,73.2902 181.752,74.1443 182.441,71.297 183.13,72.1512 183.819,71.297 184.508,70.1581 185.197,71.297 185.886,68.4497 186.575,70.4428 187.264,69.3039 187.953,71.5817 188.642,71.0123 189.331,71.0123 190.02,72.1512 190.709,71.5817 191.398,71.8665 192.087,72.1512 192.776,70.4428 193.465,71.0123 194.154,70.1581 194.843,71.5817 195.532,70.7276 196.221,70.7276 196.91,70.1581 197.599,70.4428 198.288,70.4428 198.977,69.3039 199.666,70.7276 200.355,67.8802 201.044,66.7413 201.733,66.1718 202.422,67.3108 203.111,68.4497 203.8,66.4566 204.489,67.5955 205.178,65.6024 205.867,66.7413 206.556,65.8871 207.245,66.4566 207.934,66.1718 208.623,65.0329 209.312,66.4566 210.001,66.4566 210.69,67.8802 211.379,67.3108 212.068,68.4497 212.757,69.5886 213.446,67.026 214.135,67.3108 214.824,65.3176 215.513,65.3176 216.202,65.8871 216.891,63.6093 217.58,64.1787 218.269,65.3176 218.958,64.7482 219.647,67.026 220.336,66.4566 221.025,69.5886 221.714,69.0192 222.403,72.1512 223.092,71.5817 223.781,70.1581 224.47,69.5886 225.159,70.4428 225.848,70.7276 226.537,70.1581 227.226,71.0123 227.915,68.4497 228.604,67.5955 229.293,67.026 229.982,66.1718 230.671,67.3108 231.36,67.026 232.049,67.026 232.738,66.1718 233.427,68.165 234.116,67.8802 234.805,66.1718 235.494,67.5955 236.183,65.6024 236.872,65.8871 237.561,64.7482 238.25,65.6024 238.939,65.0329 239.628,62.7551 240.317,64.4635 241.006,61.6161 241.695,64.1787 242.384,66.7413 243.073,63.894 243.762,66.7413 244.451,65.0329 245.14,67.3108 245.829,64.7482 246.518,66.1718 247.207,66.1718 247.896,64.4635 248.585,66.1718 249.274,65.8871 249.963,67.3108 250.652,65.6024 251.341,67.3108 252.03,66.4566 252.719,68.165 253.408,68.7344 254.097,66.7413 254.786,68.7344 255.475,66.7413 256.164,64.4635 256.853,66.7413 257.542,65.0329 258.231,66.1718 258.92,63.894 259.609,65.6024 260.298,64.1787 260.987,63.894 261.676,65.8871 262.365,64.4635 263.054,65.0329 263.743,64.4635 264.432,65.3176 265.121,63.894 265.81,64.1787 266.499,66.1718 267.188,64.1787 267.877,65.3176 268.566,65.0329 269.255,64.4635 269.944,64.7482 270.633,62.7551 271.322,63.894 272.011,63.6093 272.7,62.1856 273.389,61.9009 274.078,63.6093 274.767,64.7482 275.456,65.3176 276.145,66.4566 276.834,66.1718 277.523,67.026 278.212,67.3108 278.901,67.5955 279.59,67.3108 280.279,65.3176 280.968,67.8802 281.657,67.026 282.346,68.4497 283.035,65.8871 283.724,64.4635 284.413,66.4566 285.102,63.3245 285.791,63.894 286.48,62.7551 287.169,61.9009 287.858,63.6093 288.547,62.7551 289.236,63.0398 289.925,63.0398 290.614,64.7482 291.303,63.0398 291.992,63.3245 292.681,63.0398 293.37,61.0467 294.059,61.3314 294.748,59.623 295.437,61.3314 296.126,61.3314 296.815,58.4841 297.504,62.1856 298.193,61.6161 298.882,64.4635 299.571,64.4635 300.26,66.4566 300.949,64.7482 301.638,66.4566 302.327,66.4566 303.016,67.3108 303.705,66.4566 304.394,67.5955 305.083,67.3108 305.772,68.4497 306.461,69.8734 307.15,68.7344 307.839,69.0192 308.528,66.7413 309.217,67.8802 309.906,67.3108 310.595,64.7482 311.284,62.4703 311.973,64.4635 312.662,62.1856 313.351,62.4703 314.04,62.4703 314.729,62.7551 315.418,63.0398 316.107,63.894 316.796,63.894 317.485,62.1856 318.174,62.4703 318.863,62.7551 319.552,63.6093 320.241,63.894 320.93,63.6093 321.619,63.0398 322.308,66.1718 322.997,64.4635 323.686,66.4566 324.375,65.6024 325.064,65.0329 325.753,65.0329 326.442,64.7482 327.131,65.3176 327.82,62.1856 328.509,63.894 329.198,62.4703 329.887,62.1856 330.576,64.1787 331.265,59.9077 331.954,63.894 332.643,65.0329 333.332,66.4566 334.021,65.3176 334.71,67.026 335.399,64.4635 336.088,63.894 336.777,63.6093 337.466,61.6161 338.155,64.4635 338.844,63.6093 339.533,63.894 340.222,63.0398 340.911,63.0398 341.6,63.3245 342.289,63.894 342.978,63.3245 343.667,61.9009 344.356,63.894 345.045,63.0398 345.734,62.4703 346.423,64.1787 347.112,61.6161 347.801,62.7551 348.49,62.7551 349.179,62.7551 349.868,63.6093 350.557,63.0398 351.246,64.4635 351.935,61.0467 352.624,64.7482 353.313,63.894 354.002,62.1856 354.691,64.1787 355.38,62.4703 356.069,65.6024 356.758,63.3245 357.447,60.4772 358.136,63.894 358.825,61.9009 359.514,64.7482 360.203,64.7482 360.892,66.4566 361.581,67.3108 362.27,66.1718 362.959,67.3108 363.648,65.6024 364.337,66.4566 365.026,65.6024 365.715,63.3245 366.404,65.3176 367.093,63.894 367.782,63.3245 368.471,61.6161 369.16,62.1856 369.849,62.1856 370.538,60.4772 371.227,61.3314 371.916,61.9009 372.605,61.9009 373.294,63.894 373.983,62.4703 374.672,64.4635 375.361,62.4703 376.05,63.0398 376.739,63.894 377.428,62.7551 378.117,64.7482 378.806,63.6093 379.495,65.8871 380.184,64.7482 380.873,65.8871 381.562,66.4566 382.251,66.4566 382.94,65.8871 383.629,66.7413 384.318,67.3108 385.007,64.4635 385.696,65.0329 386.385,63.0398 387.074,64.4635 387.763,62.1856 388.452,61.9009 389.141,64.1787 389.83,63.6093 390.519,64.1787 391.208,62.7551 391.897,66.7413 392.586,64.1787 393.275,65.6024 393.964,64.4635 394.653,63.3245 395.342,63.894 396.031,61.9009 396.72,62.7551 397.409,61.0467 398.098,62.1856 398.787,63.0398 399.476,61.3314 400.165,62.1856 400.854,64.4635 401.543,62.7551 402.232,66.1718 402.921,66.7413 403.61,68.4497 404.299,71.5817 404.988,70.7276 405.677,68.7344 406.366,68.4497 407.055,66.1718 407.744,65.3176 408.433,65.0329 409.122,65.3176 409.811,63.6093 410.5,65.3176 411.189,62.7551 411.878,64.7482 412.567,64.4635 413.256,64.7482 413.945,64.7482 414.634,64.1787 415.323,66.7413 416.012,64.7482 416.701,65.6024 417.39,63.3245 418.079,63.0398 418.768,63.6093 419.457,62.7551 420.146,64.1787 420.835,63.0398 421.524,63.3245 422.213,64.4635 422.902,62.7551 423.591,63.894 424.28,63.894 424.969,65.0329 425.658,62.7551 426.347,63.894 427.036,65.0329 427.725,62.4703 428.414,65.0329 429.103,61.0467 429.792,64.4635 430.481,62.7551 431.17,64.4635 431.859,62.7551 432.548,63.0398 433.237,64.4635 433.926,63.6093 434.615,63.6093 435.304,59.623 435.993,62.1856 436.682,61.9009 437.371,64.1787 438.06,63.894 438.749,63.894 439.438,64.7482 440.127,62.1856 440.816,62.7551 441.505,58.1994 442.194,59.3383 442.883,61.9009 443.572,61.6161 444.261,63.894 444.95,63.894 445.639,65.8871 446.328,65.6024 447.017,66.4566 447.706,65.3176 448.395,67.026 449.084,66.4566 449.773,65.3176 450.462,65.6024 451.151,64.4635 451.84,63.3245 452.529,62.1856 453.218,61.9009 453.907,62.4703 454.596,62.4703 455.285,63.0398 455.974,63.3245 "
         id="polyline45" />
    </g>
    <g
       fill="none"
       stroke="#ff0000"
       stroke-opacity="1"
       stroke-width="1"
       stroke-linecap="butt"
       stroke-linejoin="round"
       transform="matrix(0.5,0,0,0.5,-4.6,-8.25)"
       font-family="Helvetica"
       font-size="19"
       font-weight="400"
       font-style="normal"
       id="g47">
      <polyline
         fill="none"
         vector-effect="none"
         points="66,269.793 66.689,269.793 67.378,269.793 68.067,269.793 68.756,269.793 69.445,269.793 70.134,269.793 70.823,269.793 71.512,269.793 72.201,269.793 72.89,269.793 73.579,269.793 74.268,269.793 74.957,269.793 75.646,269.793 76.335,269.793 77.024,269.793 77.713,269.793 78.402,269.793 79.091,269.793 79.78,269.793 80.469,269.793 81.158,269.793 81.847,269.793 82.536,269.793 83.225,269.793 83.914,269.793 84.603,269.793 85.292,269.793 85.981,269.793 86.67,269.793 87.359,269.793 88.048,269.793 88.737,269.793 89.426,269.793 90.115,269.793 90.804,269.793 91.493,269.793 92.182,269.793 92.871,269.793 93.56,269.793 94.249,269.793 94.938,269.793 95.627,265.555 96.316,260.544 97.005,255.658 97.694,250.894 98.383,246.248 99.072,241.718 99.761,237.301 100.45,232.993 101.139,228.793 101.828,224.698 102.517,220.705 103.206,216.811 103.895,213.014 104.584,209.311 105.273,205.701 105.962,202.181 106.651,198.749 107.34,195.401 108.029,192.138 108.718,188.955 109.407,185.852 110.096,182.826 110.785,179.876 111.474,176.999 112.163,174.193 112.852,171.458 113.541,168.79 114.23,166.19 114.919,163.653 115.608,161.18 116.297,158.769 116.986,156.418 117.675,154.125 118.364,151.889 119.053,149.709 119.742,147.583 120.431,145.511 121.12,143.49 121.809,141.519 122.498,139.597 123.187,137.723 123.876,135.896 124.565,134.114 125.254,132.377 125.943,130.683 126.632,129.031 127.321,127.42 128.01,125.85 128.699,124.318 129.388,122.825 130.077,121.369 130.766,119.949 131.455,118.565 132.144,117.215 132.833,115.898 133.522,114.615 134.211,113.363 134.9,112.142 135.589,110.952 136.278,109.792 136.967,108.66 137.656,107.557 138.345,106.481 139.034,105.432 139.723,104.409 140.412,103.412 141.101,102.439 141.79,101.491 142.479,100.566 143.168,99.6641 143.857,98.7849 144.546,97.9275 145.235,97.0914 145.924,96.2762 146.613,95.4813 147.302,94.7062 147.991,93.9504 148.68,93.2134 149.369,92.4948 150.058,91.794 150.747,91.1108 151.436,90.4445 152.125,89.7948 152.814,89.1614 153.503,88.5436 154.192,87.9413 154.881,87.354 155.57,86.7813 156.259,86.2229 156.948,85.6784 157.637,85.1474 158.326,84.6297 159.015,84.1248 159.704,83.6326 160.393,83.1525 161.082,82.6845 161.771,82.2281 162.46,81.7831 163.149,81.3491 163.838,80.926 164.527,80.5134 165.216,80.1111 165.905,79.7188 166.594,79.3362 167.283,78.9632 167.972,78.5995 168.661,78.2449 169.35,77.899 170.039,77.5618 170.728,77.233 171.417,76.9124 172.106,76.5997 172.795,76.2949 173.484,75.9977 174.173,75.7078 174.862,75.4252 175.551,75.1496 176.24,74.8808 176.929,74.6188 177.618,74.3633 178.307,74.1141 178.996,73.8712 179.685,73.6343 180.374,73.4033 181.063,73.1781 181.752,72.9584 182.441,72.7443 183.13,72.5354 183.819,72.3318 184.508,72.1333 185.197,71.9397 185.886,71.7509 186.575,71.5668 187.264,71.3873 187.953,71.2123 188.642,71.0416 189.331,70.8752 190.02,70.7129 190.709,70.5547 191.398,70.4004 192.087,70.2499 192.776,70.1032 193.465,69.9602 194.154,69.8207 194.843,69.6847 195.532,69.5521 196.221,69.4227 196.91,69.2966 197.599,69.1737 198.288,69.0538 198.977,68.9369 199.666,68.8229 200.355,68.7117 201.044,68.6033 201.733,68.4976 202.422,68.3946 203.111,68.2941 203.8,68.1961 204.489,68.1005 205.178,68.0074 205.867,67.9165 206.556,67.8279 207.245,67.7416 207.934,67.6573 208.623,67.5752 209.312,67.4951 210.001,67.417 210.69,67.3409 211.379,67.2666 212.068,67.1942 212.757,67.1236 213.446,67.0548 214.135,66.9877 214.824,66.9222 215.513,66.8584 216.202,66.7962 216.891,66.7355 217.58,66.6763 218.269,66.6186 218.958,66.5623 219.647,66.5075 220.336,66.454 221.025,66.4018 221.714,66.351 222.403,66.3014 223.092,66.253 223.781,66.2058 224.47,66.1599 225.159,66.115 225.848,66.0713 226.537,66.0287 227.226,65.9871 227.915,65.9466 228.604,65.9071 229.293,65.8685 229.982,65.8309 230.671,65.7943 231.36,65.7586 232.049,65.7237 232.738,65.6898 233.427,65.6566 234.116,65.6243 234.805,65.5928 235.494,65.5621 236.183,65.5322 236.872,65.503 237.561,65.4745 238.25,65.4467 238.939,65.4197 239.628,65.3933 240.317,65.3675 241.006,65.3424 241.695,65.3179 242.384,65.2941 243.073,65.2708 243.762,65.2481 244.451,65.226 245.14,65.2044 245.829,65.1834 246.518,65.1629 247.207,65.1429 247.896,65.1233 248.585,65.1043 249.274,65.0858 249.963,65.0677 250.652,65.0501 251.341,65.0329 252.03,65.0161 252.719,64.9997 253.408,64.9838 254.097,64.9683 254.786,64.9531 255.475,64.9383 256.164,64.9239 256.853,64.9099 257.542,64.8961 258.231,64.8828 258.92,64.8698 259.609,64.8571 260.298,64.8447 260.987,64.8326 261.676,64.8208 262.365,64.8093 263.054,64.7981 263.743,64.7872 264.432,64.7766 265.121,64.7662 265.81,64.7561 266.499,64.7462 267.188,64.7366 267.877,64.7272 268.566,64.718 269.255,64.7091 269.944,64.7004 270.633,64.6919 271.322,64.6836 272.011,64.6756 272.7,64.6677 273.389,64.66 274.078,64.6525 274.767,64.6452 275.456,64.6381 276.145,64.6312 276.834,64.6244 277.523,64.6179 278.212,64.6114 278.901,64.6051 279.59,64.599 280.279,64.5931 280.968,64.5873 281.657,64.5816 282.346,64.5761 283.035,64.5707 283.724,64.5654 284.413,64.5603 285.102,64.5553 285.791,64.5504 286.48,64.5457 287.169,64.541 287.858,64.5365 288.547,64.5321 289.236,64.5278 289.925,64.5236 290.614,64.5196 291.303,64.5156 291.992,64.5117 292.681,64.5079 293.37,64.5042 294.059,64.5006 294.748,64.4971 295.437,64.4937 296.126,64.4903 296.815,64.4871 297.504,64.4839 298.193,64.4808 298.882,64.4778 299.571,64.4749 300.26,64.472 300.949,64.4692 301.638,64.4665 302.327,64.4638 303.016,64.4612 303.705,64.4587 304.394,64.4562 305.083,64.4538 305.772,64.4515 306.461,64.4492 307.15,64.4469 307.839,64.4448 308.528,64.4427 309.217,64.4406 309.906,64.4386 310.595,64.4366 311.284,64.4347 311.973,64.4328 312.662,64.431 313.351,64.4292 314.04,64.4275 314.729,64.4258 315.418,64.4241 316.107,64.4226 316.796,64.421 317.485,64.4195 318.174,64.418 318.863,64.4165 319.552,64.4151 320.241,64.4137 320.93,64.4124 321.619,64.4111 322.308,64.4098 322.997,64.4085 323.686,64.4073 324.375,64.4061 325.064,64.405 325.753,64.4038 326.442,64.4028 327.131,64.4017 327.82,64.4006 328.509,64.3996 329.198,64.3986 329.887,64.3976 330.576,64.3967 331.265,64.3958 331.954,64.3949 332.643,64.394 333.332,64.3931 334.021,64.3923 334.71,64.3915 335.399,64.3907 336.088,64.3899 336.777,64.3892 337.466,64.3885 338.155,64.3877 338.844,64.387 339.533,64.3863 340.222,64.3857 340.911,64.385 341.6,64.3844 342.289,64.3838 342.978,64.3832 343.667,64.3826 344.356,64.382 345.045,64.3815 345.734,64.3809 346.423,64.3804 347.112,64.3799 347.801,64.3794 348.49,64.3789 349.179,64.3784 349.868,64.3779 350.557,64.3775 351.246,64.377 351.935,64.3766 352.624,64.3762 353.313,64.3758 354.002,64.3754 354.691,64.375 355.38,64.3746 356.069,64.3742 356.758,64.3739 357.447,64.3735 358.136,64.3732 358.825,64.3728 359.514,64.3725 360.203,64.3722 360.892,64.3719 361.581,64.3716 362.27,64.3713 362.959,64.371 363.648,64.3707 364.337,64.3704 365.026,64.3702 365.715,64.3699 366.404,64.3697 367.093,64.3694 367.782,64.3692 368.471,64.3689 369.16,64.3687 369.849,64.3685 370.538,64.3682 371.227,64.368 371.916,64.3678 372.605,64.3676 373.294,64.3674 373.983,64.3672 374.672,64.367 375.361,64.3669 376.05,64.3667 376.739,64.3665 377.428,64.3663 378.117,64.3662 378.806,64.366 379.495,64.3658 380.184,64.3657 380.873,64.3655 381.562,64.3654 382.251,64.3652 382.94,64.3651 383.629,64.365 384.318,64.3648 385.007,64.3647 385.696,64.3646 386.385,64.3645 387.074,64.3644 387.763,64.3642 388.452,64.3641 389.141,64.364 389.83,64.3639 390.519,64.3638 391.208,64.3637 391.897,64.3636 392.586,64.3635 393.275,64.3634 393.964,64.3633 394.653,64.3632 395.342,64.3631 396.031,64.363 396.72,64.363 397.409,64.3629 398.098,64.3628 398.787,64.3627 399.476,64.3627 400.165,64.3626 400.854,64.3625 401.543,64.3624 402.232,64.3624 402.921,64.3623 403.61,64.3622 404.299,64.3622 404.988,64.3621 405.677,64.362 406.366,64.362 407.055,64.3619 407.744,64.3619 408.433,64.3618 409.122,64.3618 409.811,64.3617 410.5,64.3617 411.189,64.3616 411.878,64.3616 412.567,64.3615 413.256,64.3615 413.945,64.3614 414.634,64.3614 415.323,64.3613 416.012,64.3613 416.701,64.3613 417.39,64.3612 418.079,64.3612 418.768,64.3611 419.457,64.3611 420.146,64.3611 420.835,64.361 421.524,64.361 422.213,64.361 422.902,64.3609 423.591,64.3609 424.28,64.3609 424.969,64.3608 425.658,64.3608 426.347,64.3608 427.036,64.3608 427.725,64.3607 428.414,64.3607 429.103,64.3607 429.792,64.3606 430.481,64.3606 431.17,64.3606 431.859,64.3606 432.548,64.3606 433.237,64.3605 433.926,64.3605 434.615,64.3605 435.304,64.3605 435.993,64.3605 436.682,64.3604 437.371,64.3604 438.06,64.3604 438.749,64.3604 439.438,64.3604 440.127,64.3604 440.816,64.3603 441.505,64.3603 442.194,64.3603 442.883,64.3603 443.572,64.3603 444.261,64.3602 444.95,64.3602 445.639,64.3602 446.328,64.3602 447.017,64.3602 447.706,64.3602 448.395,64.3602 449.084,64.3602 449.773,64.3601 450.462,64.3601 451.151,64.3601 451.84,64.3601 452.529,64.3601 453.218,64.3601 453.907,64.3601 454.596,64.3601 455.285,64.3601 455.974,64.3601 "
         id="polyline46" />
    </g>
    <g
       fill="none"
       stroke="#800080"
       stroke-opacity="1"
       stroke-width="1"
       stroke-linecap="butt"
       stroke-linejoin="round"
       transform="matrix(0.5,0,0,0.5,-4.6,-8.25)"
       font-family="Helvetica"
       font-size="19"
       font-weight="400"
       font-style="normal"
       id="g48">
      <polyline
         fill="none"
         vector-effect="none"
         points="66,269.793 66.689,269.793 67.378,269.793 68.067,269.793 68.756,269.793 69.445,269.793 70.134,269.793 70.823,269.793 71.512,269.793 72.201,269.793 72.89,269.793 73.579,269.793 74.268,269.793 74.957,269.793 75.646,269.793 76.335,269.793 77.024,269.793 77.713,269.793 78.402,269.793 79.091,269.793 79.78,269.793 80.469,269.793 81.158,269.793 81.847,269.793 82.536,269.793 83.225,269.793 83.914,269.793 84.603,269.793 85.292,269.793 85.981,269.793 86.67,269.793 87.359,269.793 88.048,269.793 88.737,269.793 89.426,269.793 90.115,269.793 90.804,269.793 91.493,269.793 92.182,269.793 92.871,269.793 93.56,269.793 94.249,269.793 94.938,269.793 95.627,269.793 96.316,269.793 97.005,265.743 97.694,260.411 98.383,255.22 99.072,250.166 99.761,245.246 100.45,240.456 101.139,235.793 101.828,231.253 102.517,226.833 103.206,222.53 103.895,218.34 104.584,214.262 105.273,210.291 105.962,206.426 106.651,202.662 107.34,198.998 108.029,195.431 108.718,191.959 109.407,188.578 110.096,185.287 110.785,182.082 111.474,178.963 112.163,175.926 112.852,172.969 113.541,170.09 114.23,167.288 114.919,164.56 115.608,161.904 116.297,159.318 116.986,156.8 117.675,154.349 118.364,151.963 119.053,149.64 119.742,147.378 120.431,145.177 121.12,143.033 121.809,140.946 122.498,138.915 123.187,136.937 123.876,135.011 124.565,133.136 125.254,131.311 125.943,129.534 126.632,127.804 127.321,126.12 128.01,124.481 128.699,122.885 129.388,121.331 130.077,119.818 130.766,118.345 131.455,116.911 132.144,115.515 132.833,114.156 133.522,112.833 134.211,111.544 134.9,110.29 135.589,109.069 136.278,107.881 136.967,106.724 137.656,105.597 138.345,104.5 139.034,103.432 139.723,102.393 140.412,101.381 141.101,100.395 141.79,99.4361 142.479,98.5023 143.168,97.5931 143.857,96.708 144.546,95.8462 145.235,95.0073 145.924,94.1906 146.613,93.3954 147.302,92.6213 147.991,91.8676 148.68,91.1339 149.369,90.4196 150.058,89.7242 150.747,89.0472 151.436,88.3881 152.125,87.7464 152.814,87.1217 153.503,86.5135 154.192,85.9213 154.881,85.3449 155.57,84.7837 156.259,84.2373 156.948,83.7054 157.637,83.1875 158.326,82.6834 159.015,82.1926 159.704,81.7147 160.393,81.2495 161.082,80.7966 161.771,80.3557 162.46,79.9264 163.149,79.5085 163.838,79.1016 164.527,78.7056 165.216,78.3199 165.905,77.9445 166.594,77.579 167.283,77.2232 167.972,76.8768 168.661,76.5395 169.35,76.2112 170.039,75.8915 170.728,75.5803 171.417,75.2773 172.106,74.9824 172.795,74.6952 173.484,74.4156 174.173,74.1435 174.862,73.8785 175.551,73.6206 176.24,73.3694 176.929,73.1249 177.618,72.8869 178.307,72.6551 178.996,72.4295 179.685,72.2099 180.374,71.996 181.063,71.7878 181.752,71.5852 182.441,71.3879 183.13,71.1958 183.819,71.0088 184.508,70.8267 185.197,70.6494 185.886,70.4769 186.575,70.3089 187.264,70.1453 187.953,69.9861 188.642,69.8311 189.331,69.6801 190.02,69.5332 190.709,69.3902 191.398,69.2509 192.087,69.1153 192.776,68.9833 193.465,68.8548 194.154,68.7297 194.843,68.6079 195.532,68.4893 196.221,68.3739 196.91,68.2615 197.599,68.1521 198.288,68.0456 198.977,67.9419 199.666,67.8409 200.355,67.7426 201.044,67.6469 201.733,67.5537 202.422,67.4631 203.111,67.3747 203.8,67.2888 204.489,67.2051 205.178,67.1236 205.867,67.0443 206.556,66.9671 207.245,66.8919 207.934,66.8187 208.623,66.7475 209.312,66.6781 210.001,66.6105 210.69,66.5448 211.379,66.4808 212.068,66.4185 212.757,66.3578 213.446,66.2987 214.135,66.2412 214.824,66.1852 215.513,66.1307 216.202,66.0776 216.891,66.026 217.58,65.9757 218.269,65.9267 218.958,65.8791 219.647,65.8327 220.336,65.7875 221.025,65.7435 221.714,65.7007 222.403,65.659 223.092,65.6184 223.781,65.5789 224.47,65.5404 225.159,65.503 225.848,65.4665 226.537,65.431 227.226,65.3965 227.915,65.3628 228.604,65.33 229.293,65.2981 229.982,65.2671 230.671,65.2369 231.36,65.2075 232.049,65.1788 232.738,65.1509 233.427,65.1238 234.116,65.0973 234.805,65.0716 235.494,65.0466 236.183,65.0222 236.872,64.9984 237.561,64.9753 238.25,64.9528 238.939,64.9309 239.628,64.9096 240.317,64.8888 241.006,64.8686 241.695,64.8489 242.384,64.8297 243.073,64.8111 243.762,64.7929 244.451,64.7752 245.14,64.758 245.829,64.7412 246.518,64.7249 247.207,64.709 247.896,64.6936 248.585,64.6785 249.274,64.6639 249.963,64.6496 250.652,64.6357 251.341,64.6222 252.03,64.609 252.719,64.5962 253.408,64.5837 254.097,64.5716 254.786,64.5597 255.475,64.5482 256.164,64.537 256.853,64.5261 257.542,64.5155 258.231,64.5051 258.92,64.4951 259.609,64.4852 260.298,64.4757 260.987,64.4664 261.676,64.4574 262.365,64.4485 263.054,64.44 263.743,64.4316 264.432,64.4235 265.121,64.4156 265.81,64.4079 266.499,64.4004 267.188,64.3931 267.877,64.386 268.566,64.379 269.255,64.3723 269.944,64.3658 270.633,64.3594 271.322,64.3531 272.011,64.3471 272.7,64.3412 273.389,64.3355 274.078,64.3299 274.767,64.3244 275.456,64.3191 276.145,64.314 276.834,64.309 277.523,64.3041 278.212,64.2993 278.901,64.2947 279.59,64.2902 280.279,64.2858 280.968,64.2816 281.657,64.2774 282.346,64.2733 283.035,64.2694 283.724,64.2656 284.413,64.2618 285.102,64.2582 285.791,64.2546 286.48,64.2512 287.169,64.2478 287.858,64.2446 288.547,64.2414 289.236,64.2383 289.925,64.2353 290.614,64.2323 291.303,64.2295 291.992,64.2267 292.681,64.224 293.37,64.2214 294.059,64.2188 294.748,64.2163 295.437,64.2139 296.126,64.2115 296.815,64.2092 297.504,64.2069 298.193,64.2048 298.882,64.2026 299.571,64.2006 300.26,64.1985 300.949,64.1966 301.638,64.1947 302.327,64.1928 303.016,64.191 303.705,64.1892 304.394,64.1875 305.083,64.1858 305.772,64.1842 306.461,64.1826 307.15,64.1811 307.839,64.1796 308.528,64.1781 309.217,64.1767 309.906,64.1753 310.595,64.174 311.284,64.1727 311.973,64.1714 312.662,64.1701 313.351,64.1689 314.04,64.1677 314.729,64.1666 315.418,64.1655 316.107,64.1644 316.796,64.1633 317.485,64.1623 318.174,64.1613 318.863,64.1603 319.552,64.1593 320.241,64.1584 320.93,64.1575 321.619,64.1566 322.308,64.1558 322.997,64.1549 323.686,64.1541 324.375,64.1534 325.064,64.1526 325.753,64.1518 326.442,64.1511 327.131,64.1504 327.82,64.1497 328.509,64.149 329.198,64.1484 329.887,64.1478 330.576,64.1471 331.265,64.1465 331.954,64.1459 332.643,64.1454 333.332,64.1448 334.021,64.1443 334.71,64.1437 335.399,64.1432 336.088,64.1427 336.777,64.1422 337.466,64.1417 338.155,64.1413 338.844,64.1408 339.533,64.1404 340.222,64.14 340.911,64.1396 341.6,64.1392 342.289,64.1388 342.978,64.1384 343.667,64.138 344.356,64.1376 345.045,64.1373 345.734,64.137 346.423,64.1366 347.112,64.1363 347.801,64.136 348.49,64.1357 349.179,64.1354 349.868,64.1351 350.557,64.1348 351.246,64.1345 351.935,64.1342 352.624,64.134 353.313,64.1337 354.002,64.1335 354.691,64.1332 355.38,64.133 356.069,64.1328 356.758,64.1325 357.447,64.1323 358.136,64.1321 358.825,64.1319 359.514,64.1317 360.203,64.1315 360.892,64.1313 361.581,64.1311 362.27,64.1309 362.959,64.1308 363.648,64.1306 364.337,64.1304 365.026,64.1303 365.715,64.1301 366.404,64.13 367.093,64.1298 367.782,64.1297 368.471,64.1295 369.16,64.1294 369.849,64.1292 370.538,64.1291 371.227,64.129 371.916,64.1289 372.605,64.1287 373.294,64.1286 373.983,64.1285 374.672,64.1284 375.361,64.1283 376.05,64.1282 376.739,64.1281 377.428,64.128 378.117,64.1279 378.806,64.1278 379.495,64.1277 380.184,64.1276 380.873,64.1275 381.562,64.1274 382.251,64.1274 382.94,64.1273 383.629,64.1272 384.318,64.1271 385.007,64.127 385.696,64.127 386.385,64.1269 387.074,64.1268 387.763,64.1268 388.452,64.1267 389.141,64.1266 389.83,64.1266 390.519,64.1265 391.208,64.1264 391.897,64.1264 392.586,64.1263 393.275,64.1263 393.964,64.1262 394.653,64.1262 395.342,64.1261 396.031,64.1261 396.72,64.126 397.409,64.126 398.098,64.1259 398.787,64.1259 399.476,64.1258 400.165,64.1258 400.854,64.1258 401.543,64.1257 402.232,64.1257 402.921,64.1257 403.61,64.1256 404.299,64.1256 404.988,64.1255 405.677,64.1255 406.366,64.1255 407.055,64.1255 407.744,64.1254 408.433,64.1254 409.122,64.1254 409.811,64.1253 410.5,64.1253 411.189,64.1253 411.878,64.1253 412.567,64.1252 413.256,64.1252 413.945,64.1252 414.634,64.1252 415.323,64.1251 416.012,64.1251 416.701,64.1251 417.39,64.1251 418.079,64.125 418.768,64.125 419.457,64.125 420.146,64.125 420.835,64.125 421.524,64.125 422.213,64.1249 422.902,64.1249 423.591,64.1249 424.28,64.1249 424.969,64.1249 425.658,64.1248 426.347,64.1248 427.036,64.1248 427.725,64.1248 428.414,64.1248 429.103,64.1248 429.792,64.1248 430.481,64.1248 431.17,64.1247 431.859,64.1247 432.548,64.1247 433.237,64.1247 433.926,64.1247 434.615,64.1247 435.304,64.1247 435.993,64.1247 436.682,64.1247 437.371,64.1247 438.06,64.1246 438.749,64.1246 439.438,64.1246 440.127,64.1246 440.816,64.1246 441.505,64.1246 442.194,64.1246 442.883,64.1246 443.572,64.1246 444.261,64.1246 444.95,64.1245 445.639,64.1245 446.328,64.1245 447.017,64.1245 447.706,64.1245 448.395,64.1245 449.084,64.1245 449.773,64.1245 450.462,64.1245 451.151,64.1245 451.84,64.1245 452.529,64.1245 453.218,64.1245 453.907,64.1245 454.596,64.1245 455.285,64.1245 455.974,64.1245 "
         id="polyline47" />
    </g>
    <g
       fill="none"
       stroke="#50c878"
       stroke-opacity="1"
       stroke-width="1"
       stroke-linecap="butt"
       stroke-linejoin="round"
       transform="matrix(0.5,0,0,0.5,-4.6,-8.25)"
       font-family="Helvetica"
       font-size="19"
       font-weight="400"
       font-style="normal"
       id="g49">
      <polyline
         fill="none"
         vector-effect="none"
         points="66,269.793 66.689,269.793 67.378,269.793 68.067,269.793 68.756,269.793 69.445,269.793 70.134,269.793 70.823,269.793 71.512,269.793 72.201,269.793 72.89,269.793 73.579,269.793 74.268,269.793 74.957,269.793 75.646,269.793 76.335,269.793 77.024,269.793 77.713,269.793 78.402,269.793 79.091,269.793 79.78,269.793 80.469,269.793 81.158,269.793 81.847,269.793 82.536,269.793 83.225,269.793 83.914,269.793 84.603,269.793 85.292,269.793 85.981,269.793 86.67,269.793 87.359,269.793 88.048,269.793 88.737,269.793 89.426,269.793 90.115,269.793 90.804,269.793 91.493,269.793 92.182,265.564 92.871,261.422 93.56,257.364 94.249,253.389 94.938,249.495 95.627,245.681 96.316,241.945 97.005,238.285 97.694,234.699 98.383,231.187 99.072,227.747 99.761,224.377 100.45,221.076 101.139,217.842 101.828,214.674 102.517,211.571 103.206,208.531 103.895,205.553 104.584,202.637 105.273,199.779 105.962,196.98 106.651,194.239 107.34,191.553 108.029,188.922 108.718,186.345 109.407,183.82 110.096,181.347 110.785,178.925 111.474,176.552 112.163,174.227 112.852,171.95 113.541,169.72 114.23,167.535 114.919,165.394 115.608,163.298 116.297,161.244 116.986,159.232 117.675,157.261 118.364,155.331 119.053,153.44 119.742,151.587 120.431,149.772 121.12,147.995 121.809,146.253 122.498,144.548 123.187,142.877 123.876,141.24 124.565,139.637 125.254,138.066 125.943,136.528 126.632,135.02 127.321,133.544 128.01,132.098 128.699,130.681 129.388,129.294 130.077,127.934 130.766,126.603 131.455,125.298 132.144,124.02 132.833,122.769 133.522,121.543 134.211,120.341 134.9,119.165 135.589,118.012 136.278,116.883 136.967,115.777 137.656,114.694 138.345,113.633 139.034,112.593 139.723,111.575 140.412,110.578 141.101,109.6 141.79,108.643 142.479,107.706 143.168,106.787 143.857,105.887 144.546,105.006 145.235,104.143 145.924,103.297 146.613,102.469 147.302,101.657 147.991,100.862 148.68,100.083 149.369,99.3205 150.058,98.5733 150.747,97.8413 151.436,97.1243 152.125,96.4219 152.814,95.7338 153.503,95.0598 154.192,94.3996 154.881,93.7529 155.57,93.1194 156.259,92.4988 156.948,91.8909 157.637,91.2954 158.326,90.712 159.015,90.1406 159.704,89.5808 160.393,89.0325 161.082,88.4954 161.771,87.9692 162.46,87.4538 163.149,86.9489 163.838,86.4544 164.527,85.9699 165.216,85.4953 165.905,85.0304 166.594,84.575 167.283,84.1289 167.972,83.6919 168.661,83.2639 169.35,82.8446 170.039,82.4338 170.728,82.0315 171.417,81.6373 172.106,81.2512 172.795,80.873 173.484,80.5025 174.173,80.1396 174.862,79.7841 175.551,79.4359 176.24,79.0947 176.929,78.7606 177.618,78.4332 178.307,78.1126 178.996,77.7984 179.685,77.4908 180.374,77.1893 181.063,76.8941 181.752,76.6049 182.441,76.3216 183.13,76.044 183.819,75.7722 184.508,75.5059 185.197,75.245 185.886,74.9894 186.575,74.7391 187.264,74.4939 187.953,74.2537 188.642,74.0184 189.331,73.7879 190.02,73.5621 190.709,73.3409 191.398,73.1243 192.087,72.912 192.776,72.7042 193.465,72.5005 194.154,72.301 194.843,72.1056 195.532,71.9142 196.221,71.7266 196.91,71.543 197.599,71.363 198.288,71.1867 198.977,71.0141 199.666,70.8449 200.355,70.6793 201.044,70.517 201.733,70.358 202.422,70.2022 203.111,70.0497 203.8,69.9003 204.489,69.7538 205.178,69.6105 205.867,69.47 206.556,69.3324 207.245,69.1976 207.934,69.0656 208.623,68.9362 209.312,68.8095 210.001,68.6854 210.69,68.5638 211.379,68.4447 212.068,68.3281 212.757,68.2138 213.446,68.1018 214.135,67.9922 214.824,67.8848 215.513,67.7795 216.202,67.6765 216.891,67.5755 217.58,67.4766 218.269,67.3797 218.958,67.2848 219.647,67.1918 220.336,67.1007 221.025,67.0115 221.714,66.9241 222.403,66.8385 223.092,66.7546 223.781,66.6725 224.47,66.592 225.159,66.5132 225.848,66.436 226.537,66.3603 227.226,66.2862 227.915,66.2137 228.604,66.1426 229.293,66.0729 229.982,66.0047 230.671,65.9379 231.36,65.8724 232.049,65.8083 232.738,65.7455 233.427,65.6839 234.116,65.6236 234.805,65.5646 235.494,65.5068 236.183,65.4501 236.872,65.3946 237.561,65.3402 238.25,65.287 238.939,65.2348 239.628,65.1837 240.317,65.1336 241.006,65.0846 241.695,65.0365 242.384,64.9895 243.073,64.9434 243.762,64.8982 244.451,64.854 245.14,64.8107 245.829,64.7682 246.518,64.7266 247.207,64.6859 247.896,64.646 248.585,64.6069 249.274,64.5687 249.963,64.5312 250.652,64.4944 251.341,64.4584 252.03,64.4232 252.719,64.3886 253.408,64.3548 254.097,64.3217 254.786,64.2892 255.475,64.2574 256.164,64.2263 256.853,64.1958 257.542,64.1659 258.231,64.1366 258.92,64.1079 259.609,64.0798 260.298,64.0523 260.987,64.0254 261.676,63.999 262.365,63.9731 263.054,63.9477 263.743,63.9229 264.432,63.8986 265.121,63.8748 265.81,63.8515 266.499,63.8286 267.188,63.8062 267.877,63.7843 268.566,63.7628 269.255,63.7418 269.944,63.7212 270.633,63.701 271.322,63.6812 272.011,63.6618 272.7,63.6428 273.389,63.6242 274.078,63.606 274.767,63.5882 275.456,63.5707 276.145,63.5536 276.834,63.5368 277.523,63.5204 278.212,63.5043 278.901,63.4885 279.59,63.4731 280.279,63.4579 280.968,63.4431 281.657,63.4286 282.346,63.4144 283.035,63.4005 283.724,63.3868 284.413,63.3735 285.102,63.3604 285.791,63.3475 286.48,63.335 287.169,63.3227 287.858,63.3106 288.547,63.2988 289.236,63.2872 289.925,63.2759 290.614,63.2648 291.303,63.2539 291.992,63.2433 292.681,63.2328 293.37,63.2226 294.059,63.2126 294.748,63.2028 295.437,63.1932 296.126,63.1838 296.815,63.1746 297.504,63.1655 298.193,63.1567 298.882,63.148 299.571,63.1395 300.26,63.1312 300.949,63.1231 301.638,63.1151 302.327,63.1073 303.016,63.0996 303.705,63.0921 304.394,63.0848 305.083,63.0776 305.772,63.0705 306.461,63.0636 307.15,63.0568 307.839,63.0502 308.528,63.0437 309.217,63.0374 309.906,63.0312 310.595,63.025 311.284,63.0191 311.973,63.0132 312.662,63.0075 313.351,63.0019 314.04,62.9963 314.729,62.991 315.418,62.9857 316.107,62.9805 316.796,62.9754 317.485,62.9705 318.174,62.9656 318.863,62.9608 319.552,62.9562 320.241,62.9516 320.93,62.9471 321.619,62.9427 322.308,62.9384 322.997,62.9343 323.686,62.9301 324.375,62.9261 325.064,62.9221 325.753,62.9182 326.442,62.9145 327.131,62.9107 327.82,62.9071 328.509,62.9035 329.198,62.9 329.887,62.8966 330.576,62.8933 331.265,62.89 331.954,62.8867 332.643,62.8836 333.332,62.8805 334.021,62.8775 334.71,62.8745 335.399,62.8716 336.088,62.8688 336.777,62.866 337.466,62.8633 338.155,62.8606 338.844,62.858 339.533,62.8554 340.222,62.8529 340.911,62.8504 341.6,62.848 342.289,62.8457 342.978,62.8433 343.667,62.8411 344.356,62.8389 345.045,62.8367 345.734,62.8346 346.423,62.8325 347.112,62.8304 347.801,62.8284 348.49,62.8265 349.179,62.8245 349.868,62.8227 350.557,62.8208 351.246,62.819 351.935,62.8172 352.624,62.8155 353.313,62.8138 354.002,62.8121 354.691,62.8105 355.38,62.8089 356.069,62.8074 356.758,62.8058 357.447,62.8043 358.136,62.8029 358.825,62.8014 359.514,62.8 360.203,62.7986 360.892,62.7973 361.581,62.7959 362.27,62.7946 362.959,62.7934 363.648,62.7921 364.337,62.7909 365.026,62.7897 365.715,62.7885 366.404,62.7874 367.093,62.7863 367.782,62.7852 368.471,62.7841 369.16,62.783 369.849,62.782 370.538,62.781 371.227,62.78 371.916,62.779 372.605,62.7781 373.294,62.7771 373.983,62.7762 374.672,62.7753 375.361,62.7744 376.05,62.7736 376.739,62.7728 377.428,62.7719 378.117,62.7711 378.806,62.7703 379.495,62.7695 380.184,62.7688 380.873,62.7681 381.562,62.7673 382.251,62.7666 382.94,62.7659 383.629,62.7652 384.318,62.7645 385.007,62.7639 385.696,62.7632 386.385,62.7626 387.074,62.762 387.763,62.7614 388.452,62.7608 389.141,62.7602 389.83,62.7596 390.519,62.7591 391.208,62.7586 391.897,62.758 392.586,62.7575 393.275,62.757 393.964,62.7565 394.653,62.756 395.342,62.7555 396.031,62.755 396.72,62.7546 397.409,62.7541 398.098,62.7537 398.787,62.7532 399.476,62.7528 400.165,62.7524 400.854,62.752 401.543,62.7516 402.232,62.7512 402.921,62.7508 403.61,62.7504 404.299,62.7501 404.988,62.7497 405.677,62.7493 406.366,62.749 407.055,62.7487 407.744,62.7483 408.433,62.748 409.122,62.7477 409.811,62.7474 410.5,62.7471 411.189,62.7468 411.878,62.7465 412.567,62.7462 413.256,62.7459 413.945,62.7456 414.634,62.7454 415.323,62.7451 416.012,62.7448 416.701,62.7446 417.39,62.7443 418.079,62.7441 418.768,62.7439 419.457,62.7436 420.146,62.7434 420.835,62.7431 421.524,62.7429 422.213,62.7427 422.902,62.7425 423.591,62.7423 424.28,62.7421 424.969,62.7419 425.658,62.7417 426.347,62.7415 427.036,62.7413 427.725,62.7411 428.414,62.741 429.103,62.7408 429.792,62.7406 430.481,62.7404 431.17,62.7403 431.859,62.7401 432.548,62.74 433.237,62.7398 433.926,62.7397 434.615,62.7395 435.304,62.7394 435.993,62.7392 436.682,62.7391 437.371,62.7389 438.06,62.7388 438.749,62.7387 439.438,62.7386 440.127,62.7384 440.816,62.7383 441.505,62.7382 442.194,62.7381 442.883,62.738 443.572,62.7378 444.261,62.7377 444.95,62.7376 445.639,62.7375 446.328,62.7374 447.017,62.7373 447.706,62.7372 448.395,62.7371 449.084,62.737 449.773,62.7369 450.462,62.7368 451.151,62.7367 451.84,62.7366 452.529,62.7365 453.218,62.7365 453.907,62.7364 454.596,62.7363 455.285,62.7362 455.974,62.7361 "
         id="polyline48" />
    </g>
    <g
       fill="none"
       stroke="#0000ff"
       stroke-opacity="1"
       stroke-width="1"
       stroke-linecap="butt"
       stroke-linejoin="round"
       transform="matrix(0.5,0,0,0.5,-4.6,-8.25)"
       font-family="Helvetica"
       font-size="19"
       font-weight="400"
       font-style="normal"
       id="g50">
      <polyline
         fill="none"
         vector-effect="none"
         points="66,269.793 66.689,269.793 67.378,269.793 68.067,269.793 68.756,269.793 69.445,269.793 70.134,269.793 70.823,269.793 71.512,269.793 72.201,269.793 72.89,269.793 73.579,269.793 74.268,269.793 74.957,269.793 75.646,269.793 76.335,269.793 77.024,269.793 77.713,269.793 78.402,269.793 79.091,269.793 79.78,269.793 80.469,269.793 81.158,269.793 81.847,269.793 82.536,269.793 83.225,269.793 83.914,269.793 84.603,269.793 85.292,269.793 85.981,269.793 86.67,269.793 87.359,269.793 88.048,269.793 88.737,269.793 89.426,269.793 90.115,269.793 90.804,269.793 91.493,269.793 92.182,269.793 92.871,269.793 93.56,269.793 94.249,269.793 94.938,269.793 95.627,267.757 96.316,262.754 97.005,257.874 97.694,253.113 98.383,248.47 99.072,243.941 99.761,239.523 100.45,235.214 101.139,231.01 101.828,226.91 102.517,222.911 103.206,219.01 103.895,215.204 104.584,211.492 105.273,207.872 105.962,204.34 106.651,200.895 107.34,197.535 108.029,194.257 108.718,191.06 109.407,187.941 110.096,184.899 110.785,181.932 111.474,179.037 112.163,176.214 112.852,173.46 113.541,170.774 114.23,168.154 114.919,165.598 115.608,163.105 116.297,160.673 116.986,158.301 117.675,155.987 118.364,153.73 119.053,151.529 119.742,149.381 120.431,147.287 121.12,145.243 121.809,143.25 122.498,141.306 123.187,139.41 123.876,137.56 124.565,135.756 125.254,133.996 125.943,132.28 126.632,130.605 127.321,128.972 128.01,127.379 128.699,125.824 129.388,124.309 130.077,122.83 130.766,121.388 131.455,119.981 132.144,118.608 132.833,117.27 133.522,115.964 134.211,114.69 134.9,113.448 135.589,112.236 136.278,111.054 136.967,109.901 137.656,108.776 138.345,107.679 139.034,106.609 139.723,105.566 140.412,104.547 141.101,103.554 141.79,102.585 142.479,101.641 143.168,100.719 143.857,99.8197 144.546,98.9427 145.235,98.0873 145.924,97.2529 146.613,96.4389 147.302,95.645 147.991,94.8706 148.68,94.1152 149.369,93.3783 150.058,92.6596 150.747,91.9585 151.436,91.2747 152.125,90.6076 152.814,89.957 153.503,89.3223 154.192,88.7032 154.881,88.0993 155.57,87.5103 156.259,86.9357 156.948,86.3753 157.637,85.8286 158.326,85.2953 159.015,84.7752 159.704,84.2678 160.393,83.7729 161.082,83.2902 161.771,82.8193 162.46,82.36 163.149,81.9119 163.838,81.4749 164.527,81.0487 165.216,80.6328 165.905,80.2272 166.594,79.8316 167.283,79.4457 167.972,79.0693 168.661,78.7021 169.35,78.3439 170.039,77.9946 170.728,77.6538 171.417,77.3214 172.106,76.9972 172.795,76.6809 173.484,76.3724 174.173,76.0715 174.862,75.7779 175.551,75.4916 176.24,75.2123 176.929,74.9399 177.618,74.6742 178.307,74.415 178.996,74.1622 179.685,73.9156 180.374,73.675 181.063,73.4403 181.752,73.2115 182.441,72.9882 183.13,72.7704 183.819,72.558 184.508,72.3508 185.197,72.1487 185.886,71.9515 186.575,71.7592 187.264,71.5716 187.953,71.3887 188.642,71.2102 189.331,71.0361 190.02,70.8663 190.709,70.7006 191.398,70.5391 192.087,70.3815 192.776,70.2277 193.465,70.0778 194.154,69.9315 194.843,69.7888 195.532,69.6497 196.221,69.5139 196.91,69.3815 197.599,69.2523 198.288,69.1263 198.977,69.0034 199.666,68.8836 200.355,68.7666 201.044,68.6526 201.733,68.5413 202.422,68.4328 203.111,68.327 203.8,68.2237 204.489,68.123 205.178,68.0247 205.867,67.9289 206.556,67.8354 207.245,67.7443 207.934,67.6553 208.623,67.5686 209.312,67.4839 210.001,67.4014 210.69,67.3209 211.379,67.2424 212.068,67.1657 212.757,67.091 213.446,67.0181 214.135,66.947 214.824,66.8777 215.513,66.81 216.202,66.744 216.891,66.6797 217.58,66.6169 218.269,66.5557 218.958,66.4959 219.647,66.4377 220.336,66.3808 221.025,66.3254 221.714,66.2713 222.403,66.2186 223.092,66.1671 223.781,66.1169 224.47,66.068 225.159,66.0202 225.848,65.9736 226.537,65.9282 227.226,65.8839 227.915,65.8406 228.604,65.7985 229.293,65.7573 229.982,65.7172 230.671,65.6781 231.36,65.6399 232.049,65.6027 232.738,65.5663 233.427,65.5309 234.116,65.4963 234.805,65.4627 235.494,65.4298 236.183,65.3977 236.872,65.3664 237.561,65.3359 238.25,65.3061 238.939,65.2771 239.628,65.2488 240.317,65.2211 241.006,65.1942 241.695,65.1679 242.384,65.1423 243.073,65.1172 243.762,65.0928 244.451,65.0691 245.14,65.0459 245.829,65.0232 246.518,65.0011 247.207,64.9796 247.896,64.9586 248.585,64.9381 249.274,64.9181 249.963,64.8986 250.652,64.8795 251.341,64.861 252.03,64.8429 252.719,64.8252 253.408,64.808 254.097,64.7912 254.786,64.7748 255.475,64.7589 256.164,64.7432 256.853,64.7281 257.542,64.7132 258.231,64.6987 258.92,64.6846 259.609,64.6709 260.298,64.6574 260.987,64.6443 261.676,64.6316 262.365,64.6191 263.054,64.6069 263.743,64.5951 264.432,64.5835 265.121,64.5722 265.81,64.5612 266.499,64.5505 267.188,64.54 267.877,64.5298 268.566,64.5199 269.255,64.5101 269.944,64.5006 270.633,64.4914 271.322,64.4824 272.011,64.4736 272.7,64.465 273.389,64.4566 274.078,64.4485 274.767,64.4405 275.456,64.4327 276.145,64.4251 276.834,64.4178 277.523,64.4105 278.212,64.4035 278.901,64.3966 279.59,64.39 280.279,64.3834 280.968,64.3771 281.657,64.3709 282.346,64.3648 283.035,64.3589 283.724,64.3531 284.413,64.3475 285.102,64.342 285.791,64.3367 286.48,64.3315 287.169,64.3264 287.858,64.3214 288.547,64.3166 289.236,64.3118 289.925,64.3072 290.614,64.3027 291.303,64.2983 291.992,64.2941 292.681,64.2899 293.37,64.2858 294.059,64.2819 294.748,64.278 295.437,64.2742 296.126,64.2705 296.815,64.2669 297.504,64.2634 298.193,64.26 298.882,64.2567 299.571,64.2534 300.26,64.2503 300.949,64.2472 301.638,64.2441 302.327,64.2412 303.016,64.2383 303.705,64.2355 304.394,64.2328 305.083,64.2301 305.772,64.2275 306.461,64.225 307.15,64.2225 307.839,64.2201 308.528,64.2177 309.217,64.2155 309.906,64.2132 310.595,64.211 311.284,64.2089 311.973,64.2068 312.662,64.2048 313.351,64.2028 314.04,64.2009 314.729,64.199 315.418,64.1972 316.107,64.1954 316.796,64.1936 317.485,64.1919 318.174,64.1903 318.863,64.1886 319.552,64.1871 320.241,64.1855 320.93,64.184 321.619,64.1826 322.308,64.1811 322.997,64.1797 323.686,64.1784 324.375,64.177 325.064,64.1757 325.753,64.1745 326.442,64.1732 327.131,64.172 327.82,64.1709 328.509,64.1697 329.198,64.1686 329.887,64.1675 330.576,64.1665 331.265,64.1654 331.954,64.1644 332.643,64.1634 333.332,64.1625 334.021,64.1615 334.71,64.1606 335.399,64.1597 336.088,64.1588 336.777,64.158 337.466,64.1572 338.155,64.1563 338.844,64.1556 339.533,64.1548 340.222,64.1541 340.911,64.1533 341.6,64.1526 342.289,64.1519 342.978,64.1512 343.667,64.1506 344.356,64.1499 345.045,64.1493 345.734,64.1487 346.423,64.1481 347.112,64.1475 347.801,64.1469 348.49,64.1464 349.179,64.1458 349.868,64.1453 350.557,64.1448 351.246,64.1443 351.935,64.1438 352.624,64.1433 353.313,64.1428 354.002,64.1424 354.691,64.1419 355.38,64.1415 356.069,64.1411 356.758,64.1407 357.447,64.1403 358.136,64.1399 358.825,64.1395 359.514,64.1391 360.203,64.1387 360.892,64.1384 361.581,64.138 362.27,64.1377 362.959,64.1374 363.648,64.1371 364.337,64.1367 365.026,64.1364 365.715,64.1361 366.404,64.1358 367.093,64.1356 367.782,64.1353 368.471,64.135 369.16,64.1348 369.849,64.1345 370.538,64.1343 371.227,64.134 371.916,64.1338 372.605,64.1335 373.294,64.1333 373.983,64.1331 374.672,64.1329 375.361,64.1327 376.05,64.1324 376.739,64.1323 377.428,64.1321 378.117,64.1319 378.806,64.1317 379.495,64.1315 380.184,64.1313 380.873,64.1311 381.562,64.131 382.251,64.1308 382.94,64.1307 383.629,64.1305 384.318,64.1303 385.007,64.1302 385.696,64.1301 386.385,64.1299 387.074,64.1298 387.763,64.1296 388.452,64.1295 389.141,64.1294 389.83,64.1292 390.519,64.1291 391.208,64.129 391.897,64.1289 392.586,64.1288 393.275,64.1287 393.964,64.1286 394.653,64.1285 395.342,64.1284 396.031,64.1283 396.72,64.1282 397.409,64.1281 398.098,64.128 398.787,64.1279 399.476,64.1278 400.165,64.1277 400.854,64.1276 401.543,64.1275 402.232,64.1275 402.921,64.1274 403.61,64.1273 404.299,64.1272 404.988,64.1272 405.677,64.1271 406.366,64.127 407.055,64.127 407.744,64.1269 408.433,64.1268 409.122,64.1268 409.811,64.1267 410.5,64.1266 411.189,64.1266 411.878,64.1265 412.567,64.1265 413.256,64.1264 413.945,64.1264 414.634,64.1263 415.323,64.1263 416.012,64.1262 416.701,64.1262 417.39,64.1261 418.079,64.1261 418.768,64.126 419.457,64.126 420.146,64.126 420.835,64.1259 421.524,64.1259 422.213,64.1258 422.902,64.1258 423.591,64.1258 424.28,64.1257 424.969,64.1257 425.658,64.1257 426.347,64.1256 427.036,64.1256 427.725,64.1255 428.414,64.1255 429.103,64.1255 429.792,64.1255 430.481,64.1254 431.17,64.1254 431.859,64.1254 432.548,64.1254 433.237,64.1253 433.926,64.1253 434.615,64.1253 435.304,64.1253 435.993,64.1252 436.682,64.1252 437.371,64.1252 438.06,64.1252 438.749,64.1251 439.438,64.1251 440.127,64.1251 440.816,64.1251 441.505,64.1251 442.194,64.125 442.883,64.125 443.572,64.125 444.261,64.125 444.95,64.125 445.639,64.125 446.328,64.1249 447.017,64.1249 447.706,64.1249 448.395,64.1249 449.084,64.1249 449.773,64.1249 450.462,64.1248 451.151,64.1248 451.84,64.1248 452.529,64.1248 453.218,64.1248 453.907,64.1248 454.596,64.1248 455.285,64.1248 455.974,64.1247 "
         id="polyline49" />
    </g>
    <g
       fill="none"
       stroke="#ff4b00"
       stroke-opacity="1"
       stroke-width="1"
       stroke-linecap="butt"
       stroke-linejoin="round"
       transform="matrix(0.5,0,0,0.5,-4.6,-8.25)"
       font-family="Helvetica"
       font-size="19"
       font-weight="400"
       font-style="normal"
       id="g51">
      <polyline
         fill="none"
         vector-effect="none"
         points="66,250.2 66.689,250.2 67.378,250.2 68.067,250.2 68.756,250.2 69.445,250.2 70.134,250.2 70.823,250.2 71.512,250.2 72.201,250.2 72.89,250.2 73.579,250.2 74.268,250.2 74.957,250.2 75.646,250.2 76.335,250.2 77.024,250.2 77.713,250.2 78.402,250.2 79.091,250.2 79.78,250.2 80.469,250.2 81.158,250.2 81.847,250.2 82.536,250.2 83.225,250.2 83.914,250.2 84.603,250.2 85.292,250.2 85.981,250.2 86.67,250.2 87.359,250.2 88.048,250.2 88.737,250.2 89.426,250.2 90.115,250.2 90.804,250.2 91.493,27 92.182,27 92.871,27 93.56,27 94.249,27 94.938,27 95.627,27 96.316,27 97.005,27 97.694,27 98.383,27 99.072,27 99.761,27 100.45,27 101.139,27 101.828,27 102.517,27 103.206,27 103.895,27 104.584,27 105.273,27 105.962,27 106.651,27 107.34,27 108.029,27 108.718,27 109.407,27 110.096,27 110.785,27 111.474,27 112.163,27 112.852,27 113.541,27 114.23,27 114.919,27 115.608,27 116.297,27 116.986,27 117.675,27 118.364,27 119.053,27 119.742,27 120.431,27 121.12,27 121.809,27 122.498,27 123.187,27 123.876,27 124.565,27 125.254,27 125.943,27 126.632,27 127.321,27 128.01,27 128.699,27 129.388,27 130.077,27 130.766,27 131.455,27 132.144,27 132.833,27 133.522,27 134.211,27 134.9,27 135.589,27 136.278,27 136.967,27 137.656,27 138.345,27 139.034,27 139.723,27 140.412,27 141.101,27 141.79,27 142.479,27 143.168,27 143.857,27 144.546,27 145.235,27 145.924,27 146.613,27 147.302,27 147.991,27 148.68,27 149.369,27 150.058,27 150.747,27 151.436,27 152.125,27 152.814,27 153.503,27 154.192,27 154.881,27 155.57,27 156.259,27 156.948,27 157.637,27 158.326,27 159.015,27 159.704,27 160.393,27 161.082,27 161.771,27 162.46,27 163.149,27 163.838,27 164.527,27 165.216,27 165.905,27 166.594,27 167.283,27 167.972,27 168.661,27 169.35,27 170.039,27 170.728,27 171.417,27 172.106,27 172.795,27 173.484,27 174.173,27 174.862,27 175.551,27 176.24,27 176.929,27 177.618,27 178.307,27 178.996,27 179.685,27 180.374,27 181.063,27 181.752,27 182.441,27 183.13,27 183.819,27 184.508,27 185.197,27 185.886,27 186.575,27 187.264,27 187.953,27 188.642,27 189.331,27 190.02,27 190.709,27 191.398,27 192.087,27 192.776,27 193.465,27 194.154,27 194.843,27 195.532,27 196.221,27 196.91,27 197.599,27 198.288,27 198.977,27 199.666,27 200.355,27 201.044,27 201.733,27 202.422,27 203.111,27 203.8,27 204.489,27 205.178,27 205.867,27 206.556,27 207.245,27 207.934,27 208.623,27 209.312,27 210.001,27 210.69,27 211.379,27 212.068,27 212.757,27 213.446,27 214.135,27 214.824,27 215.513,27 216.202,27 216.891,27 217.58,27 218.269,27 218.958,27 219.647,27 220.336,27 221.025,27 221.714,27 222.403,27 223.092,27 223.781,27 224.47,27 225.159,27 225.848,27 226.537,27 227.226,27 227.915,27 228.604,27 229.293,27 229.982,27 230.671,27 231.36,27 232.049,27 232.738,27 233.427,27 234.116,27 234.805,27 235.494,27 236.183,27 236.872,27 237.561,27 238.25,27 238.939,27 239.628,27 240.317,27 241.006,27 241.695,27 242.384,27 243.073,27 243.762,27 244.451,27 245.14,27 245.829,27 246.518,27 247.207,27 247.896,27 248.585,27 249.274,27 249.963,27 250.652,27 251.341,27 252.03,27 252.719,27 253.408,27 254.097,27 254.786,27 255.475,27 256.164,27 256.853,27 257.542,27 258.231,27 258.92,27 259.609,27 260.298,27 260.987,27 261.676,27 262.365,27 263.054,27 263.743,27 264.432,27 265.121,27 265.81,27 266.499,27 267.188,27 267.877,27 268.566,27 269.255,27 269.944,27 270.633,27 271.322,27 272.011,27 272.7,27 273.389,27 274.078,27 274.767,27 275.456,27 276.145,27 276.834,27 277.523,27 278.212,27 278.901,27 279.59,27 280.279,27 280.968,27 281.657,27 282.346,27 283.035,27 283.724,27 284.413,27 285.102,27 285.791,27 286.48,27 287.169,27 287.858,27 288.547,27 289.236,27 289.925,27 290.614,27 291.303,27 291.992,27 292.681,27 293.37,27 294.059,27 294.748,27 295.437,27 296.126,27 296.815,27 297.504,27 298.193,27 298.882,27 299.571,27 300.26,27 300.949,27 301.638,27 302.327,27 303.016,27 303.705,27 304.394,27 305.083,27 305.772,27 306.461,27 307.15,27 307.839,27 308.528,27 309.217,27 309.906,27 310.595,27 311.284,27 311.973,27 312.662,27 313.351,27 314.04,27 314.729,27 315.418,27 316.107,27 316.796,27 317.485,27 318.174,27 318.863,27 319.552,27 320.241,27 320.93,27 321.619,27 322.308,27 322.997,27 323.686,27 324.375,27 325.064,27 325.753,27 326.442,27 327.131,27 327.82,27 328.509,27 329.198,27 329.887,27 330.576,27 331.265,27 331.954,27 332.643,27 333.332,27 334.021,27 334.71,27 335.399,27 336.088,27 336.777,27 337.466,27 338.155,27 338.844,27 339.533,27 340.222,27 340.911,27 341.6,27 342.289,27 342.978,27 343.667,27 344.356,27 345.045,27 345.734,27 346.423,27 347.112,27 347.801,27 348.49,27 349.179,27 349.868,27 350.557,27 351.246,27 351.935,27 352.624,27 353.313,27 354.002,27 354.691,27 355.38,27 356.069,27 356.758,27 357.447,27 358.136,27 358.825,27 359.514,27 360.203,27 360.892,27 361.581,27 362.27,27 362.959,27 363.648,27 364.337,27 365.026,27 365.715,27 366.404,27 367.093,27 367.782,27 368.471,27 369.16,27 369.849,27 370.538,27 371.227,27 371.916,27 372.605,27 373.294,27 373.983,27 374.672,27 375.361,27 376.05,27 376.739,27 377.428,27 378.117,27 378.806,27 379.495,27 380.184,27 380.873,27 381.562,27 382.251,27 382.94,27 383.629,27 384.318,27 385.007,27 385.696,27 386.385,27 387.074,27 387.763,27 388.452,27 389.141,27 389.83,27 390.519,27 391.208,27 391.897,27 392.586,27 393.275,27 393.964,27 394.653,27 395.342,27 396.031,27 396.72,27 397.409,27 398.098,27 398.787,27 399.476,27 400.165,27 400.854,27 401.543,27 402.232,27 402.921,27 403.61,27 404.299,27 404.988,27 405.677,27 406.366,27 407.055,27 407.744,27 408.433,27 409.122,27 409.811,27 410.5,27 411.189,27 411.878,27 412.567,27 413.256,27 413.945,27 414.634,27 415.323,27 416.012,27 416.701,27 417.39,27 418.079,27 418.768,27 419.457,27 420.146,27 420.835,27 421.524,27 422.213,27 422.902,27 423.591,27 424.28,27 424.969,27 425.658,27 426.347,27 427.036,27 427.725,27 428.414,27 429.103,27 429.792,27 430.481,27 431.17,27 431.859,27 432.548,27 433.237,27 433.926,27 434.615,27 435.304,27 435.993,27 436.682,27 437.371,27 438.06,27 438.749,27 439.438,27 440.127,27 440.816,27 441.505,27 442.194,27 442.883,27 443.572,27 444.261,27 444.95,27 445.639,27 446.328,27 447.017,27 447.706,27 448.395,27 449.084,27 449.773,27 450.462,27 451.151,27 451.84,27 452.529,27 453.218,27 453.907,27 454.596,27 455.285,27 455.974,27 "
         id="polyline50" />
    </g>
    <g
       fill="#ffffff"
       fill-opacity="1"
       stroke="none"
       transform="matrix(5e-05,0,0,5e-05,-4.6,-8.25)"
       font-family="Helvetica"
       font-size="19"
       font-weight="400"
       font-style="normal"
       id="g52">
      <path
         vector-effect="none"
         fill-rule="evenodd"
         d="M2.42e+06,1.63e+06 L2.42e+06,2.92e+06 L4.42e+06,2.92e+06 L4.42e+06,1.63e+06 L2.42e+06,1.63e+06"
         id="path51" />
    </g>
    <g
       fill="#828282"
       fill-opacity="1"
       stroke="#828282"
       stroke-opacity="1"
       stroke-width="2.5"
       stroke-linecap="butt"
       stroke-linejoin="round"
       transform="matrix(0.5,0,0,0.5,-4.6,-8.25)"
       font-family="Helvetica"
       font-size="19"
       font-weight="400"
       font-style="normal"
       id="g53">
      <polyline
         fill="none"
         vector-effect="none"
         points="248.015,175.925 308.165,175.925 "
         id="polyline52" />
    </g>
    <g
       fill="#ff0000"
       fill-opacity="1"
       stroke="#ff0000"
       stroke-opacity="1"
       stroke-width="1"
       stroke-linecap="butt"
       stroke-linejoin="round"
       transform="matrix(0.5,0,0,0.5,-4.6,-8.25)"
       font-family="Helvetica"
       font-size="19"
       font-weight="400"
       font-style="normal"
       id="g54">
      <polyline
         fill="none"
         vector-effect="none"
         points="248.015,196.555 308.165,196.555 "
         id="polyline53" />
    </g>
    <g
       fill="#800080"
       fill-opacity="1"
       stroke="#800080"
       stroke-opacity="1"
       stroke-width="1"
       stroke-linecap="butt"
       stroke-linejoin="round"
       transform="matrix(0.5,0,0,0.5,-4.6,-8.25)"
       font-family="Helvetica"
       font-size="19"
       font-weight="400"
       font-style="normal"
       id="g55">
      <polyline
         fill="none"
         vector-effect="none"
         points="248.015,217.185 308.165,217.185 "
         id="polyline54" />
    </g>
    <g
       fill="#50c878"
       fill-opacity="1"
       stroke="#50c878"
       stroke-opacity="1"
       stroke-width="1"
       stroke-linecap="butt"
       stroke-linejoin="round"
       transform="matrix(0.5,0,0,0.5,-4.6,-8.25)"
       font-family="Helvetica"
       font-size="19"
       font-weight="400"
       font-style="normal"
       id="g56">
      <polyline
         fill="none"
         vector-effect="none"
         points="248.015,237.815 308.165,237.815 "
         id="polyline55" />
    </g>
    <g
       fill="#0000ff"
       fill-opacity="1"
       stroke="#0000ff"
       stroke-opacity="1"
       stroke-width="1"
       stroke-linecap="butt"
       stroke-linejoin="round"
       transform="matrix(0.5,0,0,0.5,-4.6,-8.25)"
       font-family="Helvetica"
       font-size="19"
       font-weight="400"
       font-style="normal"
       id="g57">
      <polyline
         fill="none"
         vector-effect="none"
         points="248.015,258.445 308.165,258.445 "
         id="polyline56" />
    </g>
    <g
       fill="#ff4b00"
       fill-opacity="1"
       stroke="#ff4b00"
       stroke-opacity="1"
       stroke-width="1"
       stroke-linecap="butt"
       stroke-linejoin="round"
       transform="matrix(0.5,0,0,0.5,-4.6,-8.25)"
       font-family="Helvetica"
       font-size="19"
       font-weight="400"
       font-style="normal"
       id="g58">
      <polyline
         fill="none"
         vector-effect="none"
         points="248.015,279.075 308.165,279.075 "
         id="polyline57" />
    </g>
    <g
       fill="#212121"
       fill-opacity="1"
       stroke="#212121"
       stroke-opacity="1"
       stroke-width="1"
       stroke-linecap="square"
       stroke-linejoin="bevel"
       transform="matrix(0.5,0,0,0.5,151.738,81.9624)"
       font-family="Helvetica"
       font-size="17"
       font-weight="400"
       font-style="normal"
       id="g59">
      <text
         fill="#212121"
         fill-opacity="1"
         stroke="none"
         xml:space="preserve"
         x="0"
         y="0.078125"
         font-family="Helvetica"
         font-size="17px"
         font-weight="400"
         font-style="normal"
         id="text58"
         style="text-align:center;text-anchor:middle"><tspan
           style="text-align:start;text-anchor:start"
           id="tspan66">Proceso $y(t)$</tspan></text>
    </g>
    <g
       fill="#212121"
       fill-opacity="1"
       stroke="#212121"
       stroke-opacity="1"
       stroke-width="1"
       stroke-linecap="square"
       stroke-linejoin="bevel"
       transform="matrix(0.5,0,0,0.5,172.738,92.2775)"
       font-family="Helvetica"
       font-size="17px"
       font-weight="400"
       font-style="normal"
       id="g60">
      <text
         fill="#212121"
         fill-opacity="1"
         stroke="none"
         xml:space="preserve"
         x="-41.885742"
         y="0.078125"
         font-family="Helvetica"
         font-size="17px"
         font-weight="400"
         font-style="normal"
         id="text59"
         style="font-size:13px;text-align:start;text-anchor:start">Modelo $y_{\text{SIT}}(t)$</text>
    </g>
    <g
       fill="#212121"
       fill-opacity="1"
       stroke="#212121"
       stroke-opacity="1"
       stroke-width="1"
       stroke-linecap="square"
       stroke-linejoin="bevel"
       transform="matrix(0.5,0,0,0.5,151.36813,102.592)"
       font-family="Helvetica"
       font-size="17px"
       font-weight="400"
       font-style="normal"
       id="g61">
      <text
         fill="#212121"
         fill-opacity="1"
         stroke="none"
         xml:space="preserve"
         x="0.85400295"
         y="0.078125"
         font-family="Helvetica"
         font-size="17px"
         font-weight="400"
         font-style="normal"
         id="text60"
         style="font-size:13px;text-align:center;text-anchor:middle"><tspan
           style="font-size:13px;text-align:start;text-anchor:start"
           id="tspan67">Modelo $y_{123c}(t)$</tspan></text>
    </g>
    <g
       fill="#212121"
       fill-opacity="1"
       stroke="#212121"
       stroke-opacity="1"
       stroke-width="1"
       stroke-linecap="square"
       stroke-linejoin="bevel"
       transform="matrix(0.5,0,0,0.5,153.238,112.908)"
       font-family="Helvetica"
       font-size="17px"
       font-weight="400"
       font-style="normal"
       id="g62">
      <text
         fill="#212121"
         fill-opacity="1"
         stroke="none"
         xml:space="preserve"
         x="-2.8857422"
         y="0.078125"
         font-family="Helvetica"
         font-size="17px"
         font-weight="400"
         font-style="normal"
         id="text61"
         style="font-size:13px;text-align:center;text-anchor:middle"><tspan
           sodipodi:role="line"
           id="tspan71"
           x="-2.8857422"
           y="0.078125"
           style="font-size:13px;text-align:start;text-anchor:start">Modelo $y_{\text{LS}}(t)$</tspan></text>
    </g>
    <g
       fill="#212121"
       fill-opacity="1"
       stroke="#212121"
       stroke-opacity="1"
       stroke-width="1"
       stroke-linecap="square"
       stroke-linejoin="bevel"
       transform="matrix(0.5,0,0,0.5,151.738,123.223)"
       font-family="Helvetica"
       font-size="17"
       font-weight="400"
       font-style="normal"
       id="g63">
      <text
         fill="#212121"
         fill-opacity="1"
         stroke="none"
         xml:space="preserve"
         x="0.11425781"
         y="0.078125"
         font-family="Helvetica"
         font-size="17px"
         font-weight="400"
         font-style="normal"
         id="text62"
         style="font-size:13px;text-align:center;text-anchor:middle"><tspan
           style="font-size:13px;text-align:start;text-anchor:start"
           id="tspan69">Modelo $y_{\text{Ho}}(t)$</tspan></text>
    </g>
    <g
       fill="#212121"
       fill-opacity="1"
       stroke="#212121"
       stroke-opacity="1"
       stroke-width="1"
       stroke-linecap="square"
       stroke-linejoin="bevel"
       transform="matrix(0.5,0,0,0.5,151.738,133.538)"
       font-family="Helvetica"
       font-size="17"
       font-weight="400"
       font-style="normal"
       id="g64">
      <text
         fill="#212121"
         fill-opacity="1"
         stroke="none"
         xml:space="preserve"
         x="-0.37988281"
         y="0.078125"
         font-family="Helvetica"
         font-size="17px"
         font-weight="400"
         font-style="normal"
         id="text63"
         style="text-align:start;text-anchor:start">Entrada $u(t)$</text>
    </g>
    <g
       fill="none"
       stroke="#212121"
       stroke-opacity="1"
       stroke-width="1"
       stroke-linecap="butt"
       stroke-linejoin="miter"
       stroke-miterlimit="2"
       transform="matrix(0.5,0,0,0.5,-4.6,-8.25)"
       font-family="Helvetica"
       font-size="17"
       font-weight="400"
       font-style="normal"
       id="g65">
      <path
         vector-effect="none"
         fill-rule="evenodd"
         d="M242,292 L242,163 L442,163 L442,292 L242,292"
         id="path64" />
    </g>
  </g>
</svg>
